<?xml version="1.0" encoding="utf-8"?>
<!-- Generator: Adobe Illustrator 23.0.5, SVG Export Plug-In . SVG Version: 6.00 Build 0)  -->
<svg version="1.1" id="OBJECTS" xmlns="http://www.w3.org/2000/svg" xmlns:xlink="http://www.w3.org/1999/xlink" x="0px" y="0px"
	 viewBox="0 0 500 500" style="enable-background:new 0 0 500 500;" xml:space="preserve">
<style type="text/css">
	.st0{fill:#EE5778;}
	.st1{fill:#1B262C;}
	.st2{fill:#FFFFFF;}
</style>
<g>
	<g>
		<path class="st0" d="M225,30.9c-0.4,2.2-0.8,4.4-1.2,6.7c-0.2,0.9,1.2,1.2,1.3,0.4c0.4-2.2,0.8-4.4,1.2-6.7
			C226.5,30.4,225.2,30,225,30.9z"/>
		<g>
			<path class="st0" d="M134.3,77c1.7-0.5,3.4-0.2,4.9,0.9c0.7,0.5,1.4-0.7,0.7-1.2c-1.7-1.3-3.9-1.6-5.9-1
				C133.1,75.9,133.4,77.3,134.3,77z"/>
			<path class="st0" d="M143,65.2c0,2.1,0,4.2,0,6.2c0,0.9,1.4,0.9,1.4,0c0-2.1,0-4.2,0-6.2C144.4,64.3,143,64.3,143,65.2z"/>
			<path class="st0" d="M151.1,70.4c0.8-2,2.3-3.6,4.1-4.7c0.8-0.4,0.1-1.6-0.7-1.2c-2.2,1.3-3.8,3.2-4.8,5.5
				C149.5,70.9,150.8,71.2,151.1,70.4z"/>
			<path class="st0" d="M169.7,21.3c-1.8,6.1-3.8,12.1-6.2,17.9c-0.3,0.8,1,1.2,1.3,0.4c2.4-5.9,4.4-11.8,6.2-17.9
				C171.2,20.8,169.9,20.5,169.7,21.3z"/>
			<path class="st0" d="M213.6,35.9c2.3-0.1,4.2,1.5,4.6,3.7c0.2,0.9,1.5,0.5,1.3-0.4c-0.5-2.8-3.1-4.8-5.9-4.7
				C212.8,34.5,212.8,35.9,213.6,35.9z"/>
			<path class="st0" d="M229.1,38.4c1.2-2.8,4.3-4.2,7.2-3.2c0.8,0.3,1.2-1,0.4-1.3c-3.4-1.1-7.3,0.6-8.7,3.9
				C227.6,38.6,228.8,39.3,229.1,38.4z"/>
			<path class="st0" d="M326.8,35.3c1.5,1.3,2.2,3,2.1,5c0,0.9,1.3,0.9,1.4,0c0.1-2.3-0.8-4.4-2.5-5.9
				C327.1,33.7,326.2,34.7,326.8,35.3z"/>
			<path class="st0" d="M339.1,33.8c-0.6,1.4-1.1,2.8-1.7,4.2c-0.3,0.8,1,1.2,1.3,0.4c0.6-1.4,1.1-2.8,1.7-4.2
				C340.7,33.3,339.4,33,339.1,33.8z"/>
			<path class="st0" d="M341.3,43.2c3.1-2.1,6.8-2.6,10.3-1.4c0.8,0.3,1.2-1,0.4-1.3c-3.9-1.3-8-0.7-11.4,1.5
				C339.9,42.5,340.6,43.7,341.3,43.2z"/>
			<path class="st0" d="M393.9,67.9c2.5,0.1,2,3.4,1.7,5c-0.2,0.9,1.1,1.2,1.3,0.4c0.3-1.5,0.7-3.2,0-4.7c-0.6-1.2-1.6-2-2.9-2
				C393,66.5,393,67.8,393.9,67.9z"/>
			<path class="st0" d="M406.7,77.2c0.8-1.7,2.1-3.1,3.8-4c0.8-0.4,0.1-1.6-0.7-1.2c-1.9,1-3.4,2.6-4.3,4.5
				C405.1,77.3,406.3,78,406.7,77.2z"/>
			<path class="st0" d="M413.8,81.6c1.9-1.3,4.3-1.4,6.3-0.4c0.8,0.4,1.5-0.8,0.7-1.2c-2.5-1.2-5.4-1.1-7.7,0.4
				C412.4,80.9,413.1,82.1,413.8,81.6z"/>
			<path class="st0" d="M451.2,139.7c0.1,2.1,0.3,4.2,0.4,6.2c0.1,0.9,1.4,0.9,1.4,0c-0.1-2.1-0.3-4.2-0.4-6.2
				C452.5,138.8,451.2,138.8,451.2,139.7z"/>
			<path class="st0" d="M456.7,150.9c1.5-1.7,3.5-2.8,5.7-3.3c0.9-0.2,0.5-1.5-0.4-1.3c-2.4,0.6-4.6,1.9-6.3,3.7
				C455.2,150.6,456.1,151.6,456.7,150.9z"/>
			<path class="st0" d="M459.7,156.2c1.8-1.3,4-1.5,5.9-0.5c0.8,0.4,1.5-0.8,0.7-1.2c-2.3-1.3-5.2-1.1-7.3,0.5
				C458.3,155.5,459,156.7,459.7,156.2z"/>
			<path class="st0" d="M346,484.6c2.7,0.3,4.8,2.3,5.4,4.9c0.2,0.9,1.5,0.5,1.3-0.4c-0.7-3.2-3.5-5.6-6.8-5.9
				C345.2,483.1,345.2,484.5,346,484.6z"/>
			<path class="st0" d="M359.4,477.1c-0.9,3.1-1.7,6.2-2.6,9.3c-0.2,0.8,1.1,1.2,1.3,0.4c0.9-3.1,1.7-6.2,2.6-9.3
				C360.9,476.6,359.6,476.3,359.4,477.1z"/>
			<path class="st0" d="M360.7,490.4c1.9-3.5,6.1-4.9,9.8-3.5c0.8,0.3,1.2-1,0.4-1.3c-4.3-1.6-9.1,0.2-11.3,4.2
				C359.1,490.5,360.2,491.2,360.7,490.4z"/>
			<path class="st0" d="M125.2,492.5c2.8,0.2,4.1,3.4,4.9,5.7c0.3,0.8,1.6,0.5,1.3-0.4c-1.1-2.9-2.7-6.4-6.2-6.7
				C124.3,491.1,124.3,492.5,125.2,492.5z"/>
			<path class="st0" d="M140.2,481.5c-1,1.7-1.6,3.6-1.8,5.6c-0.1,0.9,1.3,0.9,1.4,0c0.1-1.8,0.7-3.4,1.6-4.9
				C141.9,481.5,140.7,480.8,140.2,481.5z"/>
			<path class="st0" d="M141.5,494.9c2.2-3,5.6-4.8,9.3-5c0.9-0.1,0.9-1.4,0-1.4c-4.2,0.3-7.9,2.3-10.4,5.7
				C139.8,494.9,141,495.6,141.5,494.9z"/>
			<path class="st0" d="M51.9,492.5c-2.8,1.5-5.1,3.7-6.7,6.4c-0.4,0.8,0.7,1.5,1.2,0.7c1.5-2.6,3.6-4.6,6.2-5.9
				C53.4,493.3,52.7,492.1,51.9,492.5z"/>
			<path class="st0" d="M36,487.5c0,2.6,0,5.2,0,7.8c0,0.9,1.4,0.9,1.4,0c0-2.6,0-5.2,0-7.8C37.3,486.7,36,486.7,36,487.5z"/>
			<path class="st0" d="M19.9,495.8c2.9-0.6,5.8,1.1,7,3.8c0.3,0.8,1.5,0.1,1.2-0.7c-1.4-3.3-5-5.1-8.5-4.4
				C18.7,494.7,19,496,19.9,495.8z"/>
			<path class="st0" d="M58.8,284.3c-3,9.5-6.4,18.8-10.1,28c-0.3,0.8,1,1.2,1.3,0.4c3.7-9.2,7.1-18.5,10.1-28
				C60.4,283.8,59,283.5,58.8,284.3z"/>
			<path class="st0" d="M347.6,332c-2.9,6.5-5.7,13.1-8.2,19.8c-0.3,0.8,1,1.2,1.3,0.4c2.5-6.6,5.2-13.1,8.1-19.5
				C349.2,331.9,348,331.2,347.6,332z"/>
			<path class="st0" d="M415.2,366.5c-6,13.5-11.7,27.1-17.3,40.8c-0.3,0.8,1,1.2,1.3,0.4c5.5-13.6,11.2-27.1,17.1-40.5
				C416.7,366.4,415.5,365.7,415.2,366.5z"/>
			<path class="st0" d="M408.3,246.2c-3.1,7.6-5.9,15.2-8.4,23c-0.3,0.8,1.1,1.2,1.3,0.4c2.5-7.8,5.3-15.5,8.4-23
				C410,245.8,408.6,245.4,408.3,246.2z"/>
			<path class="st0" d="M366.3,216.5c-4.6,10.6-9.4,21.1-14.3,31.6c-0.4,0.8,0.8,1.5,1.2,0.7c4.9-10.5,9.7-21,14.3-31.6
				C367.8,216.4,366.6,215.7,366.3,216.5z"/>
			<path class="st0" d="M471,75.5c-2.7,5.7-5.3,11.3-8,17c-0.4,0.8,0.8,1.5,1.2,0.7c2.7-5.7,5.3-11.3,8-17
				C472.5,75.4,471.4,74.7,471,75.5z"/>
			<path class="st0" d="M411.2,27.8c-5.2,8.7-10.5,17.5-15.7,26.2c-0.5,0.8,0.7,1.4,1.2,0.7c5.2-8.7,10.5-17.5,15.7-26.2
				C412.8,27.7,411.6,27,411.2,27.8z"/>
			<path class="st0" d="M236.2,0.4c-3,6.5-5.8,13.1-8.4,19.8c-0.3,0.8,1,1.2,1.3,0.4c2.6-6.6,5.3-13,8.3-19.4
				C237.7,0.2,236.5-0.4,236.2,0.4z"/>
			<path class="st0" d="M94.6,97.6c-4,11-7.9,22-11.9,33.1c-0.3,0.8,1,1.2,1.3,0.4c4-11,7.9-22,11.9-33.1
				C96.2,97.2,94.9,96.8,94.6,97.6z"/>
		</g>
	</g>
	<g>
		<path class="st1" d="M103.5,408.7c-2,10-5.1,19.7-9.2,29c-0.3,0.8,0.8,1.5,1.2,0.7c4.1-9.4,7.2-19.2,9.3-29.3
			C105,408.2,103.7,407.8,103.5,408.7z"/>
		<path class="st1" d="M96.5,415.6c-1.2,5.1-2.9,10-5.1,14.8c-0.4,0.8,0.8,1.5,1.2,0.7c2.3-4.9,4-9.9,5.2-15.1
			C98,415.1,96.7,414.8,96.5,415.6z"/>
		<path class="st1" d="M73.3,451.4c-7.2,2.2-10.5,9.7-7.4,16.5c0.4,0.8,1.5,0.1,1.2-0.7c-2.7-6,0.3-12.6,6.6-14.5
			C74.5,452.4,74.1,451.1,73.3,451.4z"/>
		<path class="st1" d="M63.1,451.9c-3.2,3-3.5,7.8-0.8,11.2c0.5,0.7,1.5-0.3,1-1c-2.2-2.8-1.8-6.9,0.8-9.3
			C64.7,452.2,63.7,451.3,63.1,451.9z"/>
		<path class="st1" d="M96.5,262.2c-7,3.6-3.8,15.3-0.4,20.3c0.5,0.7,1.7,0,1.2-0.7c-1.9-2.8-3.1-6-3.3-9.5
			c-0.2-3.1,0.2-7.3,3.3-8.9C97.9,263,97.2,261.8,96.5,262.2z"/>
		<path class="st1" d="M87.1,267.1c-3,4.1-3,9.6-0.1,13.7c0.5,0.7,1.7,0,1.2-0.7c-2.7-3.7-2.7-8.6,0.1-12.3
			C88.8,267.1,87.6,266.4,87.1,267.1z"/>
		<g>
			<g>
				<g>
					<path class="st2" d="M113.3,471.8c-1.8-1-3.6-2-5.5-2.8c-4-1.6-8.4-2.2-12.4-0.1c-0.5,0.3-0.9-0.1-1-0.5
						c-3-1.5-5.6-3.3-8.1-5.5c-1.5-1.3-3.1-2.8-5-3.4c-2.7-0.8-5.7,0.2-6,3.4c-0.8,8.3,9,13.6,15.7,15.4c7.1,1.9,16.1,2.9,22.7-0.9
						c1.6-0.9,2.1-1,1.7-3.1C114.8,472.5,114.7,472.6,113.3,471.8z"/>
					<path class="st1" d="M113.1,470.1c-2-1.1-4.1-2.2-6.3-2.9c-3.8-1.3-7.8-1.4-11.4,0.2c-4.2-2-7.2-5.1-10.9-7.7
						c-2.3-1.6-5.3-2.5-7.9-1.2c-6.6,3.2-0.5,12.8,3.1,15.8c6,5.2,15.1,7,22.9,7c3.2,0,17.8-1.9,14.8-8
						C116.5,471.8,114.4,470.9,113.1,470.1z M113.5,477.4c-6.6,3.9-15.6,2.8-22.7,0.9c-6.6-1.8-16.5-7.1-15.7-15.4
						c0.3-3.1,3.3-4.2,6-3.4c1.9,0.6,3.5,2,5,3.4c2.5,2.2,5.1,4.1,8.1,5.5c0.1,0.4,0.5,0.8,1,0.5c4-2.1,8.4-1.5,12.4,0.1
						c1.9,0.8,3.7,1.7,5.5,2.8c1.4,0.8,1.5,0.7,1.9,2.5C115.7,476.4,115.2,476.5,113.5,477.4z"/>
				</g>
				<g>
					<path class="st2" d="M206.8,434.3c-0.7-0.2-1.2-0.1-1.5,0.6c-0.6,0.5-1,1.5-1.4,2.2c-1.9,3.1-3.7,6.4-4.5,10
						c-0.4,1.9-0.5,3.8-1.1,5.5c0,0.1,0,0.3,0,0.5c-0.2,0.3-0.3,0.7-0.5,1c-0.2,0.4-0.4,0.8-0.6,1.1c-0.1,0.1-0.2,0.2-0.3,0.2
						c-1.1,1.5-2.5,2.8-3.7,4.2c-1.5,1.8-2.6,3.7-3,6c-0.2,1.3-0.6,3.5,1.1,4.3c0.9,0.4,2.6,0.1,3.5-0.1
						c7.7-1.7,10.7-10.2,12.6-16.8c1.1-3.8,1.8-7.7,1.8-11.6c0-1.8,0.1-4.7-0.9-6.2C208.3,434.1,207.8,433.8,206.8,434.3z"/>
					<path class="st1" d="M207.6,431.9c-1.1-0.3-1.9,0.5-2.6,1.2c-1.7,1.8-3,4.6-4.2,6.8c-1.1,2.1-2.1,4.4-2.6,6.8
						c-0.5,2.3-0.5,4.6-1.5,6.7c-2.1,3.6-5.9,6-7.3,10.1c-0.8,2.5-1.6,6.8,1.6,7.9c3.5,1.2,8-1.3,10.5-3.6c3.2-3,5-7.2,6.4-11.3
						c1.6-4.8,2.8-9.9,2.8-15C210.5,439,210.5,432.6,207.6,431.9z M207.4,453c-1.9,6.7-4.9,15.2-12.6,16.8c-0.9,0.2-2.6,0.5-3.5,0.1
						c-1.7-0.8-1.3-3-1.1-4.3c0.4-2.3,1.5-4.3,3-6c1.3-1.5,2.6-2.7,3.7-4.2c0.1,0,0.2-0.1,0.3-0.2c0.2-0.4,0.5-0.8,0.6-1.1
						c0.2-0.3,0.4-0.7,0.5-1c0.1-0.2,0.1-0.3,0-0.5c0.5-1.8,0.6-3.7,1.1-5.5c0.8-3.6,2.6-6.9,4.5-10c0.4-0.7,0.8-1.7,1.4-2.2
						c0.2-0.6,0.7-0.8,1.5-0.6c1-0.5,1.5-0.2,1.5,0.9c1,1.5,0.9,4.4,0.9,6.2C209.3,445.3,208.5,449.2,207.4,453z"/>
				</g>
			</g>
			<g>
				<path class="st1" d="M180.7,262.5c-0.8-0.6-2-0.7-2.8-1.4c-0.9-0.7-1.3-1.6-1.4-2.8c-0.1-2,1.2-3.5,1.8-5.3
					c1.2-3.9-2.3-6.6-5.7-7.5c-2.9-0.8-8.1,0.2-10.1-2.8c-2.2-3.4,1.9-7.9,2.9-10.9c1.7-5.2,1.9-11.6,0.9-17
					c-1.1-6.3-8.2-10.4-14.4-8.6c-0.2,0-0.3,0-0.4,0c-0.2,0-0.4-0.1-0.5-0.3c-1.8-2.7-5.6-3.8-8.6-4.4c-3.4-0.7-6.9,0.1-10,1.3
					c-6,2.3-11.7,5.7-14.6,11.7c-2.8,5.9-3.4,11.9-2.1,18.2c0.7,3.2,1.2,7.2-2,9.2c-2.4,1.5-6.5,1.9-5.5,6c0.7,3,3.3,3.4,5.6,4.6
					c2.2,1.2,3.9,3.8,1.8,5.9c-1.6,1.6-4.1,2.6-6,3.8c-2.2,1.4-4.4,2.8-6.1,4.8c-2.3,2.7-3.9,6.8-2.2,10.2c1.4,2.8,4.3,4.3,7.4,4.4
					c2.8,0,6.4-1.4,5.8,2.4c-0.6,3.7,1.4,6.5,5,7.7c2.7,0.8,5.9,0.1,8.6-0.2c11.4-1.1,23-2.6,33.9-6.4c7-2.5,23.9-8.5,21.2-18.8
					C182.8,264.7,181.9,263.4,180.7,262.5z"/>
				<path class="st1" d="M184.1,264.6c-0.8-1.8-2-2.9-3.7-3.9c-4.6-3-1.1-4.7-0.6-8.4c0.7-5.2-4.7-8-9-8.6c-1.7-0.2-3.5-0.1-5.1-0.6
					c-1.5-0.4-2.4-2.6-2.2-4.1c0.1-1,1.1-2.1,1.6-3c1.5-2.8,2.4-5.8,2.8-9c0.7-5.3,1.2-13.2-2.2-17.8c-2.9-3.8-9.2-5.7-13.7-4.5
					c-2.5-3.3-7.5-4.7-11.5-4.9c-5.5-0.3-11.9,2.4-16.4,5.4c-8.8,5.9-11.9,17.5-9.8,27.4c0.3,1.2,0.4,2.4,0.5,3.6
					c0.1,2.8-1,4.2-3.5,5.3c-1.7,0.7-3.4,1.4-4.2,3.2c-1.4,3.2,0.8,6.5,3.7,7.9c2.1,1,6.3,2.1,2.8,5.4c-1,1-2.7,1.7-3.9,2.4
					c-2.3,1.4-4.7,2.9-6.6,4.8c-2.9,3-5,7.6-3.4,11.8c1.9,4.9,6.5,5.9,11.2,5.7c-0.1,0,2.2-0.2,2.3,0c0.3,0.4-0.2,1.1-0.2,1.5
					c-0.1,1-0.2,1.9,0,2.9c0.4,1.9,1.8,3.3,3.3,4.4c4.6,3.3,11.3,1.4,16.4,0.8c6.5-0.7,13-1.6,19.4-3c6.3-1.4,12.4-3.4,18.2-6.2
					c4.2-2,8.8-4.3,11.8-8C184.6,272.2,185.6,268.2,184.1,264.6z M162,285.1c-10.9,3.8-22.4,5.2-33.9,6.4c-2.7,0.3-6,1-8.6,0.2
					c-3.6-1.1-5.6-3.9-5-7.7c0.6-3.9-3-2.4-5.8-2.4c-3.1,0-6-1.5-7.4-4.4c-1.7-3.4-0.1-7.5,2.2-10.2c1.7-2,3.9-3.4,6.1-4.8
					c1.9-1.2,4.4-2.2,6-3.8c2.1-2.1,0.4-4.8-1.8-5.9c-2.3-1.2-4.9-1.6-5.6-4.6c-0.9-4,3.1-4.4,5.5-6c3.2-2,2.6-6,2-9.2
					c-1.3-6.4-0.7-12.3,2.1-18.2c2.9-6,8.6-9.4,14.6-11.7c3.2-1.2,6.6-2,10-1.3c3,0.6,6.8,1.8,8.6,4.4c0.1,0.2,0.3,0.3,0.5,0.3
					c0.1,0,0.3,0.1,0.4,0c6.2-1.8,13.3,2.2,14.4,8.6c0.9,5.4,0.8,11.8-0.9,17c-1,3-5.1,7.5-2.9,10.9c1.9,3,7.2,2,10.1,2.8
					c3.3,0.9,6.9,3.6,5.7,7.5c-0.6,1.8-1.9,3.3-1.8,5.3c0,1.2,0.5,2.1,1.4,2.8c0.8,0.6,2,0.8,2.8,1.4c1.3,0.9,2.2,2.3,2.6,3.8
					C185.9,276.6,169.1,282.6,162,285.1z"/>
			</g>
			<g>
				<g>
					<path class="st0" d="M122.9,280.9c-2.5,7-2.4,14.7-2.4,22c0,2.6,0,5.1,0,7.7c6.8,0.7,13.5,1.1,20.2-0.5c0.1,0,0.1,0,0.2,0
						c0.3-4.7,0.5-9.5,0.6-14.2c0.2-6.9,1.5-15.5-1.4-22C135.9,265.1,124.8,275.4,122.9,280.9z"/>
					<path class="st2" d="M120.4,312c0,11.8-0.1,23.6-3,35.1c-1.6,6.2-4.1,11.6-8.9,15.9c-0.7,0.7-1.5,1.3-2.3,1.9
						c-1,0.8-1.4,0.6-0.8,1.7c0.9,1.8,4.2,0.2,5.6-0.5c2.1-0.9,4-2,6.3-1.1c0.8,0.3,0.4,1.7-0.4,1.3c-2.2-0.9-4.4,0.4-6.7,1.4
						c0,0.1,0,0.2,0,0.3c-0.5,1.6-1,3.2-1.6,4.8c-0.3,0.8-1.9,4.8,0.2,3.8c1.2-0.6,2.3-2.8,3.1-3.9c0.7-1.2,1.4-2.4,1.9-3.6
						c0.4-0.8,1.5-0.1,1.2,0.7c0,0.1-0.1,0.1-0.1,0.2c0,0,0,0,0,0.1c-0.2,1.7-0.3,3.3-0.2,5c0,0.7,0.1,1.4,0.1,2.1
						c0,0.5,0.1,1,0.2,1.6c0.5,0,1,0,1.5-0.1c1-0.6,1.5-3.8,1.8-4.9c0.4-1.5,0.5-3.1,0.5-4.7c0-0.1,0-0.3-0.1-0.4
						c0-0.3,0.1-0.5,0.2-0.6c0.4-0.4,1.2-0.3,1.2,0.4c0,0.2,0,0.4,0,0.6c0.2,1.5,0.5,3.1,0.9,4.5c0.3,1.1,0.8,3.4,1.8,4.2
						c2.1,1.6,1.7-2.9,1.7-3.9c0-1.9-0.2-3.7-0.4-5.5c-0.1-0.9,1-1.2,1.3-0.4c0.6,1.6,1.3,3.1,2.2,4.6c0.3,0.6,0.7,1.1,1,1.6
						c0.5,0.8,0.5,1.5,1,0.5c0.6-1.1-0.3-3.4-0.6-4.6c-0.3-1.3-0.5-2.6-0.8-4c0-0.2,0-0.4,0.1-0.6c-0.1-0.2-0.1-0.4,0-0.6
						c6.9-15.1,10.2-31.5,11.7-47.9c0.2-1.8,0.3-3.7,0.4-5.5C134,313.1,127.2,312.7,120.4,312z"/>
				</g>
				<path class="st1" d="M141.2,273.3c-0.9-1.9-2.2-3.8-4.4-4.2c-2.9-0.5-6.6,1.6-8.9,3.2c-5.5,3.9-7.3,9.9-8.2,16.3
					c-2.3,17.6,0.8,35.5-2.5,53.1c-0.9,4.9-2.1,10-4.6,14.4c-1.1,2-2.6,3.7-4.3,5.3c-1.3,1.2-3.8,2.4-4.6,4
					c-0.7,1.3-0.3,2.7,1.2,3.2c1.3,0.4,2.5,0.2,3.8-0.2c-1,2.6-4.1,10.1-1.1,10.5c1.6,0.2,3-2,3.8-3.1c0.7-0.9,1.3-1.8,1.9-2.7
					c-0.2,3.4-0.1,8,2.4,7.9c1.8-0.1,2.5-2.7,3-4.1c0.4-1.1,0.7-2.2,0.9-3.3c0.3,1,0.6,1.9,1,2.8c0.5,1.3,1.8,4.4,3.6,4.2
					c1.3-0.1,1.4-1.5,1.6-2.5c0.2-1.9,0.2-3.9,0.1-5.9c0.6,1.1,1.2,2.1,1.9,3.1c0.6,0.9,1.5,2.7,2.8,2.2c1-0.4,1-1.8,0.9-2.7
					c-0.3-3-1.2-6.1-1.8-9c0,0,0-0.1,0-0.1c0,0,0,0,0,0c6.6-14.5,10-30.1,11.6-45.9c0.8-8.3,1.2-16.6,1.4-24.9
					C143,288,144.2,279.7,141.2,273.3z M140.3,317.1c-1.5,16.5-4.8,32.8-11.7,47.9c-0.1,0.2-0.1,0.5,0,0.6c-0.1,0.1-0.2,0.3-0.1,0.6
					c0.3,1.3,0.5,2.6,0.8,4c0.2,1.2,1.1,3.5,0.6,4.6c-0.5,1-0.5,0.3-1-0.5c-0.4-0.5-0.7-1.1-1-1.6c-0.9-1.5-1.6-3-2.2-4.6
					c-0.3-0.8-1.4-0.5-1.3,0.4c0.3,1.8,0.4,3.7,0.4,5.5c0,1,0.3,5.5-1.7,3.9c-1-0.8-1.5-3.1-1.8-4.2c-0.4-1.5-0.7-3-0.9-4.5
					c0-0.2,0-0.4,0-0.6c0-0.7-0.8-0.8-1.2-0.4c-0.2,0.1-0.3,0.3-0.2,0.6c0,0.1,0,0.3,0.1,0.4c0,1.6-0.2,3.1-0.5,4.7
					c-0.3,1.1-0.8,4.3-1.8,4.9c-0.5,0-1,0-1.5,0.1c-0.1-0.5-0.2-1-0.2-1.6c-0.1-0.7-0.1-1.4-0.1-2.1c0-1.7,0-3.3,0.2-5
					c0,0,0,0,0-0.1c0-0.1,0.1-0.1,0.1-0.2c0.4-0.8-0.8-1.5-1.2-0.7c-0.6,1.3-1.2,2.5-1.9,3.6c-0.7,1.1-1.9,3.3-3.1,3.9
					c-2.1,1-0.5-3-0.2-3.8c0.5-1.6,1-3.2,1.6-4.8c0-0.1,0-0.2,0-0.3c2.3-1,4.5-2.3,6.7-1.4c0.8,0.3,1.2-1,0.4-1.3
					c-2.3-1-4.2,0.1-6.3,1.1c-1.4,0.6-4.7,2.3-5.6,0.5c-0.6-1.1-0.1-0.9,0.8-1.7c0.8-0.6,1.5-1.2,2.3-1.9c4.8-4.3,7.3-9.7,8.9-15.9
					c3-11.5,3.1-23.3,3-35.1c6.8,0.7,13.6,1.1,20.3-0.4C140.6,313.4,140.5,315.2,140.3,317.1z M141.5,296c-0.1,4.7-0.3,9.5-0.6,14.2
					c0,0-0.1,0-0.2,0c-6.7,1.5-13.5,1.1-20.2,0.5c0-2.6,0-5.1,0-7.7c0-7.3-0.1-15,2.4-22c2-5.5,13.1-15.8,17.2-7
					C143,280.4,141.6,289.1,141.5,296z"/>
			</g>
			<g>
				<path class="st0" d="M131.2,282.4c-0.2,19,1.2,38.3-2.4,57.1c-1,5.1-2.9,10.5,2.3,14c3.2,2.1,7,3.5,10.7,4.4
					c7.5,1.9,15.4,1.8,23.1,0.9c7.2-0.9,16.6-2.1,18.9-10.3c1.3-4.5,1.1-9.8,1.1-14.5c0.1-4.1,0-8.3-0.1-12.4
					c-0.3-8.7-0.8-17.4-1.5-26.1c-0.6-8.4-1.7-16.9-5.3-24.7c-1.9-4.1-4.4-7.9-9.1-9c-3.7-0.9-7.6,0-11.2,1.1
					c-8.5,2.5-16.9,5.7-25.4,8.6c-0.1,0.1-0.3,0-0.4,0c0,1.8,0.1,3.7-0.3,5.5c-0.3,1.6-0.8,3.2-1.3,4.8
					C130.8,281.7,131.2,281.9,131.2,282.4z"/>
				<path class="st1" d="M185,299.8c-0.6-8.9-1.3-18.1-4.4-26.5c-1.4-3.8-3.3-8.1-6.7-10.6c-3-2.3-6.8-2.8-10.5-2.4
					c-5,0.6-9.7,2.5-14.4,4.1c-5.6,1.9-11.3,3.8-16.9,5.7c-0.8,0.3-0.5,1.6,0.4,1.3c8.4-2.9,16.8-6,25.4-8.6c3.6-1.1,7.5-2,11.2-1.1
					c4.6,1.1,7.2,5,9.1,9c3.5,7.7,4.6,16.3,5.3,24.7c0.7,8.7,1.2,17.4,1.5,26.1c0.1,4.1,0.2,8.3,0.1,12.4c-0.1,4.6,0.1,10-1.1,14.5
					c-2.3,8.2-11.7,9.5-18.9,10.3c-7.7,0.9-15.6,1-23.1-0.9c-3.7-0.9-7.5-2.3-10.7-4.4c-5.1-3.5-3.2-8.9-2.3-14
					c3.6-18.8,2.2-38.1,2.4-57.1c0-0.9-1.4-0.9-1.4,0c-0.1,10.1,0.2,20.2,0,30.4c-0.2,10.4-1.4,20.4-3.3,30.6
					c-0.6,3-0.8,6.3,1.1,8.9c2.1,2.7,5.7,4.3,8.8,5.4c8,3.1,16.7,3.5,25.2,2.7c6.6-0.6,14.9-1.2,20-5.9c2.6-2.4,3.6-5.6,3.9-9
					c0.6-5,0.6-10.1,0.7-15.1C186.3,320.2,185.6,310,185,299.8z"/>
			</g>
			<g>
				<g>
					<path class="st2" d="M139,210.9c-5.5,1.2-11.1,3.8-14.8,8.2c-3.8,4.6-4.8,10.7-1.6,15.9c1.7,2.7,3.7,5.4,5.8,7.9
						c1.6-1.2,3.9-0.6,6,1c0.7,0.5-0.3,1.5-1,1c-4.3-3.3-6.3,2-4.9,5.3c1.2,2.8,4.8,3.7,7,1.4c0.1-0.2,0.5-0.3,0.7-0.2
						c7.5,2.9,10.3,12.1,9.6,19.6c2.4-1.2,4.7-2.4,6.9-3.8c1.2-0.7,3.8-1.8,4.2-3.3c0.2-0.7-0.5-2.7-0.6-3.4
						c-0.3-1.9-0.6-3.9,0.4-5.6c1.1-1.8,3.3-2.6,4.7-4.2c4.5-5.2,2.6-12.9,0.9-18.8c-1.6-5.6-3.8-11.4-7.9-15.6
						C150.3,212,144.8,209.6,139,210.9z"/>
					<path class="st1" d="M161.1,224.1c-3.4-7.8-10.3-15.4-19.5-15c-8.3,0.4-18.3,6-21.3,14c-3.1,8.1,2.3,14.8,7.3,20.7
						c-0.2,0.4-0.4,0.8-0.6,1.4c-1,3.3,0.3,7.6,3.9,8.7c1.6,0.5,3,0.2,4.5-0.4c1-0.4,1.1-0.7,2.3-0.1c1.2,0.6,2.2,1.8,3,2.8
						c3.3,4.3,4.5,10.2,3.6,15.5c-0.1,0.6,0.4,1,1,0.8c2.8-1.3,5.5-2.8,8.1-4.3c1.4-0.8,4.2-1.8,4.8-3.4c0.7-1.6-0.6-4.6-0.8-6.2
						c-0.4-3.9,2.7-4.7,4.8-7.2C168.6,244.2,164.4,231.7,161.1,224.1z M161.3,250.5c-1.3,1.6-3.6,2.4-4.7,4.2
						c-1,1.7-0.7,3.8-0.4,5.6c0.1,0.8,0.8,2.7,0.6,3.4c-0.4,1.5-3,2.6-4.2,3.3c-2.3,1.4-4.6,2.6-6.9,3.8c0.7-7.5-2.1-16.6-9.6-19.6
						c-0.2-0.1-0.5,0-0.7,0.2c-2.1,2.4-5.7,1.5-7-1.4c-1.5-3.3,0.6-8.7,4.9-5.3c0.7,0.5,1.7-0.4,1-1c-2-1.6-4.4-2.2-6-1
						c-2.1-2.5-4-5.2-5.8-7.9c-3.3-5.1-2.2-11.3,1.6-15.9c3.7-4.3,9.3-6.9,14.8-8.2c5.8-1.3,11.2,1.1,15.3,5.2
						c4.2,4.2,6.4,9.9,7.9,15.6C163.9,237.6,165.8,245.3,161.3,250.5z"/>
				</g>
				<g>
					<path class="st1" d="M120.6,217c-5.9,9.5-1.4,20.2,6.2,27.1c1.4-2.2,4.1-2,6.4-1c0.2-2.4,1.5-4.1,3.5-5.5
						c2.1-1.5,4.2-2.6,4.2-5.5c0-1.9-0.7-3.7-0.7-5.6c0-3.2,1.6-5.8,3.8-7.9c2.6-2.5,9-6.9,5.3-10.9
						C138.9,207.5,126.8,207,120.6,217z"/>
					<path class="st1" d="M150.2,206.7c-0.1-0.1-0.2-0.2-0.3-0.3c0,0,0,0,0,0c-0.3-0.3-0.6-0.2-0.9-0.1
						c-11.2-0.3-23.9-0.4-30.1,10.7c-5.7,10.2-0.7,21.5,7.5,28.6c0.4,0.4,1,0.2,1.1-0.3c1-2.6,4.1-1.5,5.9-0.6c0.4,0.2,1-0.1,1-0.6
						c-0.2-5.4,5.3-5.3,7.2-9.3c1.9-4-1.4-8.3,1-12.4C145.1,218.3,155.8,212.6,150.2,206.7z M144,218.7c-2.2,2.1-3.9,4.7-3.8,7.9
						c0,1.9,0.7,3.7,0.7,5.6c-0.1,2.9-2.2,4-4.2,5.5c-2,1.4-3.3,3.2-3.5,5.5c-2.3-1-5-1.2-6.4,1c-7.6-6.9-12.1-17.6-6.2-27.1
						c6.3-10.1,18.3-9.5,28.7-9.3C153,211.8,146.6,216.1,144,218.7z"/>
				</g>
				<g>
					<path class="st1" d="M147.3,233.8C147.2,233.8,147.2,233.8,147.3,233.8c-0.2,0.1-0.3,0.1-0.4,0.1c-0.5,0.2-0.7,0.9-0.5,1.4
						c0.2,0.6,0.9,1,1.5,0.8c0.6-0.2,1.1-0.9,0.9-1.5C148.6,233.9,147.9,233.4,147.3,233.8z M147.4,234.7
						C147.4,234.7,147.4,234.8,147.4,234.7L147.4,234.7C147.4,234.7,147.4,234.7,147.4,234.7z"/>
					<path class="st1" d="M159.9,231.4c-0.4-0.2-0.8,0-1,0.4c-0.3,0.2-0.5,0.5-0.5,0.9c0,0.6,0.4,1,1,1.1c0.6,0,1-0.3,1.2-0.9
						C160.8,232.3,160.4,231.7,159.9,231.4z M159.3,232.6C159.3,232.6,159.3,232.6,159.3,232.6C159.3,232.6,159.3,232.6,159.3,232.6
						z M159.8,232.9C159.8,232.9,159.7,232.9,159.8,232.9L159.8,232.9z"/>
					<path class="st1" d="M158,235.5c-0.7-0.8-1.3-1.7-2-2.5c-0.6-0.7-1.5,0.3-1,1c0.6,0.8,1.2,1.5,1.9,2.3c0.4,0.5,0.7,0.7,0.7,1.4
						c0,0.8-0.4,0.9-1,1.2c-0.8,0.4-0.1,1.6,0.7,1.2c1.1-0.5,2.4-1.5,1.9-2.9C158.9,236.5,158.4,236,158,235.5z"/>
					<path class="st1" d="M155.9,242c-1.4,0.4-4.3-0.1-5.2-1.4c-0.5-0.7-1.7,0-1.2,0.7c1.3,1.9,4.7,2.7,6.8,2.1
						C157.2,243.1,156.8,241.7,155.9,242z"/>
				</g>
			</g>
			<g>
				<path class="st2" d="M197.2,429c-2.2-2.2-3.5-4.4-4.6-7.3c-2.7-7-3.6-14.6-4.5-22c-1.1-8.6-1.9-17.2-2.3-25.8
					c-0.8-17.3-1.1-34.6-1.6-52c-1.6,0.7-4.2,0.9-5.1,1c-4.8,0.8-9.7,1.2-14.5,1.5c-11.5,0.9-22.5,0.7-33.9-1.1
					c0,3.4-0.8,6.9-1.3,10.2c-0.8,5.5-1.8,11.1-2.8,16.6c-3.7,19.5-8,39.1-12.9,58.3c-5.1,19.8-11.7,39.4-17.9,59
					c4.1,1.5,9.1,2.9,13.5,2.5c2.4-0.2,2.5-2,3.5-4c1-2.1,2-4.2,3-6.2c4-7.9,8.2-15.7,12.2-23.6c8.1-16.2,15.9-32.7,23.2-49.3
					c-1.2-3.5-2.9-6.7-5.5-9.5c-0.6-0.6,0.4-1.6,1-1c5.4,5.7,6.9,13.5,8.6,20.9c2,9.1,4.1,18.6,8,27.2c5.5,12.2,15.5,22.3,28.3,26.6
					c2.3,0.7,5.7,2.4,7.5-0.1c0.8-1,1.2-2.6,1.7-3.8c1.2-2.8,2.5-6.2,2.3-9.3C203,434.5,199.5,431.3,197.2,429z"/>
				<path class="st1" d="M202.2,432.6c-2.2-2.5-5-4.9-6.7-7.7c-2.4-3.9-3.4-9.1-4.3-13.5c-1.7-8.9-2.7-18-3.4-27
					c-1.6-21.3-1.7-42.7-2.3-64c0-0.7-1.2-1-1.3-0.2c-0.2,1.1-7.6,1.7-8.5,1.8c-4.5,0.6-9,0.9-13.5,1.3c-10.8,0.8-21.2,0.4-32-1.3
					c-0.4-0.1-0.7,0.2-0.8,0.6c-0.1,0.1-0.1,0.2-0.1,0.4c0.1,3.4-0.7,7-1.2,10.3c-0.7,4.8-1.5,9.6-2.4,14.3
					c-1.8,9.6-3.8,19.2-6,28.8c-2.1,9.4-4.2,18.9-6.5,28.3c-2.4,9.9-5.5,19.6-8.5,29.3c-3.4,11.2-6.9,22.5-10.5,33.7
					c-0.1,0.4,0.1,0.7,0.5,0.8c5.4,2.1,11,3,16.7,2.7c0.3,0,0.5-0.2,0.7-0.5c2.9-7.5,6.9-14.4,10.6-21.5c3.5-6.7,6.9-13.4,10.2-20.2
					c6.5-13.3,12.8-26.7,18.7-40.3c1.1,3.8,1.9,7.7,2.7,11.5c1.9,8.3,3.9,16.7,7.4,24.5c5.4,12.2,15.1,22.3,27.7,27
					c2.3,0.9,6.2,2.7,8.6,2c2.1-0.6,2.9-3.7,3.6-5.4C204,443.2,206.3,437.2,202.2,432.6z M200.8,447.2c-0.5,1.1-0.9,2.8-1.7,3.8
					c-1.8,2.4-5.3,0.8-7.5,0.1c-12.8-4.2-22.9-14.4-28.3-26.6c-3.9-8.6-5.9-18-8-27.2c-1.7-7.4-3.2-15.2-8.6-20.9
					c-0.6-0.6-1.6,0.3-1,1c2.6,2.8,4.2,6,5.5,9.5c-7.3,16.6-15,33.1-23.2,49.3c-4,7.9-8.1,15.7-12.2,23.6c-1.1,2.1-2.1,4.1-3,6.2
					c-0.9,2-1.1,3.7-3.5,4c-4.4,0.5-9.3-0.9-13.5-2.5c6.2-19.6,12.8-39.1,17.9-59c5-19.2,9.3-38.8,12.9-58.3c1-5.5,2-11,2.8-16.6
					c0.5-3.3,1.3-6.8,1.3-10.2c11.4,1.8,22.4,2,33.9,1.1c4.9-0.4,9.7-0.8,14.5-1.5c0.9-0.1,3.5-0.3,5.1-1c0.5,17.3,0.7,34.7,1.6,52
					c0.4,8.7,1.2,17.2,2.3,25.8c0.9,7.4,1.8,15,4.5,22c1.1,2.9,2.4,5.1,4.6,7.3c2.3,2.3,5.8,5.5,5.9,8.8
					C203.3,441,202,444.3,200.8,447.2z"/>
			</g>
			<g>
				<g>
					<path class="st2" d="M192.5,350.2c2.9,1.9,6,3.5,9.1,5.1c3.3,1.6,6.7,3.6,10.3,4.3c-0.7-2-1.6-3.7-2.9-5.4
						c-0.5-0.7,0.5-1.3,1.1-0.8c1.4,1.2,2.9,2,4.6,2.4c-0.9-1.4-1.9-2.8-2.9-4.2c-0.4-0.6,0.4-1.2,0.9-0.9c1.3,0.6,2.4,0.9,3.6,1.1
						c-0.7-1.2-1.6-2.3-2.6-3.4c-0.5-0.5,0-1.2,0.7-1.1c0.8,0.1,3.3,1.5,3.4-0.2c0-0.5-1.9-1.8-2.2-2.1c-1.6-1.3-3.2-2.5-4.8-3.7
						c-3.5-2.8-6.8-5.7-9.7-9c-5.8-6.5-10.2-14.6-12.9-22.9c-0.6-1.9-1.2-3.9-1.7-5.9c-5.5,4.3-11.8,6.9-18.7,7.9
						c2.6,7.9,5.9,15.5,9.9,22.9C181.3,340.9,186.1,346.1,192.5,350.2z"/>
					<path class="st0" d="M163,289.1c0.8,7.1,2.3,14.1,4.4,20.9c6.8-0.8,13.1-3.5,18.5-7.8c0.1-0.1,0.2-0.1,0.3-0.1
						c-1.7-7.2-2.9-14.6-4.9-21.7c-2.6-9.3-7.7-21.9-19.7-18.6c-0.1,0-0.1,0-0.2,0c0.1,6.8,0.7,19.9,0.8,26.7
						C162.6,288.4,163,288.6,163,289.1z"/>
				</g>
				<path class="st1" d="M215.9,343.4c-7-5.5-13.8-11-18.7-18.6c-5.3-8.4-8.4-17.4-10.7-27c-2.2-9.3-3.7-18.4-7.5-27.3
					c-3.2-7.5-9.4-12.5-17.8-10.1c-0.8,0.2-0.5,1.6,0.4,1.3c12-3.3,17.1,9.3,19.7,18.6c2,7.1,3.1,14.5,4.9,21.7
					c-0.1,0-0.2,0.1-0.3,0.1c-5.4,4.3-11.7,7-18.5,7.8c-2.1-6.8-3.6-13.7-4.4-20.9c-0.1-0.9-1.5-0.9-1.4,0
					c1.8,16.7,7.5,33,15.9,47.6c3.6,6.3,8.6,11.1,14.7,15c3.4,2.1,6.9,3.9,10.5,5.7c3.3,1.6,6.5,3.4,10.2,3.8c0.4,0,0.8-0.5,0.7-0.9
					c-0.4-1.4-1-2.7-1.6-4c1.3,0.6,2.7,1,4.2,1.2c0.5,0.1,0.8-0.6,0.6-1c-0.8-1.3-1.7-2.5-2.5-3.8c1.1,0.3,2.2,0.5,3.4,0.6
					c0.6,0,0.8-0.6,0.6-1c-0.6-1.1-1.2-2.1-1.9-3.1c1.3,0.4,2.8,0.6,3.5-0.5C220.9,346.8,216.9,344.2,215.9,343.4z M214.5,347.2
					c-0.6-0.1-1.2,0.6-0.7,1.1c1.1,1.1,1.9,2.2,2.6,3.4c-1.3-0.2-2.3-0.5-3.6-1.1c-0.5-0.2-1.4,0.3-0.9,0.9c1,1.4,1.9,2.8,2.9,4.2
					c-1.7-0.4-3.2-1.2-4.6-2.4c-0.5-0.5-1.6,0.2-1.1,0.8c1.3,1.7,2.2,3.4,2.9,5.4c-3.7-0.7-7-2.7-10.3-4.3c-3.1-1.6-6.2-3.2-9.1-5.1
					c-6.4-4.1-11.2-9.3-14.8-16c-3.9-7.4-7.3-15-9.9-22.9c6.9-0.9,13.2-3.6,18.7-7.9c0.5,2,1,3.9,1.7,5.9
					c2.7,8.3,7.1,16.4,12.9,22.9c2.9,3.3,6.3,6.3,9.7,9c1.6,1.3,3.3,2.4,4.8,3.7c0.3,0.2,2.2,1.6,2.2,2.1
					C217.7,348.8,215.3,347.4,214.5,347.2z"/>
			</g>
		</g>
	</g>
	<g>
		<path class="st1" d="M351.5,429.8c2.5,6.9,0.5,14.5-5,19.3c-0.7,0.6,0.3,1.5,1,1c5.9-5.1,8-13.3,5.4-20.7
			C352.5,428.6,351.2,429,351.5,429.8z"/>
		<path class="st1" d="M357.3,441.5c0.2,3-1.3,5.8-3.9,7.2c-0.8,0.4-0.1,1.6,0.7,1.2c3-1.7,4.8-4.9,4.6-8.4
			C358.6,440.6,357.2,440.6,357.3,441.5z"/>
		<path class="st1" d="M263.9,431.6c3.1,9.3,9.8,16.9,18.6,21.3c0.8,0.4,1.5-0.8,0.7-1.2c-8.5-4.2-14.9-11.5-17.9-20.5
			C265,430.4,263.6,430.8,263.9,431.6z"/>
		<path class="st1" d="M264.5,446.8c2.8,4.1,6.6,7.2,11.2,9.1c0.8,0.3,1.2-1,0.4-1.3c-4.3-1.7-7.8-4.7-10.4-8.4
			C265.2,445.4,264,446.1,264.5,446.8z"/>
		<path class="st1" d="M309.4,289.5c2.5,11.7-0.6,24.1-8.4,33.2c-0.6,0.7,0.4,1.6,1,1c8.1-9.6,11.3-22.3,8.7-34.6
			C310.6,288.3,309.3,288.7,309.4,289.5z"/>
		<path class="st1" d="M313.6,306.5c-0.1,6.1-2.4,11.8-6.5,16.3c-0.6,0.6,0.4,1.6,1,1c4.4-4.8,6.8-10.8,6.9-17.2
			C315,305.6,313.6,305.6,313.6,306.5z"/>
		<g>
			<g>
				<g>
					<path class="st2" d="M205.2,359.1c11.4-15.3,20.6-32,27.1-50c1.6-4.4,3.1-8.9,4.4-13.5c-9.7,0.7-19.3-0.4-28.6-3.1
						c-1,6-2.2,12.1-3.8,18c-1.8,6.6-4.3,13.2-7.9,19.1c-4,6.6-10.2,12.1-10.1,20.3c0,0.1,0.1,0.2,0.1,0.3c0,1.1,0.9,3,1.8,1.6
						c0.4-0.6,1.4-0.2,1.2,0.5c0.7,3.3,2.1,4,4.1,2.2c0.3-0.3,1.1-0.2,1.1,0.3c0.1,0.6,0.2,1.2,0.4,1.8c2,1.6,3.6,1.7,4.6,0.3
						c0.3-0.3,1.1-0.2,1.1,0.3c0.2,1.3,0.3,5.2,3.2,2.9c0.3-0.2,0.7-0.2,0.9,0c0-0.1,0.1-0.1,0.1-0.2l0.1-0.1
						C205.1,359.7,205,359.4,205.2,359.1z"/>
					<path class="st2" d="M237.1,294.3c3.4-12,5.5-24.6,4-36.7c-0.5-4.1-0.3-9.3-2.7-12.9c-2.7-4.1-7.3-3.9-11.4-2.3
						c-3.8,1.5-7.3,4.1-9.5,7.6c-2.1,3.4-2.7,7.5-3.7,11.3c-2.4,9.8-3.8,19.9-5.5,29.9c0,0,0.1,0,0.1,0c9.2,2.7,18.8,3.8,28.4,3.1
						C236.9,294.3,237,294.3,237.1,294.3z"/>
				</g>
				<path class="st1" d="M242.2,255.9c-0.8-6-0.9-14.7-8.6-15.8c-6-0.9-12.9,3.3-16.4,7.9c-2.5,3.2-3.3,6.9-4.2,10.8
					c-1.2,4.8-2.4,9.7-3.3,14.5c-1.7,8.9-2.7,18-4.4,26.9c-1.9,9.5-4.5,18.9-9.2,27.4c-4.3,7.6-11.6,13.7-11.1,23.2c0,0,0,0.1,0,0.1
					c0,1.4,0.1,3.6,1.5,4c0.7,0.2,1.3-0.1,1.7-0.6c0.7,2.2,3.3,3.3,5.4,2c1,3.3,3.4,4.7,6.1,2.5c0.7,3,2.1,4.8,5.3,2.3
					c0.7-0.5-0.3-1.5-1-1c-2.9,2.3-3.1-1.6-3.2-2.9c-0.1-0.5-0.8-0.6-1.1-0.3c-1,1.4-2.6,1.4-4.6-0.3c-0.2-0.6-0.3-1.2-0.4-1.8
					c-0.1-0.5-0.8-0.6-1.1-0.3c-2.1,1.9-3.4,1.1-4.1-2.2c0.2-0.8-0.8-1.2-1.2-0.5c-1,1.5-1.9-0.5-1.8-1.6c0-0.1,0-0.2-0.1-0.3
					c-0.1-8.2,6.1-13.7,10.1-20.3c3.6-5.9,6-12.5,7.9-19.1c1.6-5.9,2.8-11.9,3.8-18c9.3,2.8,18.9,3.8,28.6,3.1
					c-1.3,4.6-2.9,9.2-4.4,13.5c-6.5,17.9-15.6,34.7-27.1,50c-0.5,0.7,0.7,1.4,1.2,0.7c10.9-14.6,19.8-30.6,26.2-47.7
					c3.4-9,6.1-18.3,8-27.8c0.9-4.4,1.6-8.9,2.1-13.4C243.4,265.8,242.9,261,242.2,255.9z M237.1,294.3c-0.1,0-0.2,0-0.3,0
					c-9.6,0.7-19.1-0.3-28.4-3.1c0,0-0.1,0-0.1,0c1.7-10,3-20.1,5.5-29.9c0.9-3.8,1.6-7.9,3.7-11.3c2.2-3.5,5.7-6.1,9.5-7.6
					c4.1-1.6,8.7-1.8,11.4,2.3c2.3,3.6,2.1,8.8,2.7,12.9C242.6,269.7,240.5,282.3,237.1,294.3z"/>
			</g>
			<g>
				<g>
					<path class="st2" d="M236.6,478.1c-9-0.7-18.1-0.1-26.9,1.9c-0.2,0.2-0.4,0.3-0.6,0.2c-0.1,0-0.2,0-0.3,0c-0.1,0-0.2,0-0.3,0
						c-2.7-0.3-5.4-0.1-8.1,0.3c-1,0.2-2,0.3-3,0.6c-2.3,0.7-2.5,3.1-0.5,4.2c4.2,2.4,9.6,2.6,14.3,3.2c8.9,1.1,17.8,2.1,26.8,2
						c2.3,0,4.7-0.1,7-0.3c1.8-0.2,3.8-0.4,4.1-3c0.1-0.9-0.3-2.3-0.5-3.2C247,478.5,241.4,478.5,236.6,478.1z"/>
					<path class="st1" d="M242.8,477.5c-11.3-2-23.2-1.2-34.3,1.4c-4.2-0.3-18.4-0.1-14.5,5.9c2,3.1,7.6,3.8,10.8,4.3
						c5,0.8,10,1.3,15,1.9c5.4,0.6,10.9,1,16.3,1c3.6,0,9.1,0.7,12.3-1.2c2.8-1.6,1.9-5.2,1.1-7.8
						C248.5,479.5,246.1,478.1,242.8,477.5z M249,487.2c-0.3,2.6-2.4,2.8-4.1,3c-2.3,0.2-4.7,0.3-7,0.3c-9,0.1-17.9-0.9-26.8-2
						c-4.7-0.6-10.1-0.8-14.3-3.2c-1.9-1.1-1.7-3.5,0.5-4.2c1-0.3,2-0.4,3-0.6c2.7-0.4,5.4-0.6,8.1-0.3c0.1,0,0.2,0.1,0.3,0
						c0.1,0,0.2,0,0.3,0c0.3,0,0.5-0.1,0.6-0.2c8.8-1.9,17.9-2.6,26.9-1.9c4.8,0.4,10.4,0.3,11.9,5.9
						C248.7,484.9,249.1,486.2,249,487.2z"/>
				</g>
				<g>
					<path class="st2" d="M332.7,437.2c-3.4,3.2-6.5,6.8-9.5,10.4c-4.5,5.6-8.1,12-11.7,18.2c0,0.1,0,0.3-0.1,0.4
						c-1,1.6-3.9,3.6-4.1,5.5c-0.6,4.9,6.2,2.9,8.3,2.3c4.5-1.3,8.6-3.8,12-6.9c7.1-6.3,11.4-15.1,14.3-24c0.8-2.4,2.2-5.9,0.5-8.3
						C339.8,430.8,334.7,435.3,332.7,437.2z"/>
					<path class="st1" d="M344.1,434.8c-3.9-8.9-15,3.9-18,7.2c-6.3,7.1-11.1,14.9-15.8,23.1c-0.1,0.2-0.1,0.3-0.1,0.4
						c-1.5,2.5-6.1,5.3-3.9,8.8c1.8,2.8,6,1.9,8.7,1.2c8.5-2.2,15.6-8.3,20.5-15.5c2.8-4.1,4.9-8.6,6.6-13.2
						C343.4,443.3,345.7,438.5,344.1,434.8z M342,443c-2.9,8.9-7.2,17.7-14.3,24c-3.5,3.1-7.6,5.6-12,6.9c-2.1,0.6-8.9,2.6-8.3-2.3
						c0.2-1.8,3.2-3.8,4.1-5.5c0.1-0.2,0.1-0.3,0.1-0.4c3.6-6.2,7.1-12.6,11.7-18.2c2.9-3.6,6-7.2,9.5-10.4c2-1.9,7.2-6.4,9.9-2.4
						C344.2,437.1,342.8,440.6,342,443z"/>
				</g>
			</g>
			<g>
				<path class="st2" d="M227.5,249.3c0.2,0.1,0.3,0.3,0.3,0.6c-0.7,12.5-1.4,25.1-2.1,37.6c-0.6,10.5-1.7,21.1-1.6,31.7
					c0,5.2,0.9,10.8,4.6,14.8c3.1,3.4,7.4,5.1,11.8,6.2c10.1,2.6,21.4,3.5,31.7,1.7c4.9-0.8,10.9-2.1,12.6-7.5
					c1.2-3.9,0.5-8.3,1-12.4l0,0c-0.1-7.4-0.1-14.8-0.2-22.2c-0.3-16.1-0.6-32.5-3.1-48.5c-0.5-2.9-1-5.8-1.8-8.7
					c-0.7-2.5-1.5-5.2-3.6-6.7c-2.8-2-6.6-1.1-9.8-0.6c-11.8,2-23.6,4.1-35.5,6.1c-0.1,0-0.2,0-0.3,0
					C229,243.6,228,246.2,227.5,249.3z"/>
				<path class="st1" d="M287.2,322c-0.1-16.2-0.2-32.4-1.2-48.6c-0.5-8.1-1.1-16.1-2.5-24.1c-1.1-6.3-2.3-15.7-10.4-16
					c-2.9-0.1-5.8,0.6-8.6,1.1c-3.5,0.6-7.1,1.2-10.6,1.8c-7.5,1.3-15,2.6-22.5,3.9c-0.9,0.1-0.5,1.5,0.4,1.3
					c11.8-2,23.6-4.1,35.5-6.1c3.2-0.5,7-1.4,9.8,0.6c2.2,1.6,2.9,4.3,3.6,6.7c0.8,2.8,1.3,5.8,1.8,8.7c2.5,16,2.8,32.3,3.1,48.5
					c0.1,7.4,0.2,14.8,0.2,22.2l0,0c-0.6,4.1,0.2,8.5-1,12.4c-1.7,5.4-7.7,6.7-12.6,7.5c-10.3,1.8-21.6,0.9-31.7-1.7
					c-4.3-1.1-8.7-2.9-11.8-6.2c-3.7-4-4.5-9.6-4.6-14.8c-0.1-10.5,1-21.2,1.6-31.7c0.7-12.5,1.4-25.1,2.1-37.6c0-0.9-1.3-0.9-1.4,0
					c-0.7,12.7-1.4,25.5-2.1,38.2c-0.4,6.4-0.7,12.7-1.1,19.1c-0.3,5.6-0.9,11.3-0.2,16.9c1.3,9.5,7.7,14.9,16.6,17.3
					c10.2,2.7,21.8,3.6,32.3,1.9c4.5-0.7,9.9-1.8,12.7-5.7c3.1-4.4,1.7-10.4,2.4-15.5c0,0,0,0,0,0C287.2,322.1,287.2,322,287.2,322z
					"/>
			</g>
			<g>
				<g>
					<path class="st2" d="M264.9,200.3c-1.9-0.1-2.9,2.6-3.1,4c-0.1,0.9-1.5,0.5-1.3-0.4c0.3-1.9,1.7-4.1,3.5-4.8
						c-0.3-4.5-0.6-9.3-3.2-13.2c-2.7-4.2-7.5-6.6-12.2-7.7c-9.8-2.2-20.4,2.2-24.5,11.6c0,0,0,0.1,0,0.1
						c-1.3,5.3-1.5,10.7-0.8,16.1c0.6,5.3,1.6,11.3,4.3,16c1.2,2.1,2.8,4,4.8,5.2c1.4,0.9,3.2,1.3,4.3,2.6c2.3,2.7,2,8.1,2.4,11.5
						c3.9,0,7.7-0.6,11.3-2.1c2.1-0.8,3.8-1.2,3.9-3.5c0.1-1.6-0.3-3.1-0.2-4.7c0.2-2.6,0.8-5.1,2.5-7.1c2.5-3.1,5.4-4.7,6.3-8.9
						c0-0.2,0.3-0.4,0.5-0.5c4.8-0.9,5.7-6,4.9-10.1C267.8,202.7,267.2,200.5,264.9,200.3z"/>
					<path class="st1" d="M267.2,199.6c-0.7-0.5-1.3-0.7-2-0.7c-0.3-5-0.8-10.3-3.9-14.5c-3.2-4.3-8.4-6.8-13.5-7.7
						c-10.5-1.9-21.1,3.1-25.3,13.1c-0.1,0.2-0.1,0.3,0,0.4c-2.1,9.2-1.1,19.5,2,28.4c1.2,3.5,3,6.8,6,9.1c2.4,1.8,5.2,2.1,6,5.5
						c0.6,2.7,0.8,5.7,1.1,8.5c0,0.1,0,0.2,0.1,0.3c0,0.4,0.2,0.8,0.6,0.8c6,0.1,11.8-1.4,17-4.5c0.2-0.1,0.4-0.4,0.3-0.6
						c-0.4-3-0.8-6.1,0-9.1c0.9-3.6,3.8-5.1,5.9-7.7c1.5-1.8,1.7-4.3,3.7-5.4c1.7-1,3-2.2,3.8-4.1
						C270.4,208.2,270.3,201.8,267.2,199.6z M263.3,214.6c-0.2,0-0.4,0.3-0.5,0.5c-0.9,4.3-3.8,5.8-6.3,8.9c-1.7,2-2.3,4.5-2.5,7.1
						c-0.1,1.6,0.2,3.1,0.2,4.7c-0.1,2.3-1.8,2.7-3.9,3.5c-3.6,1.4-7.4,2.1-11.3,2.1c-0.4-3.4-0.1-8.8-2.4-11.5
						c-1.1-1.3-2.9-1.7-4.3-2.6c-2.1-1.3-3.7-3.1-4.8-5.2c-2.7-4.7-3.7-10.7-4.3-16c-0.6-5.4-0.5-10.8,0.8-16.1c0,0,0-0.1,0-0.1
						c4.1-9.4,14.7-13.8,24.5-11.6c4.7,1.1,9.5,3.5,12.2,7.7c2.5,3.9,2.9,8.7,3.2,13.2c-1.8,0.7-3.2,2.9-3.5,4.8
						c-0.1,0.9,1.2,1.2,1.3,0.4c0.2-1.4,1.2-4.1,3.1-4c2.3,0.2,2.9,2.4,3.2,4.2C269,208.7,268,213.7,263.3,214.6z"/>
				</g>
				<g>
					<path class="st1" d="M267.5,187.9c-0.4-0.1-0.6-0.6-0.4-1c1.4-2.8,1.7-7.3-2.4-7.9c-0.3-0.1-0.5-0.3-0.5-0.5
						c-0.2-0.2-0.2-0.5-0.1-0.8c1.4-3.1-1.7-5.5-4.3-4.6c-0.5,0.2-0.8-0.3-0.9-0.7c-0.2-1.5-0.4-3.1-1.1-4.4
						c-1.4-2.5-4.5-2.8-6.1-0.4c-0.2,0.4-0.8,0.5-1.1,0.1c-2.3-2.4-7.8-4.1-8.5,0.9c-0.1,0.4-0.7,0.6-1,0.4c-2.9-2.1-9.2-2.3-8.4,3
						c0.1,0.6-0.4,1.1-1,0.8c-4.3-2.1-8.8,1.1-8,5.9c0.1,0.3-0.1,0.8-0.5,0.8c-3.5,0.7-9,4.8-4.6,8.4c0.4,0.4,0.1,1-0.3,1.1
						c-2.9,1.1-3.3,4.7-0.8,6.5c0.4,0.3,0.4,0.8,0.1,1.1c0,0.1,0,0.1,0,0.2c-0.6,2.5,1.3,4.7,3.7,4.8c0.1-1,0.1-2.1,0.2-3.1
						c0-0.4,0.4-0.8,0.9-0.7c2.2,0.9,4.6-0.2,5.2-2.6c0.1-0.5,0.8-0.7,1.1-0.3c2.2,2.5,5.6,2.2,7-1c0.2-0.4,0.8-0.7,1.1-0.3
						c2.6,3.2,6.2,0.5,8.2-1.7c0.2-0.2,0.6-0.3,0.8-0.1c2,1.5,4.6,1.6,6.5-0.2c0.4-0.4,1.2-0.1,1.2,0.5c-0.2,2.6-0.1,6.1,3,6.8
						c0.3,0.1,0.5,0.4,0.5,0.7c0.1,3,1.6,5.5,4.2,7c1.1-3.3,4.8-6.4,7.6-3.7c0.9-2,1.5-4.4-0.8-5.8c-0.4-0.2-0.4-0.7-0.1-1.1
						C269.8,193.9,271.7,189.1,267.5,187.9z"/>
					<path class="st1" d="M269.4,196.5c2.1-3.1,3.3-7.9-0.8-9.6c1.4-3.5,1.2-8.1-3.1-9.1c1.2-3.6-1.6-7-5.3-6.2
						c-0.4-2.5-1.1-5.5-3.6-6.6c-2-0.9-4.2-0.2-5.6,1.3c-3.1-2.6-8.7-3.4-10,1.1c-3.9-2.1-9.6-1.1-9.7,3.8c-4.8-1.6-9.4,2-9.1,7.2
						c-2.5,0.6-5,1.8-6.1,4.3c-0.8,1.9-0.5,4,0.8,5.6c-3.1,1.8-3.4,5.8-0.6,8.1c0,0,0,0.1,0,0.1c-0.8,3.8,1.8,6.9,5.7,6.5
						c0.4,0,0.7-0.3,0.7-0.7c0.1-1,0.1-1.9,0.2-2.9c2.3,0.5,4.6-0.6,5.7-2.7c2.6,2.2,6.2,1.5,8-1.4c2.3,2,5.6,1.2,7.9-0.8
						c1.1-1,0.9-1,2.2-0.6c0.8,0.2,1.4,0.4,2.2,0.5c1.2,0,2.3-0.3,3.3-0.9c0,1.5,0.1,2.9,0.8,4.2c0.3,0.6,0.7,1.1,1.2,1.5
						c0.4,0.4,1.3,0.5,1.6,1c0.8,1.2,0.7,3,1.6,4.4c1,1.5,2.4,2.6,4,3.4c0.2,0.1,0.3,0.1,0.5,0c0.3,0,0.6-0.1,0.7-0.5
						c0.4-2.2,3.4-7.1,6.1-3.1c0.3,0.4,0.9,0.5,1.2,0C270.9,201.9,272,198.5,269.4,196.5z M268.9,203c-2.8-2.7-6.5,0.3-7.6,3.7
						c-2.6-1.5-4.1-3.9-4.2-7c0-0.3-0.2-0.6-0.5-0.7c-3.2-0.6-3.2-4.1-3-6.8c0-0.6-0.8-0.9-1.2-0.5c-2,1.8-4.5,1.7-6.5,0.2
						c-0.2-0.2-0.6-0.1-0.8,0.1c-2,2.3-5.6,4.9-8.2,1.7c-0.4-0.4-1-0.1-1.1,0.3c-1.3,3.2-4.8,3.5-7,1c-0.3-0.4-1-0.2-1.1,0.3
						c-0.6,2.4-3,3.4-5.2,2.6c-0.4-0.2-0.8,0.3-0.9,0.7c-0.1,1-0.1,2.1-0.2,3.1c-2.4-0.1-4.3-2.3-3.7-4.8c0-0.1,0-0.2,0-0.2
						c0.3-0.3,0.3-0.8-0.1-1.1c-2.6-1.7-2.2-5.4,0.8-6.5c0.4-0.2,0.7-0.8,0.3-1.1c-4.4-3.6,1.1-7.7,4.6-8.4c0.4-0.1,0.5-0.5,0.5-0.8
						c-0.8-4.8,3.7-8,8-5.9c0.6,0.3,1.1-0.2,1-0.8c-0.8-5.3,5.6-5.1,8.4-3c0.3,0.2,0.9,0,1-0.4c0.7-5,6.1-3.3,8.5-0.9
						c0.3,0.3,0.8,0.2,1.1-0.1c1.6-2.4,4.7-2.1,6.1,0.4c0.7,1.3,0.9,2.9,1.1,4.4c0,0.4,0.4,0.8,0.9,0.7c2.7-0.9,5.7,1.4,4.3,4.6
						c-0.1,0.3-0.1,0.6,0.1,0.8c0,0.3,0.2,0.5,0.5,0.5c4,0.6,3.8,5.1,2.4,7.9c-0.2,0.4,0,0.9,0.4,1c4.2,1.2,2.3,5.9,0.5,8.2
						c-0.3,0.3-0.3,0.8,0.1,1.1C270.4,198.6,269.8,201,268.9,203z"/>
				</g>
				<g>
					<path class="st1" d="M238.6,207.3c0.3,0.3,0.8,0.5,1.3,0.4c0.5-0.1,0.8-0.5,1-1c0.1-0.5,0.2-1.1,0-1.6
						c-0.2-0.5-0.7-0.9-1.2-0.8c-0.4,0-0.8,0.3-0.9,0.6C238.1,205.6,237.8,206.6,238.6,207.3z"/>
					<path class="st1" d="M227.3,207.3c-0.3-0.1-0.6,0.1-0.8,0.3c-0.1,0.1-0.1,0.2-0.2,0.3c-0.4,0.4-0.6,0.9-0.6,1.5
						c0,0.8,0.7,1.6,1.5,1.5c1,0,1.2-1,1.1-1.8C228.4,208.4,228.1,207.7,227.3,207.3z"/>
					<path class="st1" d="M233.1,213.3c-1-0.3-2.4,0-2.1-1.6c0.2-1.1,0.8-2.2,1.1-3.2c0.3-0.8-1-1.2-1.3-0.4
						c-0.5,1.4-1.6,3.2-1.2,4.7c0.4,1.6,1.8,1.4,3.1,1.8C233.6,214.9,234,213.6,233.1,213.3z"/>
					<path class="st1" d="M240.2,212.7c-0.5,2.3-2.3,3.9-4.6,4.3c-0.9,0.1-0.5,1.5,0.4,1.3c2.7-0.4,5-2.6,5.5-5.3
						C241.7,212.2,240.4,211.8,240.2,212.7z"/>
				</g>
			</g>
			<g>
				<g>
					<path class="st2" d="M274.6,266.2c0.4-0.1,0.8,0.1,0.8,0.6c-0.5,6.9-0.6,13.7-0.4,20.6c8.9-1.3,17.7-3.6,26.1-6.9
						c-1.5-9.9-3.2-20.3-7.6-29.3c-2.2-4.5-5.1-8.7-8.9-11.9c-2.8-2.4-6.1-4.3-9.9-4.5c-2.9-0.2-5.8,0.4-8.6,1c-0.2,0-0.4,0-0.5-0.1
						c1.2,6.1,3,11.9,5,17.8C272,257.5,274.3,261.8,274.6,266.2z"/>
					<path class="st2" d="M301.3,281.9c-8.5,3.3-17.2,5.6-26.2,6.9c0.2,5.9,0.7,11.8,1.6,17.7c0.7,5.1,0.7,13.6,6.8,15.3
						c4.9,1.3,10-1.6,13.2-5.2c7.8-8.9,6.6-21.6,5-32.4C301.5,283.4,301.4,282.7,301.3,281.9z"/>
				</g>
				<path class="st1" d="M303.9,291.8c-0.3-3.6-0.8-7.2-1.4-10.7c0.1-0.2,0-0.5-0.1-0.7c-0.5-2.8-1-5.5-1.5-8.3
					c-1.2-6.6-2.6-13.2-5.3-19.4c-2.5-5.8-6-11.2-11-15.1c-5.9-4.7-11.8-4.6-18.9-3.1c-0.9,0.2-0.5,1.5,0.4,1.3
					c2.8-0.6,5.7-1.2,8.6-1c3.8,0.2,7.1,2.1,9.9,4.5c3.8,3.2,6.7,7.4,8.9,11.9c4.4,9,6.1,19.4,7.6,29.3c-8.4,3.3-17.1,5.6-26.1,6.9
					c-0.2-6.9-0.1-13.8,0.4-20.6c0.1-0.9-1.3-0.9-1.4,0c-1,14.1-0.5,28.3,1.6,42.3c0.7,4.8,1,11.3,6.2,13.6
					c3.8,1.7,8.4,0.6,11.8-1.6C303.3,314.8,304.9,302.3,303.9,291.8z M296.6,316.6c-3.2,3.6-8.3,6.5-13.2,5.2
					c-6.1-1.7-6.1-10.2-6.8-15.3c-0.8-5.9-1.3-11.8-1.6-17.7c9-1.3,17.8-3.6,26.2-6.9c0.1,0.8,0.2,1.6,0.4,2.3
					C303.2,295,304.5,307.7,296.6,316.6z"/>
			</g>
			<g>
				<g>
					<path class="st1" d="M313,417.4c-14.3-12.9-17.8-31.8-20.7-50c-3.4-20.6-5.2-41.4-6.6-62.2c-20.3,3.9-40.9,5.7-61.5,5.4
						c-0.1,0-0.1,0-0.1,0c-2.3,11.8-1.8,24.2-2.6,36.2c-2.8,44.1-7.8,88.2-12,132.2c0,0.1,0,0.1,0,0.2c12.4,2.8,25.1,3.3,37.7,1.4
						c0,0,0,0,0,0c3.1-25.8,6.2-51.7,8.2-77.6c-6.4-17.5-9-36.1-11.4-54.6c-0.1-0.9,1.3-0.9,1.4,0c1.6,12,3.1,23.9,5.8,35.7
						c1.4,6.1,3.2,12.1,5.3,18c0.1,0.1,0.2,0.3,0.2,0.5c0,0,0,0,0,0.1c4,10.8,9.4,21,16.3,30.3c10.1,13.5,23.2,24.5,37.9,32.6
						c6.1-3.2,11.7-7.4,16.4-12.5c4.8-5.1,11.4-12.8,10.6-20.3C329,428.7,320.3,424,313,417.4z"/>
					<path class="st1" d="M339.3,432.6C339.3,432.5,339.3,432.5,339.3,432.6c0.1-0.3,0.1-0.7-0.3-0.8c-16.5-7.5-31.6-17.4-38.4-35
						c-3.3-8.6-5-17.8-6.5-26.8c-1.8-10.2-3.1-20.6-4.2-30.9c-1.2-11.4-2.1-22.8-2.9-34.2c0-0.3-0.2-0.5-0.5-0.6
						c-0.1-0.3-0.4-0.5-0.8-0.4c-20.3,3.9-40.9,5.8-61.6,5.5c-0.2-0.6-1.1-0.7-1.3,0c-2.2,10.3-1.9,21.1-2.5,31.6
						c-0.6,10.9-1.5,21.9-2.4,32.8c-2,22.4-4.2,44.9-6.3,67.3c-1.2,12.7-2.4,25.4-3.6,38.1c0,0.3,0.2,0.5,0.4,0.6
						c-0.1,0.3,0,0.7,0.5,0.8c12.6,2.9,25.6,3.3,38.4,1.4c0.4,0.2,1,0,1-0.6c3-25.1,6.1-50.2,8.1-75.4c0.3,0.8,0.6,1.6,1,2.4
						c6.7,15.8,16.6,30.2,29.4,41.8c7.2,6.5,15.2,12.1,23.8,16.8c0.2,0.1,0.4,0.1,0.6,0c0.1,0,0.2,0,0.3-0.1
						c6.9-3.6,13.1-8.4,18.2-14.2C334.2,447.3,340.2,440,339.3,432.6z M327.3,453c-4.7,5.1-10.3,9.3-16.4,12.5
						c-14.8-8.1-27.8-19-37.9-32.6c-6.9-9.3-12.3-19.5-16.3-30.3c0,0,0,0,0-0.1c0-0.2-0.1-0.4-0.2-0.5c-2.2-5.9-3.9-11.9-5.3-18
						c-2.7-11.8-4.3-23.7-5.8-35.7c-0.1-0.9-1.5-0.9-1.4,0c2.4,18.4,4.9,37.1,11.4,54.6c-2,26-5.1,51.8-8.2,77.6c0,0,0,0,0,0
						c-12.6,1.9-25.3,1.4-37.7-1.4c0-0.1,0-0.1,0-0.2c4.2-44,9.2-88.1,12-132.2c0.8-12,0.3-24.4,2.6-36.2c0,0,0.1,0,0.1,0
						c20.6,0.3,41.2-1.5,61.5-5.4c1.4,20.8,3.3,41.6,6.6,62.2c3,18.2,6.5,37.1,20.7,50c7.3,6.6,16.1,11.3,25,15.4
						C338.7,440.2,332.1,447.9,327.3,453z"/>
				</g>
				<path class="st2" d="M242.7,348.4c2.2,20.6,5.6,41.4,13.4,60.6c0.1-1,0.2-2,0.3-3.1c-7-18.4-10.2-38.1-12.3-57.5
					C244,347.6,242.6,347.6,242.7,348.4z"/>
			</g>
			<g>
				<g>
					<path class="st0" d="M292.8,97.6c-14.2,0.4-28.3,5.4-38.3,14.9c-0.2,0.2-0.4,0.2-0.6,0.2c-0.2,0-0.4,0-0.5-0.2
						c-2.5-2.6-5.1-5.2-7.7-7.6c-10,18.7-18.1,38.2-23.9,58.5c19.4-10.5,41.7-2.3,58.5,9.7C284.3,147.9,288.3,122.7,292.8,97.6z"/>
					<path class="st0" d="M200.5,92.7c-6.5,1.1-12.7,3-18.6,6.6c-7.2,4.5-13.4,10.4-19.3,16.4c-0.2,0.2-0.5,0.2-0.8,0.1
						c-9.8-4.3-19.2-7-29.7-4.1c-8.4,2.3-15.8,7.5-20.6,14.7c8.6-3.9,18.1-4.8,27.2-1.8c3.6,1.2,7,2.9,10.1,5.1
						c3.2,2.2,5.6,5,8.3,7.8c0.2,0.2,0.4,0.4,0.5,0.5C167.2,118.9,182,103.3,200.5,92.7z"/>
					<path class="st0" d="M234.1,96.3c-8.3-4.7-17.2-5.3-26.5-4.5c-1.1,0.1-2.3,0.2-3.4,0.4c-19.6,10.5-35.2,26.3-45.3,46.1
						c0.1,0,0.2-0.1,0.4-0.1c1-0.3,2-0.7,3-1c1.9-0.5,3.8-0.9,5.8-1.1c4.2-0.5,8.4-0.4,12.6,0.3c16.6,2.7,29.9,14,39.5,27.3
						c5.9-20.8,14.1-40.7,24.3-59.7C241.3,101,237.9,98.4,234.1,96.3z"/>
					<path class="st0" d="M361.8,117c7.2,0,14.6,1.3,21.1,4.7c12,6.3,18.1,18.8,23.2,30.8c0-4.7-1-9.2-1.6-13.9
						c-0.8-7.2-2.4-14.2-4.9-21c-4.5-12.4-12-23-20.7-32.8c-8.9-9.9-19-18.9-30-26.4c-7-4.8-14.4-8-22.3-11.1
						c-2.9-1.2-5.9-2.4-9-3.5c9.7,5.6,16.6,15.7,21.2,26.4c6.9,16.2,8.4,33.6,5.8,50.9C349.2,117.2,356.1,117,361.8,117z"/>
					<path class="st0" d="M206.1,70.6c-9.1,6.1-17.5,13.2-25.3,20.9c-3.9,3.8-7.6,7.8-11.2,11.8c-2.5,2.8-4.1,5.8-5.6,9
						c0.1-0.2,0.3-0.3,0.4-0.4c8-7.8,16.8-15.4,27.6-18.8c5.7-1.8,11.9-2.4,17.8-2.8c6.1-0.4,12.3-0.2,18.2,1.8
						c10.2,3.5,18.1,11.3,25.4,18.8c3-16.5,9-31.4,19-44.9c4.2-5.7,8.5-11.5,13.8-16.3c4.3-3.9,9.1-7,14.3-9.5
						c-11.3,1.8-22.7,3.4-33.9,5.8C245.2,50.4,224.5,58.1,206.1,70.6z"/>
					<path class="st0" d="M286.2,51.6c-5.1,5-9.4,10.7-13.6,16.5c-9.2,12.6-14.6,26.7-17.5,41.9c24.8-21.3,70.4-18.2,88.1,10.8
						c2.4-16.3,1.3-32.8-4.9-48.3C332,56.9,321,41.8,302.9,40.6C296.7,43.3,291.1,46.9,286.2,51.6z"/>
					<path class="st0" d="M309,28.5c0.1-1.6,0.1-3.2,0.2-4.7c0.1-1.9,0.3-3.4-1.9-3.5c-2.8-0.1-2.9,1.8-3.2,3.9
						c-0.2,1.5-0.5,2.9-0.8,4.4c-0.7,3.1-1.5,6.1-2.5,9.1c2.6,0.3,5.2,0.7,7.8,1.3C308.8,35.5,308.9,32,309,28.5z"/>
					<path class="st0" d="M148.5,109.6c3.3,0.6,6.5,1.8,9.7,3.1c0.8,0.3,2.4,1.4,3.2,1.4c0.1,0,0.3,0,0.4-0.1c1.6-4,3.4-7.7,6.2-11
						c4.2-4.9,8.7-9.6,13.3-14c15.8-15.2,34.1-27.7,54.6-35.6c20.5-7.9,42.2-11.1,63.8-14.5c-7.4-0.7-14.9-0.5-22.3-0.5
						c-7.6-0.1-15.2,0.3-22.8,1.2c-30.5,3.8-60.1,15.2-86.5,30.8c-21.2,12.5-40.9,28.8-53.6,50.1c5.5-5.6,12.7-9.4,20.4-10.8
						C139.5,108.8,144.1,108.7,148.5,109.6z"/>
					<path class="st0" d="M381,72.3c-12-8.5-25-15.4-38.6-20.9c-5.8-2.4-11.7-4.5-17.7-6.4c2.3,1,4.7,2,6.9,2.9
						c8.7,3.6,16.2,7.9,23.8,13.6c10.8,8.1,20.6,17.5,29.2,27.9c7.9,9.5,14,20.2,17.7,32c1.9,6.1,3,12.4,3.7,18.7
						c0.5,4.9,1.7,9.3,1.4,14.1c8.7-5.6,20.4-5.4,28.8,0.8c4.8,3.6,8.6,8.6,12,13.5c3.3,4.7,6.1,9.6,8.5,14.8
						c-5.4-31-23.4-58-43.9-81.3C403.1,91,392.9,80.7,381,72.3z"/>
					<path class="st0" d="M437.8,158c-8.6-7.8-21.4-8.7-30.8-1.9c-0.4,0.3-0.8,0-0.9-0.3c0-0.1-0.1-0.1-0.1-0.2
						c-4.9-11.8-10.5-24.9-22-31.8c-0.5-0.3-1.1-0.6-1.7-0.9c5.3,9,9.5,18.5,12.5,28.5c3.2,10.7,5.3,21.7,7.6,32.7
						c0,0.1,0,0.2,0,0.2c8.7-5.5,20.2-7.1,30.3-7.5c8.3-0.4,17.1,1.4,23,7.4C451.3,174.7,445.5,165,437.8,158z"/>
					<path class="st2" d="M294.2,97.5c-2,11.1-3.8,22.2-5.6,33.3c-6.1,36.8-12.2,73.6-18.2,110.4c-3.8,23.3-7.9,46.5-11.3,69.9
						c1.3,0.5,2.5,0.7,3.9,0.5c0,0,0,0,0,0c1-6.5,2.1-12.9,3.1-19.4c6.2-38.7,12.4-77.3,18.6-116c4.2-26.2,8.4-52.5,12.6-78.7
						C296.2,97.5,295.2,97.5,294.2,97.5z"/>
					<path class="st0" d="M335.1,112.8c-9.5-9.3-22.8-14.4-36.5-15.1c-1.7,10.8-3.5,21.5-5.2,32.3c-2.2,13.6-4.4,27.3-6.6,40.9
						c10.5-4.6,21.5-7.8,33.1-6.1c9.6,1.4,18.8,6.3,24.3,14.3c0.5-11.3,0.1-22.5-1.6-33.6C340.9,134.4,338.1,123.6,335.1,112.8z"/>
					<path class="st0" d="M380.4,122.4c-0.1-0.2-0.1-0.3-0.1-0.5c-5.2-2.3-10.9-3.3-16.5-3.6c-6.4-0.2-14.9-0.3-19.6,4.8
						c-0.1,0.1-0.1,0.2-0.2,0.2c-0.4,0.4-1,0-1.1-0.5c-1.7-2.9-3.6-5.6-5.8-8.1c2.8,10.3,5.4,20.7,7,31.2c1.6,11,2,22.1,1.5,33.3
						c7.9-7.7,19-11.8,30-10.6c9.9,1.1,19,6.4,25.1,14.2c-2.1-10.2-4.1-20.4-7-30.4C390.5,142,386.1,131.9,380.4,122.4z"/>
					<path class="st2" d="M258.8,312.5c-0.4,2.5-0.7,4.9-1,7.4c0,0.1,0,0.2-0.1,0.2c-0.7,5.5-1.1,14.8-7.2,16
						c-5.8,1.2-6.7-6.4-6.2-10.4c0.1-0.5,0.5-1.8,0.4-2.4c-0.7-2.8-2.9-2.4-3.7,0.1c-0.5,1.6-0.5,3.7-0.4,5.3
						c0.1,5.2,2.7,10.5,8.5,11c4.8,0.4,8.3-3.1,9.6-7.4c1.3-4.3,2.3-8.8,3-13.3c0-0.1,0.1-0.2,0.1-0.3c0.3-1.9,0.6-3.9,0.9-5.8
						C261.4,313.1,260.1,312.9,258.8,312.5z"/>
				</g>
				<path class="st1" d="M458.6,186.5c-4-29-19.3-54.7-37.6-77.1c-9.3-11.4-19.3-22.6-30.8-31.9c-11.6-9.4-24.4-17.1-37.9-23.4
					c-13.2-6.1-27-11-41.1-14.6c-0.4-0.1-0.8-0.2-1.3-0.3c0,0,0-0.1,0-0.1c0.2-5.1,0.4-10.3,0.7-15.4c0.1-3.3,0.9-4.8-2.7-4.8
					c-4.1-0.1-4.4,0.5-5,4.3c-0.7,4.8-1.9,9.5-3.4,14.2c0,0.1,0,0.1,0,0.2c-3.3-0.3-6.6-0.5-9.9-0.5c-8.2-0.1-16.4-0.3-24.6,0.2
					c-31,1.9-61.3,12.4-88.6,27c-27.1,14.5-52.8,34.4-66.7,62.4c-0.1,0.2-0.3,0.4-0.4,0.6c-0.1,0.2-0.1,0.5,0,0.7
					c0.1,0.3,0.5,0.5,0.8,0.4c0.1,0,0.3,0,0.5-0.1c16.4-8.1,35.8-3.3,46.5,11.6c0.2,0.2,0.5,0.4,0.8,0.3c24-10.1,47.9,5.5,61.6,24.7
					c0.1,0.2,0.4,0.3,0.6,0.3c0,0,0.1,0.1,0.1,0.1c0.2,0.2,0.5,0.2,0.8,0.1c19.5-11.6,42.1-2.9,59,9.2c0,0.3-0.1,0.6-0.1,0.9
					c-6.1,36.8-12.1,73.6-18,110.5c-1.7,10.7-3.5,21.4-5,32.2c0,0,0,0.1-0.1,0.2c-0.7,3.6-1,15.8-6,16.6c-4,0.6-5-3.4-5.1-6.5
					c0-1.9,0.9-4.1,0.5-6c-0.4-2-2.5-3-4.3-2c-2.7,1.5-2.6,5.5-2.6,8.1c0,7,4.6,14.3,12.6,12.6c3.4-0.7,6.1-3.1,7.5-6.2
					c1.2-2.8,2-5.9,2.6-9.1c0.1-0.1,0.2-0.2,0.2-0.3c4.3-26.5,8.5-52.9,12.7-79.4c3.9-24.5,7.9-49,11.8-73.5
					c10.3-4.7,21.2-7.9,32.6-6.4c10,1.3,19.6,6.5,24.9,15.3c0.3,0.6,1.1,0.3,1.3-0.2c0.2,0,0.4,0,0.5-0.2
					c15.7-16.1,42.4-13.9,55.1,4.7c0.1,0.2,0.4,0.3,0.6,0.3c0.2,0.1,0.4,0.1,0.7,0c8.1-5.5,18.6-6.9,28.1-7.7
					c9.7-0.8,20.5,0.7,26.5,9.3c0.4,0.6,1.3,0.2,1.3-0.3C458.4,187.2,458.6,186.9,458.6,186.5z M381,72.3
					c11.9,8.5,22.1,18.7,31.8,29.6c20.5,23.3,38.6,50.3,43.9,81.3c-2.4-5.1-5.3-10.1-8.5-14.8c-3.4-4.9-7.1-9.9-12-13.5
					c-8.4-6.2-20.1-6.3-28.8-0.8c0.3-4.9-0.8-9.2-1.4-14.1c-0.7-6.3-1.8-12.6-3.7-18.7c-3.7-11.8-9.8-22.5-17.7-32
					c-8.6-10.4-18.4-19.8-29.2-27.9c-7.5-5.7-15.1-10-23.8-13.6c-2.3-0.9-4.6-1.9-6.9-2.9c6,1.9,11.9,4,17.7,6.4
					C356,56.9,369,63.8,381,72.3z M382.9,121.6c-6.5-3.4-13.8-4.7-21.1-4.7c-5.7,0-12.6,0.2-17.2,4c2.6-17.3,1.1-34.6-5.8-50.9
					c-4.6-10.7-11.4-20.8-21.2-26.4c3,1.1,6,2.4,9,3.5c7.9,3.1,15.3,6.4,22.3,11.1c11,7.5,21.1,16.5,30,26.4
					c8.8,9.7,16.2,20.4,20.7,32.8c2.5,6.8,4.1,13.8,4.9,21c0.5,4.7,1.6,9.2,1.6,13.9C401,140.5,394.9,127.9,382.9,121.6z M255.1,110
					c2.9-15.2,8.3-29.3,17.5-41.9c4.2-5.7,8.4-11.5,13.6-16.5c4.9-4.7,10.5-8.3,16.7-11.1c18.1,1.2,29.2,16.3,35.4,31.9
					c6.2,15.5,7.4,31.9,4.9,48.3C325.5,91.8,280,88.7,255.1,110z M228.2,92c-5.9-2-12.1-2.2-18.2-1.8c-6,0.4-12.1,1-17.8,2.8
					c-10.8,3.4-19.7,11-27.6,18.8c-0.1,0.1-0.3,0.3-0.4,0.4c1.5-3.3,3.1-6.2,5.6-9c3.6-4.1,7.3-8,11.2-11.8
					c7.8-7.7,16.2-14.7,25.3-20.9c18.3-12.4,39-20.2,60.6-24.7c11.2-2.3,22.6-4,33.9-5.8c-5.2,2.5-10,5.6-14.3,9.5
					c-5.3,4.8-9.6,10.6-13.8,16.3c-10,13.6-16,28.4-19,44.9C246.2,103.3,238.3,95.5,228.2,92z M303.3,28.6c0.3-1.5,0.6-2.9,0.8-4.4
					c0.3-2.1,0.4-4,3.2-3.9c2.2,0.1,2,1.6,1.9,3.5c-0.1,1.6-0.1,3.2-0.2,4.7c-0.1,3.5-0.3,7-0.4,10.5c-2.6-0.6-5.2-1-7.8-1.3
					C301.8,34.7,302.6,31.7,303.3,28.6z M168.2,70.3c26.4-15.5,56-27,86.5-30.8c7.6-0.9,15.2-1.3,22.8-1.2
					c7.4,0.1,14.9-0.2,22.3,0.5c-21.6,3.4-43.2,6.6-63.8,14.5c-20.5,7.9-38.8,20.4-54.6,35.6c-4.6,4.5-9.1,9.1-13.3,14
					c-2.8,3.3-4.6,7-6.2,11c-0.1,0-0.2,0.1-0.4,0.1c-0.8,0-2.4-1-3.2-1.4c-3.1-1.3-6.3-2.5-9.7-3.1c-4.5-0.9-9.1-0.8-13.5,0
					c-7.8,1.4-14.9,5.2-20.4,10.8C127.3,99.1,147,82.8,168.2,70.3z M157,137.5c-2.7-2.8-5.1-5.5-8.3-7.8c-3.1-2.2-6.5-3.9-10.1-5.1
					c-9.1-3-18.6-2.1-27.2,1.8c4.9-7.2,12.3-12.4,20.6-14.7c10.6-2.9,20-0.2,29.7,4.1c0.3,0.1,0.6,0.1,0.8-0.1
					c5.9-6,12.1-11.9,19.3-16.4c5.9-3.6,12-5.5,18.6-6.6c-18.5,10.6-33.3,26.2-42.9,45.4C157.4,137.9,157.2,137.8,157,137.5z
					 M180.7,136.3c-4.2-0.7-8.4-0.8-12.6-0.3c-1.9,0.2-3.9,0.6-5.8,1.1c-1,0.3-2,0.7-3,1c-0.1,0-0.3,0.1-0.4,0.1
					c10.1-19.8,25.6-35.6,45.3-46.1c1.1-0.1,2.2-0.3,3.4-0.4c9.3-0.8,18.2-0.2,26.5,4.5c3.8,2.1,7.2,4.8,10.4,7.7
					c-10.2,19-18.5,38.9-24.3,59.7C210.6,150.4,197.3,139,180.7,136.3z M221.7,163.4c5.8-20.4,13.9-39.9,23.9-58.5
					c2.7,2.4,5.2,5,7.7,7.6c0.2,0.2,0.4,0.2,0.5,0.2c0.2,0,0.4,0,0.6-0.2c10.1-9.5,24.1-14.5,38.3-14.9
					c-4.5,25.1-8.5,50.3-12.6,75.5C263.3,161.1,241,152.9,221.7,163.4z M258.6,332.4c-1.3,4.3-4.7,7.8-9.6,7.4
					c-5.8-0.5-8.4-5.7-8.5-11c0-1.6-0.1-3.7,0.4-5.3c0.9-2.5,3-3,3.7-0.1c0.1,0.6-0.3,1.9-0.4,2.4c-0.5,4,0.4,11.5,6.2,10.4
					c6.1-1.2,6.4-10.6,7.2-16c0-0.1,0.1-0.1,0.1-0.2c0.3-2.5,0.7-4.9,1-7.4c1.2,0.5,2.5,0.6,3.9,0.5c-0.3,1.9-0.6,3.9-0.9,5.8
					c-0.1,0.1-0.1,0.2-0.1,0.3C261,323.6,260,328.1,258.6,332.4z M266,292.3c-1,6.5-2.1,12.9-3.1,19.4c0,0,0,0,0,0
					c-1.3,0.1-2.6-0.1-3.9-0.5c3.4-23.3,7.5-46.6,11.3-69.9c6-36.8,12.1-73.6,18.2-110.4c1.9-11.1,3.7-22.2,5.6-33.3
					c1,0,2.1,0,3.1,0c-4.2,26.2-8.4,52.4-12.6,78.7C278.4,214.9,272.2,253.6,266,292.3z M319.9,164.8c-11.6-1.7-22.6,1.4-33.1,6.1
					c2.2-13.6,4.4-27.3,6.6-40.9c1.7-10.8,3.4-21.5,5.2-32.3c13.6,0.8,26.9,5.8,36.5,15.1c3,10.8,5.8,21.6,7.5,32.7
					c1.7,11.1,2.1,22.4,1.6,33.6C338.7,171,329.6,166.2,319.9,164.8z M375.6,168.8c-11-1.2-22.1,2.9-30,10.6
					c0.5-11.1,0.1-22.2-1.5-33.3c-1.6-10.6-4.2-20.9-7-31.2c2.2,2.4,4.1,5.1,5.8,8.1c0.1,0.5,0.6,0.9,1.1,0.5c0.1,0,0.2-0.1,0.2-0.2
					c4.7-5.1,13.2-5.1,19.6-4.8c5.6,0.2,11.3,1.3,16.5,3.6c0,0.1,0,0.3,0.1,0.5c5.7,9.5,10.1,19.6,13.3,30.3c2.9,10,4.9,20.2,7,30.4
					C394.6,175.2,385.5,169.9,375.6,168.8z M432.6,176.8c-10.1,0.5-21.6,2-30.3,7.5c0-0.1,0-0.1,0-0.2c-2.3-11-4.4-22-7.6-32.7
					c-3-10-7.2-19.5-12.5-28.5c0.6,0.3,1.1,0.6,1.7,0.9c11.5,6.9,17.1,19.9,22,31.8c0,0.1,0,0.2,0.1,0.2c0.1,0.4,0.5,0.6,0.9,0.3
					c9.5-6.8,22.3-5.9,30.8,1.9c7.7,7,13.5,16.7,17.9,26.2C449.8,178.2,441,176.4,432.6,176.8z"/>
			</g>
			<g>
				<path class="st2" d="M297.2,290.7c-3.2-4.2-6.3-8.5-9.3-12.8c-2.7-3.8-5.8-7.7-7.7-12c-2.1-5.1-3.9-10.4-9.8-12.2
					c-1.2-0.4-2.4-0.5-3.6-0.5c-1.2,0.1-2.3,0.3-3.4,0.8c-0.5,1.6-0.1,2.5,1.2,2.8c2,1.1,4.9,1.3,7.1,1.8c0.2,0.1,0.3,0.2,0.4,0.3
					c0.4,0.4,0.3,1.2-0.4,1.2c-2.3-0.2-4.5-0.2-6.8,0.1c-0.9,0.1-7.1,0.4-7.3,2c-0.4,2.5,8.6,2.3,11.5,2.6c0,0,0,0,0.1,0
					c0,0,0,0,0,0c0.2,0,0.4,0.1,0.6,0.1c0.9,0.2,0.5,1.5-0.4,1.3c-0.1,0-0.1,0-0.2,0c-2-0.1-9.3-0.8-10.3,1.6
					c-0.8,1.9,3.7,1.9,4.5,2.1c1.5,0.3,2.8,0.8,4.2,1.5c0.7,0.3,0.3,1.3-0.3,1.3c-1.1,0-11.2,1.1-7.6,3.6c0.9,0.7,3,0.7,4.2,0.9
					c1.4,0.3,2.7,0.7,4.1,1.2c0.8,0.3,0.5,1.6-0.4,1.3c-0.3-0.1-0.6-0.2-0.9-0.3c-0.6,3,1.6,4.3,2.6,6.8c0.8,2,0.9,4.5,1.3,6.6
					c0.9,5.2,1.9,10.4,3.4,15.4c1.6,5.1,3.9,12,9.7,13.6c5.5,1.6,11.1-3,14.4-6.9c0.2-0.2,0.1-0.3,0.3-0.2c0.6-1,0.9-2,1.2-3
					c0.6-2.2,0.8-4.4,0.8-6.6c0-4.8-0.6-9.5-2.4-14C297.6,291,297.3,291,297.2,290.7z"/>
				<path class="st1" d="M298,314.8c-3.3,4-8.8,8.5-14.4,6.9c-5.8-1.6-8.2-8.5-9.7-13.6c-1.5-5-2.5-10.2-3.4-15.4
					c-0.4-2.1-0.5-4.6-1.3-6.6c-1-2.6-3.1-3.8-2.6-6.8c0.3,0.1,0.6,0.2,0.9,0.3c0.8,0.3,1.2-1,0.4-1.3c-1.3-0.5-2.7-0.9-4.1-1.2
					c-1.1-0.2-3.2-0.3-4.2-0.9c-3.6-2.5,6.5-3.6,7.6-3.6c0.6,0,1-1,0.3-1.3c-1.4-0.6-2.7-1.1-4.2-1.5c-0.9-0.2-5.4-0.2-4.5-2.1
					c1-2.4,8.3-1.6,10.3-1.6c0.1,0,0.2,0,0.2,0c0.9,0.2,1.2-1.1,0.4-1.3c-0.1,0-0.3-0.1-0.6-0.1c0,0,0,0,0,0c0,0,0,0-0.1,0
					c-3-0.3-11.9-0.2-11.5-2.6c0.2-1.6,6.4-1.9,7.3-2c2.3-0.2,4.5-0.3,6.8-0.1c0.7,0.1,0.8-0.8,0.4-1.2c-0.1-0.1-0.2-0.2-0.4-0.3
					c-2.2-0.5-5.1-0.7-7.1-1.8c-1.4-0.2-1.8-1.2-1.2-2.8c1.1-0.5,2.2-0.8,3.4-0.8c1.2-0.1,2.4,0.1,3.6,0.5c5.9,1.8,7.7,7.1,9.8,12.2
					c1.8,4.3,5,8.2,7.7,12c3,4.3,6.1,8.6,9.3,12.8c0.5,0.7,1.7,0,1.2-0.7c-4.8-6.3-9.4-12.8-13.8-19.3c-3.5-5.2-4.5-12.1-9.6-16.1
					c-2.1-1.6-4.6-2.6-7.2-2.7c-1.7-0.1-4.7,0.2-5.8,1.8c-1.7,2.7,0.8,4.2,3.8,5.1c-1.7,0.1-3.5,0.4-5.2,0.7
					c-1.4,0.3-4.5,1.2-4.7,3.1c-0.2,1.7,1.6,2.5,4,3c-1.2,0.5-2.1,1.2-2.7,2.2c-0.6,1.1-0.2,2.3,1,2.8c0.8,0.4,1.9,0.2,2.8,0.3
					c1,0.1,2.1,0.3,3,0.5c-3,0.3-6.5,1.2-7,3.7c-0.3,1.4,0.8,1.9,1.9,2.3c2.1,0.7,4.3,1,6.4,1.6c-0.4,1.9-0.1,3.7,1.1,5.4
					c2,2.9,2.3,5.9,2.9,9.4c1.3,6.9,2.5,14,5.3,20.4c1.9,4.4,5.2,8.8,10.3,9.3c5.6,0.6,10.7-3.6,14.1-7.6
					C299.5,315.1,298.6,314.2,298,314.8z"/>
			</g>
		</g>
	</g>
	<g>
		<g>
			<path class="st0" d="M201,230.3c-2,1.2-3.5,3.8-4.6,5.8c-0.3,0.6-1.3,0.3-1.3-0.3c0-3.2-4.4-5.9-7.1-4.3
				c-3.1,1.8-0.2,6.9,1.2,8.6c2.1,2.4,4.4,4.2,5.9,7c2.3-3.5,4.7-6.9,7.4-10.1c0.9-1.1,2.1-2.4,2.5-3.8
				C205.7,230,203.1,229.1,201,230.3z"/>
			<path class="st1" d="M201.6,228.5c-2.3,0.9-4.1,3.2-5.4,5.4c-1.5-3.7-6.9-6.5-9.6-2.6c-4.7,6.6,5.9,12.2,7.9,17.4
				c0.3,0.7,1.2,0.5,1.3,0c2.6-4,5.4-7.8,8.4-11.5c1.4-1.8,3.3-4.5,2.2-7C205.4,228.3,203.2,227.8,201.6,228.5z M205,233.1
				c-0.4,1.5-1.6,2.7-2.5,3.8c-2.6,3.3-5.1,6.6-7.4,10.1c-1.4-2.7-3.8-4.6-5.9-7c-1.5-1.7-4.4-6.7-1.2-8.6c2.7-1.6,7.1,1.1,7.1,4.3
				c0,0.7,1,1,1.3,0.3c1-2,2.5-4.6,4.6-5.8C203.1,229.1,205.7,230,205,233.1z"/>
		</g>
		<g>
			<path class="st0" d="M155,166.6c-2.5-0.6-5,1.6-6.4,3.5c0,0,0,0,0,0c0,0.3-0.2,0.5-0.4,0.6c-0.5,0.6-1.6-0.1-1.1-0.8
				c0.1-0.1,0.1-0.2,0.2-0.3c0.3-2.1,0.7-6.3-2.3-6c-3.2,0.3-3.7,5-3.7,7.3c0.1,4.8,1.5,9.7,3.6,14.1c3.1-3.1,6.1-6.4,8.9-9.7
				C155.4,173.5,160.1,167.8,155,166.6z"/>
			<path class="st1" d="M148.9,168c0.2-2.2,0.1-5-1.5-5.8c-1.9-1-4.6,0.8-5.7,2.2c-2.1,2.7-1.8,6.6-1.4,9.8
				c0.6,4.3,1.9,8.4,3.8,12.3c0.2,0.4,0.8,0.4,1.1,0.1c3.3-3.4,6.5-6.8,9.6-10.4c1.8-2.1,4.2-4.8,3.7-7.9
				C157.4,162.9,152,165.2,148.9,168z M153.8,175.3c-2.9,3.3-5.9,6.6-8.9,9.7c-2-4.4-3.5-9.3-3.6-14.1c0-2.4,0.5-7,3.7-7.3
				c3-0.3,2.6,3.9,2.3,6c-0.1,0.1-0.2,0.2-0.2,0.3c-0.5,0.7,0.6,1.3,1.1,0.8c0.2-0.1,0.4-0.3,0.4-0.6c0,0,0,0,0,0
				c1.4-1.9,3.9-4.1,6.4-3.5C160.1,167.8,155.4,173.5,153.8,175.3z"/>
		</g>
		<g>
			<path class="st0" d="M193.5,190.3c0.5-3,1.4-6.2,1.5-9.3c0-2.4-0.5-5.6-3.4-4c-3.1,1.8-3.6,7.1-2.9,10.2c0.1,0.5-0.3,0.9-0.7,0.9
				c-0.3,0.1-0.7,0.1-0.9-0.2c-1.6-2.3-5.9-3.7-8.5-1.9c-3.7,2.6,0.1,5.4,2.1,6.2c1.1,0.4,2.2,0.6,3.3,1c3.1,1,5.9,2.6,8.2,4.8
				C192.6,195.5,193.1,192.9,193.5,190.3z"/>
			<path class="st1" d="M192.1,200c0.3,0.4,1.1,0.2,1.1-0.3c0.9-5.4,1.9-10.7,2.8-16.1c0.5-3,0.4-6.1-1.7-8.5
				c-0.2-0.2-0.4-0.2-0.7-0.2c-5.1,1.3-7.2,6.3-6.6,11.2c-3.4-2.7-10.6-3.6-11.4,1.7c-0.4,2.7,1.9,4.7,4.1,5.6
				c2.2,0.9,4.5,1.2,6.6,2.3C188.7,196.7,190.5,198.2,192.1,200z M180.7,192.2c-2-0.8-5.8-3.7-2.1-6.2c2.6-1.8,6.9-0.5,8.5,1.9
				c0.2,0.3,0.6,0.4,0.9,0.2c0.4,0,0.9-0.3,0.7-0.9c-0.7-3.1-0.2-8.4,2.9-10.2c2.9-1.7,3.4,1.6,3.4,4c0,3.1-1,6.3-1.5,9.3
				c-0.4,2.6-0.9,5.1-1.3,7.7c-2.3-2.3-5-3.9-8.2-4.8C182.9,192.8,181.8,192.6,180.7,192.2z"/>
		</g>
		<g>
			<path class="st0" d="M314.1,219.3c-3.3-0.2-7.2,2.7-8.8,5.4c-0.4,0.6-1.2,0.3-1.3-0.3c-0.3-3-1.6-9-6.3-6.7
				c-2.6,1.2-2.9,4.8-2.8,7.2c0,3.9,0.5,7.9,2.6,11.2c4.7-3.2,9.7-5.9,14.8-8.3c0.9-0.4,1.9-0.8,2.8-1.4c1.1-0.7,2-1.7,2.5-2.9
				C317.6,220.8,316.4,219.4,314.1,219.3z"/>
			<path class="st1" d="M313.1,218c-3,0.3-6,2.2-8,4.6c-0.3-2.3-1-4.5-3-5.9c-2.2-1.5-4.9-0.9-6.6,1c-2.2,2.4-2.1,6.1-1.9,9.1
				c0.2,3.7,0.9,7.3,3,10.4c0.2,0.3,0.5,0.4,0.8,0.3c0.1,0,0.3,0,0.5-0.1c4.7-3.2,9.6-5.9,14.7-8.3c2.9-1.3,6.5-3.1,6.4-6.8
				C319,219.3,315.9,217.7,313.1,218z M315.1,226.4c-0.9,0.6-1.8,1-2.8,1.4c-5.2,2.4-10.1,5.1-14.8,8.3c-2.1-3.4-2.5-7.3-2.6-11.2
				c0-2.4,0.3-6,2.8-7.2c4.7-2.3,6,3.7,6.3,6.7c0.1,0.6,0.9,1,1.3,0.3c1.6-2.7,5.5-5.6,8.8-5.4c2.3,0.1,3.5,1.4,3.4,4.1
				C317,224.7,316.2,225.7,315.1,226.4z"/>
		</g>
		<g>
			<path class="st0" d="M99.7,198.9c-4.4,1.9-3.6,7.3-2,10.8c0.1,0.1,0.3,0.2,0.4,0.4c0.6,0.6-0.3,1.6-1,1c0,0,0,0,0,0
				c-0.2,0-0.4-0.1-0.5-0.4c0,0,0,0,0,0c-2.5-1.6-7.7-1-8.7,1.8c-1.6,4.1,2.7,6,6,6.8c3.4,0.8,7.1,1,10.3,2.3
				c-1.1-4.8,1.7-9.9,2.1-14.7C106.5,203.1,104.8,196.7,99.7,198.9z"/>
			<path class="st1" d="M103.7,197.6c-2.7-1.2-5.8,0-7.4,2.5c-1.7,2.7-1.5,5.8-0.5,8.7c-4.1-1.4-10.1,0.8-9.8,5.7
				c0.5,7.9,14,6.2,18.9,9c0.5,0.3,1.2-0.2,1-0.8C103.1,216.1,113,201.9,103.7,197.6z M104.1,221.5c-3.2-1.3-7-1.5-10.3-2.3
				c-3.2-0.7-7.5-2.6-6-6.8c1.1-2.9,6.2-3.4,8.7-1.8c0,0,0,0,0,0c0.1,0.2,0.3,0.3,0.5,0.4c0,0,0,0,0,0c0.6,0.6,1.6-0.4,1-1
				c-0.1-0.1-0.3-0.2-0.4-0.4c-1.5-3.5-2.3-9,2-10.8c5.1-2.2,6.8,4.2,6.5,7.9C105.8,211.6,103,216.7,104.1,221.5z"/>
		</g>
	</g>
</g>
</svg>
