<?xml version="1.0" encoding="utf-8"?>
<!-- Generator: Adobe Illustrator 23.0.5, SVG Export Plug-In . SVG Version: 6.00 Build 0)  -->
<svg version="1.1" id="OBJECTS" xmlns="http://www.w3.org/2000/svg" xmlns:xlink="http://www.w3.org/1999/xlink" x="0px" y="0px"
	 viewBox="0 0 500 500" style="enable-background:new 0 0 500 500;" xml:space="preserve">
<style type="text/css">
	.st0{fill:#EE5778;}
	.st1{fill:#1B262C;}
	.st2{fill:#FFFFFF;}
</style>
<g>
	<g>
		<g>
			<path class="st0" d="M197.2,146.6c-3.4-1.8-5.1,1.9-5.9,4.3c-1.2,3.6-1.4,7.4-0.8,11.1c0.1,0.3-0.1,0.6-0.4,0.7
				c-0.2,0.5-1,0.5-1.3-0.1c-1.5-3.5-8.7-7-11.9-3.9c-2.8,2.7-0.5,5.8,2.2,7.3c1.5,0.8,3.1,1.4,4.7,2c5.9,2.3,12.1,3.9,18.2,5.5
				c-0.5-6.7-1.1-13.5-1.9-20.1C199.7,151.3,199.4,147.8,197.2,146.6z"/>
			<path class="st1" d="M197.5,145.3c-7.3-3.7-8.7,9.3-8.5,15.1c-1.9-2.5-5.2-3.9-8.3-4.1c-3.2-0.2-7,1.8-6.7,5.5
				c0.5,4.6,6.1,6.3,9.8,7.7c6.1,2.3,12.3,3.9,18.6,5.5c0.4,0.1,0.9-0.2,0.8-0.6c-0.4-6.1-1-12.1-1.7-18.2
				C201.2,152.6,201.3,147.2,197.5,145.3z M183.7,168.1c-1.6-0.6-3.2-1.2-4.7-2c-2.7-1.5-4.9-4.7-2.2-7.3c3.2-3.1,10.5,0.4,11.9,3.9
				c0.3,0.6,1.1,0.5,1.3,0.1c0.2-0.1,0.4-0.4,0.4-0.7c-0.6-3.7-0.4-7.5,0.8-11.1c0.8-2.4,2.5-6.1,5.9-4.3c2.2,1.2,2.5,4.6,2.8,6.8
				c0.9,6.7,1.4,13.4,1.9,20.1C195.8,172,189.6,170.3,183.7,168.1z"/>
		</g>
		<g>
			<path class="st0" d="M153.7,200.3c-2.8-0.1-5.3,2-7,4c-3.1,3.6-4.4,8.3-4,12.9c0,0.3-0.1,0.5-0.3,0.6c-0.1,0.5-1.1,0.7-1.3,0
				c-1.2-2.8-5.9-8.2-9.4-4.9c-3.2,3-0.3,7.3,2,9.7c3.9,4,8.6,7.1,13.5,9.5c1.7-4.1,3.5-8.1,5.4-12.1c1.9-4.1,5.3-8.6,5.7-13.2
				C158.6,203.8,157.2,200.4,153.7,200.3z"/>
			<path class="st1" d="M146.4,202.6c-3.3,3.5-5,8.1-5.1,12.8c-1.5-2.5-4-4.6-7-4.8c-3-0.2-5.1,2.2-5.4,5c-0.4,3.8,2.6,6.9,5.2,9.2
				c3.9,3.5,8.3,6.4,13,8.7c0.4,0.2,0.8,0,1-0.4c2.9-7,6.3-13.8,9.6-20.7c1.8-3.7,3.2-8.9-0.3-12.1
				C154.1,197.3,149.1,199.8,146.4,202.6z M158.3,206.8c-0.5,4.6-3.8,9.1-5.7,13.2c-1.9,4-3.7,8-5.4,12.1c-4.9-2.4-9.7-5.5-13.5-9.5
				c-2.3-2.4-5.2-6.7-2-9.7c3.5-3.3,8.2,2.1,9.4,4.9c0.3,0.7,1.2,0.5,1.3,0c0.2-0.1,0.3-0.3,0.3-0.6c-0.3-4.7,1-9.3,4-12.9
				c1.7-2,4.2-4,7-4C157.2,200.4,158.6,203.8,158.3,206.8z"/>
		</g>
		<g>
			<path class="st0" d="M258.5,127.7c-1.7,0.8-2.9,2.6-4,4.1c-1.6,2-3,4-3.9,6.4c-0.1,0.2-0.3,0.4-0.5,0.4c-0.3,0.2-0.9,0.1-1-0.4
				c-0.7-2.3-1.8-4.3-3.4-6c-0.6-0.7-1.8-1.9-2.5-2.2c-2.6-1-4.1,0.2-4.6,2.8c-0.7,3.5,0.4,7.7,1.6,11c2.5,6.7,7.2,12.3,12.4,16.9
				c1.5-7,3.9-13.8,7.2-20.2c0.9-1.8,2-3.6,2.7-5.5c0.3-0.9,0.6-1.8,0.8-2.8C263.6,129.5,261.6,126.3,258.5,127.7z"/>
			<path class="st1" d="M258.2,126.4c-3.5,1.5-6.7,6.4-8.4,10.1c-1.4-3.4-4.1-7.6-7.7-8.4c-4.6-1-5.4,4.7-5.2,7.9
				c0.7,10.7,7.6,19.7,15.5,26.5c0.4,0.3,1,0.2,1.1-0.3c1.2-6.1,3.1-12.1,5.7-17.7c2-4.4,5.8-9.2,5.4-14.3
				C264.3,126.8,261.3,125.1,258.2,126.4z M263.2,132.3c-0.2,0.9-0.4,1.9-0.8,2.8c-0.7,1.9-1.7,3.7-2.7,5.5
				c-3.3,6.4-5.7,13.2-7.2,20.2c-5.3-4.7-9.9-10.3-12.4-16.9c-1.2-3.3-2.4-7.5-1.6-11c0.5-2.6,2.1-3.8,4.6-2.8
				c0.8,0.3,1.9,1.5,2.5,2.2c1.6,1.8,2.7,3.8,3.4,6c0.2,0.5,0.7,0.6,1,0.4c0.2,0,0.4-0.2,0.5-0.4c0.9-2.4,2.3-4.4,3.9-6.4
				c1.1-1.4,2.4-3.3,4-4.1C261.6,126.3,263.6,129.5,263.2,132.3z"/>
		</g>
		<g>
			<path class="st0" d="M352.7,197.6c-3.5,0-6.5,3.5-8.3,6.6c0,0.2-0.1,0.3-0.3,0.4c-0.3,0.5-0.5,1-0.7,1.4
				c-0.4,0.8-1.5,0.1-1.2-0.7c0.2-0.4,0.5-0.9,0.7-1.3c-1.7-3.3-4.8-6.6-8.8-4.9c-4.1,1.7-4.1,6.9-3.1,10.4c1.7,6.3,5.4,12,9.8,16.8
				c3.5-6.3,8.1-11.7,12.3-17.6c1.1-1.6,2.1-3.2,2.7-5.1C356.4,201.1,356.1,197.6,352.7,197.6z"/>
			<path class="st1" d="M351.8,196.3c-3.4,0.5-6.1,3.3-8,6.3c-1.6-2.8-4-5.3-7.5-5.4c-3.3-0.1-5.9,2.5-6.8,5.5
				c-1.3,4.2,0.5,8.7,2.3,12.5c2.2,4.7,5.1,8.9,8.7,12.6c0.3,0.3,0.8,0.2,1-0.1c2.9-5.4,6.4-10.4,10.3-15.2c2.6-3.2,5.8-7,5.6-11.4
				C357.3,198,355,195.8,351.8,196.3z M355.7,203.5c-0.5,1.8-1.6,3.5-2.7,5.1c-4.1,6-8.7,11.3-12.3,17.6c-4.4-4.8-8.1-10.5-9.8-16.8
				c-1-3.6-0.9-8.8,3.1-10.4c4-1.6,7.2,1.7,8.8,4.9c-0.3,0.5-0.5,0.9-0.7,1.3c-0.4,0.8,0.8,1.4,1.2,0.7c0.2-0.4,0.5-0.9,0.7-1.4
				c0.1-0.1,0.2-0.3,0.3-0.4c1.8-3.1,4.8-6.6,8.3-6.6C356.1,197.6,356.4,201.1,355.7,203.5z"/>
		</g>
	</g>
	<g>
		<g>
			<g>
				<path class="st1" d="M127.5,320.3c0-0.2,0-0.3-0.2-0.5c-6.1-6.7-10.8-14.5-14.6-22.8c-4.1-8.9-6.8-18.2-10.4-27.3
					c-2.3-5.9-6.8-12.8-14-12.5c-2.6,0.1-5.2,1.3-6.8,3.4c-1.4,2-1.6,4.3-1.4,6.7c-2.6-3.9-5.7-7.5-9.2-10.7
					c-3.8-3.5-8.8-7.8-14.1-8.7c-4.1-0.7-8.2,1.4-9,5.7c-0.7,3.9,1.2,7.2,3.7,10c-7.6-3.4-16-4.8-24.3-4.1
					c-8.2,0.7-18.6,3.4-24.4,9.7c-4.5,4.8-4.1,13.5,3.5,14.4c4.8,0.6,10.2-1.4,14.9-2c5.6-0.7,11.2-1,16.8-0.9
					c-4.7,4.3-7.4,10.2-2.8,16c5,6.3,13.2,6.2,20.5,5.3c-3.8,4-4.8,10.1-1.3,14.9c4.5,6.1,13,5.2,19.6,3.9
					c8.4-1.7,16.2-5.3,24.6-6.8c10.4-1.9,19.1,1.6,27.9,7C127.2,321.7,127.8,320.8,127.5,320.3z M107.6,312.4
					c-7-0.5-13.9,1.5-20.5,3.6c-7.1,2.2-14.3,4.8-21.8,4.6c-4.4-0.1-8.5-1.6-10.6-5.7c-2.4-4.6-0.6-10,3.5-13
					c0.5-0.3,0.4-1.3-0.3-1.2c-6.7,0.9-14.7,1.9-20.1-3.1c-2.4-2.2-4.1-5.4-3.5-8.7c0.7-3.5,3.4-6,6.1-8.2c0.5-0.4,0.1-1.1-0.5-1.1
					c-9-0.3-17.9,0.4-26.7,2.2c-4,0.8-9.7,1.9-11.5-3c-1.8-4.7,1.9-8.9,5.6-11.3c13.8-8.9,32.6-8.7,46.9-1.1c0.7,0.4,1.3-0.5,0.8-1
					c-3.1-3.2-6.9-7.3-5.5-12.1c2-6.7,10-3.5,13.9-0.9c7.1,4.7,13,11,17.4,18.3c0.4,0.7,1.4,0.2,1.2-0.5c-0.8-4.6-0.8-9.8,4.6-11.3
					c3.7-1,7.5,0.8,10,3.5c2.9,3.1,4.4,7.2,5.8,11.2c1.4,3.8,2.7,7.5,4,11.3c4.3,11.9,9.8,23.6,17.9,33.4
					C119.1,315.4,113.6,312.9,107.6,312.4z"/>
				<path class="st1" d="M102.3,273.6c-1.4-4-2.9-8.1-5.8-11.2c-2.5-2.7-6.2-4.5-10-3.5c-5.4,1.5-5.4,6.7-4.6,11.3
					c0.1,0.7-0.8,1.2-1.2,0.5c-4.4-7.3-10.3-13.6-17.4-18.3c-3.9-2.6-11.9-5.8-13.9,0.9c-1.4,4.8,2.5,9,5.5,12.1
					c0.5,0.6-0.1,1.4-0.8,1c-14.3-7.6-33.1-7.8-46.9,1.1c-3.7,2.4-7.4,6.6-5.6,11.3c1.8,4.8,7.6,3.7,11.5,3
					c8.8-1.7,17.7-2.5,26.7-2.2c0.5,0,1,0.8,0.5,1.1c-2.7,2.2-5.4,4.6-6.1,8.2c-0.6,3.3,1,6.5,3.5,8.7c5.5,4.9,13.4,3.9,20.1,3.1
					c0.7-0.1,0.8,0.9,0.3,1.2c-4.1,3-5.8,8.4-3.5,13c2.1,4.1,6.2,5.6,10.6,5.7c7.5,0.2,14.7-2.4,21.8-4.6c6.6-2.1,13.5-4.1,20.5-3.6
					c6,0.5,11.5,2.9,16.6,5.9c-8.1-9.8-13.6-21.5-17.9-33.4C105,281.2,103.7,277.4,102.3,273.6z"/>
			</g>
			<path class="st2" d="M102.5,299.5c-6.1-7.3-7.9-17.6-8.6-26.9c-0.1-0.9-1.4-0.9-1.3,0c0.7,8.5,2.2,17.6,6.9,24.8
				c-6.6-4.6-13.5-8.7-20.6-12.4c0-0.1-0.1-0.1-0.2-0.2c-9.3-7.4-15.5-18.4-19.1-29.6c-0.3-0.8-1.6-0.5-1.3,0.4
				c3.2,10,8.4,19.9,16.1,27.3c-13.7-6.6-28.3-11.4-43.8-13.8c-0.8-0.1-1.2,1.2-0.4,1.3c13.4,2.1,26.4,5.9,38.7,11.3
				c-7.6-1.3-15.4-0.4-22.6,2.8c-0.8,0.3-0.1,1.5,0.7,1.2c9.3-4.1,19.7-4.2,29.2-0.6c0.1,0,0.1,0,0.2,0c0.4,0.2,0.7,0.4,1.1,0.6
				c0.1,0.1,0.2,0.2,0.3,0.2c0.2,0.1,0.3,0.2,0.5,0.2c2,1,3.9,2,5.8,3.1c6.1,3.4,11.9,7.2,17.5,11.3c0,0,0.1,0.1,0.1,0.1
				c0.1,0.1,0.2,0.2,0.4,0.2c2.6,1.9,5.2,3.9,7.7,5.9c-4.5-1.5-9.3-1.7-14.2-1.9c-7.4-0.3-14.8,0.5-21.6,3.6
				c-0.8,0.4-0.1,1.5,0.7,1.2c6.6-3,13.7-3.7,20.9-3.5c6.1,0.2,12.2,0.5,17.6,3.6c0.1,0.1,0.2,0.1,0.3,0.1
				c4.3,3.6,8.5,7.4,12.6,11.3c0.2,0.1,0.4,0.2,0.6,0.4c0.5,0.3,1-0.2,1-0.7c-7.9-7.5-16.2-14.5-25-20.8
				C102.6,299.7,102.5,299.6,102.5,299.5z"/>
		</g>
		<g>
			<g>
				<path class="st1" d="M496.4,272.7c-5.5-6.9-14.5-10-23-11.1c-9.6-1.2-19.2,0.1-28.2,3.6c2.3-3.9,4.4-8.6,3.1-13.1
					c-1.5-5.1-5.6-5.1-9.7-3c-9.2,4.6-16.6,12.2-21.4,21.2c-0.3-5.3-1.9-11.7-8.1-12c-3.3-0.1-6.1,2.8-8.1,5.1
					c-2.6,3-4.7,6.5-6.3,10.1c-3.4,7.7-5,16-7.9,23.8c-3.4,9.2-9,16.8-17.5,21.8c-0.6,0.4-0.2,1.2,0.3,1.2c0.1,0.1,0.3,0.1,0.5,0
					c9.8-3.5,20.3-4.6,30.7-3.8c9.9,0.8,19.3,4.3,29.2,5.2c6.3,0.6,16.9,1.8,19.1-6.1c1.7-6.2-2.6-11.1-7.5-14.3
					c4.5,0,9-0.2,13.5-0.8c3.6-0.5,8.4-0.7,10.7-4c4.6-6.4-1.2-13-6.2-17.1c9.9-0.2,19.1,4.2,29,4.6c2.9,0.1,9.6,0.4,11.1-2.8
					C501,278.6,498,274.7,496.4,272.7z M495,282.4c-4.6,1-9.3,0.4-13.8-0.5c-7.7-1.6-15.3-4.2-23.3-3.6c-0.5,0-1,0.8-0.5,1.1
					c2.7,2.1,5.6,4.3,7.3,7.4c2,3.5,1.9,8.7-2.1,10.8c-3.3,1.7-8,1.9-11.7,2.2c-4,0.4-8,0.4-12,0.3c-0.7,0-0.9,0.9-0.3,1.2
					c3.4,1.8,6.9,4.1,8.6,7.7c1.7,3.7,1.1,8.6-2.8,10.6c-3.8,2-9.7,1.3-13.8,0.9c-4.6-0.4-9.1-1.4-13.7-2.5
					c-14.4-3.4-29.1-4.2-43.3-0.1c4.1-3.1,7.7-6.8,10.3-11.3c3.8-6.4,5.7-13.6,7.8-20.7c2.1-7.1,4.5-14.3,9-20.2
					c2.7-3.5,7-8.1,11.5-4.8c3.7,2.8,3.7,7.8,3.6,12c0,0.6,1,1,1.2,0.3c3.6-7.7,9-14.4,15.9-19.3c3.5-2.5,11.8-8.7,14-1.6
					c1.4,4.8-1.6,9.8-4,13.8c-0.4,0.6,0.3,1.2,0.9,0.9c14.8-6.4,36.9-7.8,49.5,4.3C496.2,274.1,501.7,281,495,282.4z"/>
				<path class="st1" d="M493.5,271.5c-12.6-12.1-34.7-10.8-49.5-4.3c-0.6,0.2-1.3-0.3-0.9-0.9c2.4-3.9,5.4-9,4-13.8
					c-2.1-7.1-10.5-0.9-14,1.6c-6.9,4.9-12.3,11.6-15.9,19.3c-0.3,0.6-1.3,0.3-1.2-0.3c0.1-4.2,0.1-9.3-3.6-12
					c-4.5-3.3-8.8,1.3-11.5,4.8c-4.6,5.9-6.9,13.1-9,20.2c-2.1,7.1-4,14.3-7.8,20.7c-2.7,4.4-6.2,8.2-10.3,11.3
					c14.2-4.1,28.9-3.3,43.3,0.1c4.5,1.1,9,2.1,13.7,2.5c4.1,0.4,10,1.1,13.8-0.9c3.9-2,4.5-7,2.8-10.6c-1.7-3.6-5.1-5.9-8.6-7.7
					c-0.6-0.3-0.3-1.3,0.3-1.2c4,0.1,8,0.1,12-0.3c3.7-0.3,8.3-0.5,11.7-2.2c4-2,4.1-7.3,2.1-10.8c-1.7-3.1-4.6-5.3-7.3-7.4
					c-0.5-0.4,0-1.1,0.5-1.1c8-0.6,15.6,2,23.3,3.6c4.5,0.9,9.3,1.5,13.8,0.5C501.7,281,496.2,274.1,493.5,271.5z"/>
			</g>
			<path class="st2" d="M459.9,290c-13.1-5.7-27.8-6.6-41.4-2.5c14.1-10.3,30.5-18.8,48.4-15.3c0.8,0.2,1.2-1.1,0.4-1.3
				c-13.5-2.6-26.3,1.4-37.9,7.9c4-4.9,6.1-11.3,7.9-17.4c0.2-0.8-1-1.2-1.3-0.4c-2.4,7.9-5.1,16.3-12.3,21.2
				c-2.9,1.9-5.8,4-8.5,6.1c-7.3,5.6-14.3,11.7-21.7,17.2c7.3-8.3,12.3-18.6,13.2-29.8c0.1-0.9-1.3-0.9-1.3,0
				c-1.1,13.1-8.1,25.1-17.8,33.8c-0.1,0.1-0.1,0.1-0.2,0.2c-1.4,0.9-2.7,1.8-4.2,2.6c0,0,0,0-0.1,0c-0.1,0-0.2,0.1-0.3,0.2
				c-4.2,2.5-8.6,4.7-13.3,6.4c-0.1,0.1-0.3,0.2-0.4,0.3c-0.6,0.3-0.3,1.1,0.2,1.2c5.1-1.8,9.8-4.1,14.3-6.9
				c13.3-4.7,27.5-6.1,41.5-4.3c0.9,0.1,0.8-1.2,0-1.3c-12.5-1.6-25-0.6-37.1,2.9c8.2-5.5,15.8-12,23.5-18.2c1.2-1,2.4-1.9,3.7-2.9
				c0.1,0.1,0.3,0.1,0.4,0c14.1-5,29.6-4.5,43.3,1.5C460,291.5,460.7,290.3,459.9,290z"/>
		</g>
	</g>
	<g>
		<path class="st1" d="M103.9,331.6c-10.7,19.3-12.5,42.8-4.8,63.5c0.3,0.8,1.6,0.5,1.3-0.4c-7.6-20.4-5.9-43.4,4.6-62.5
			C105.5,331.6,104.4,330.9,103.9,331.6z"/>
		<path class="st1" d="M87,360.5c-3.2,12.2-1.3,25.1,5.4,35.8c0.5,0.7,1.6,0.1,1.2-0.7c-6.5-10.4-8.4-22.9-5.3-34.7
			C88.5,360.1,87.3,359.7,87,360.5z"/>
		<path class="st1" d="M76.2,57.3c-5.7,17.4-5.7,36.1,0,53.5c0.3,0.8,1.6,0.5,1.3-0.4c-5.6-17.1-5.6-35.6,0-52.7
			C77.7,56.8,76.4,56.5,76.2,57.3z"/>
		<path class="st1" d="M66,86.9c-1.7,8.4-0.2,16.9,4.3,24.2c0.5,0.7,1.6,0.1,1.2-0.7c-4.3-7-5.8-15.1-4.2-23.2
			C67.4,86.4,66.1,86,66,86.9z"/>
		<g>
			<g>
				<path class="st0" d="M162.1,51.3C148.8,57,135.6,67.5,131.7,82c-0.2,0.8-1.5,0.5-1.3-0.4c1-3.6,2.5-7,4.5-10.2
					c2.3-3.5,5-6.8,8.2-9.7c0,0,0,0,0,0c-0.9-8-6.2-17-13-21.4c-3.3-2.1-7.6-3.7-11.6-4c-4.9-0.3-9.1,1.5-13.4,3.8
					C97,44.5,91.4,50.7,87.7,59.1c-3.5,8-5.2,16.9-5.6,25.6c-0.9,16.8,2.8,33.6,7.6,49.7c1.8,6.1,4,12.1,7.3,17.6
					c3.6,6.1,7.8,12.2,13.7,16.3c2,1.4,4.6,3.4,7.1,3.6c2.4,0.3,5.2-0.8,7.4-1.4c5.8-1.7,11.2-4.9,16.2-8.2
					c11.7-7.9,23.3-15.9,33-26.4c5.6-6,10.7-12.5,15.4-19.3c4.1-6.1,8.2-12.4,11-19.2c5-12.1,5.1-25.2,1.1-37.5
					C196.3,43.2,174.8,45.8,162.1,51.3z"/>
				<path class="st1" d="M204.2,63.8c-1.5-6.1-3.8-11.3-9.3-14.8c-6.4-4-14-3.6-21.1-2.4c-10.5,1.7-21.2,6.8-29.5,14.1
					c-1.9-13-13.4-25.9-27.2-25.7c-7.4,0.2-15.3,4.6-20.8,9.4c-6,5.2-9.7,12.9-12.1,20.4C78.8,82,80.2,100.6,84,118
					c3.3,15.1,7.6,29.6,16.9,42.1c3.9,5.2,8.7,10.2,14.9,12.6c4.1,1.6,10.3-0.8,14.1-2.5c6.1-2.7,11.7-6.5,17.1-10.4
					c6.6-4.7,13.4-8.9,19.5-14.4c12.9-11.5,24.1-25.9,32.3-41.1C205.6,91.6,207.6,77.8,204.2,63.8z M189.6,116.5
					c-4.6,6.8-9.8,13.3-15.4,19.3c-9.7,10.5-21.2,18.4-33,26.4c-5,3.4-10.4,6.6-16.2,8.2c-2.3,0.7-5.1,1.7-7.4,1.4
					c-2.5-0.3-5.1-2.2-7.1-3.6c-5.8-4.1-10-10.2-13.7-16.3c-3.3-5.5-5.5-11.5-7.3-17.6c-4.8-16-8.4-32.8-7.6-49.7
					c0.5-8.7,2.1-17.6,5.6-25.6c3.7-8.4,9.3-14.6,17.4-18.9c4.2-2.2,8.5-4.1,13.4-3.8c4,0.2,8.3,1.8,11.6,4
					c6.8,4.4,12.1,13.5,13,21.4c0,0,0,0,0,0c-3.1,2.9-5.9,6.2-8.2,9.7c-2,3.2-3.5,6.6-4.5,10.2c-0.2,0.8,1.1,1.2,1.3,0.4
					c4-14.5,17.1-25,30.4-30.7c12.7-5.5,34.2-8.1,39.6,8.5c4,12.3,3.9,25.5-1.1,37.5C197.8,104.1,193.8,110.4,189.6,116.5z
					 M189.6,116.5 M200.6,97.3"/>
				<g>
					<path class="st1" d="M158.9,293.6c-6.4-3.7-12.7-7.4-18-12.6c-5.8-5.8-8.8-13.6-11.5-21.1c-6.2-17.5-10.3-35.5-11-54.1
						c-0.4-10.9,0.2-21.9,1.9-32.7c0.1-0.8-1.2-1.2-1.3-0.4c-3,19.1-2.7,38.7,0.8,57.7c1.8,9.7,4.6,19.2,7.9,28.5
						c2.5,7.2,5.2,14.8,10.1,20.7c5.5,6.6,13.1,10.9,20.4,15.1C159,295.2,159.7,294,158.9,293.6z"/>
				</g>
			</g>
			<g>
				<g>
					<path class="st1" d="M225.9,239.6c0.6-4.3,4.8-7.3,4.5-11.9c-0.3-4.3-4.6-6.4-4.4-11c0.2-4.8,1.6-9.8-1.8-13.9
						c-3.4-4-8.8-4.6-13.7-4.9c-0.3,0-0.5-0.2-0.6-0.4c-8.3-9-22.9-4.8-32,0.5c-4.3,2.5-8,5.9-10.5,10.2c-2.6,4.7-2.6,9.4-2.9,14.6
						c-0.2,3.6-1.1,7.1-3.3,10c-2.7,3.6-9.9,6.5-8.3,12c1.2,4.2,6.9,5.8,7.7,9.9c0.7,3.1-3.3,6.1-4.7,8.6
						c-5.9,10.9,11.1,18.1,18.6,20.9c0.1,0,0.2,0.1,0.2,0.1c7.4,2.5,15.1,3.3,22.8,2.4c7.6-0.9,14.4-4.1,21-8
						c0.1-0.1,0.2-0.1,0.2-0.1c7.2-4,15.8-10.4,15.5-19.4c-0.2-5-2.9-7.9-5.9-11.5C226.5,245.5,225.5,242.6,225.9,239.6z"/>
					<path class="st1" d="M232.5,250.3c-1.3-1.6-2.9-2.9-4-4.7c-2-3.2-1.4-6.6,0.3-9.8c2-3.6,4-6.9,2.2-11.1c-1.1-2.6-3.4-4-3.7-7
						c-0.2-2.6,0.6-5.2,0.6-7.7c-0.3-9.7-8.6-12.8-17-13.3c-7-7.7-18.3-6.2-27.2-2.8c-8.8,3.4-17.3,9.6-19.7,19.2
						c-1.5,5.6,0.2,11.8-2.7,17.1c-2.3,4.4-7.7,6.2-9.5,10.8c-1.8,4.4,1.6,7.8,4.6,10.6c1.4,1.3,3.3,2.8,2.6,5.1
						c-0.3,0.9-1.2,1.9-1.8,2.7c-1.4,1.9-2.9,3.7-3.4,6.1c-2.4,11.1,12.3,17.2,20.4,20.1c0.1,0.1,0.1,0.1,0.2,0.1
						c7.9,2.7,16.1,3.4,24.4,2.3c7.2-1,13.8-4,20-7.7c0.1,0,0.1,0,0.2-0.1c7-3.8,15.6-9.8,16.7-18.4
						C236.1,257.8,235,253.5,232.5,250.3z M218.8,278.7c-0.1,0-0.2,0-0.2,0.1c-6.5,3.9-13.3,7.1-21,8c-7.7,0.9-15.5,0.1-22.8-2.4
						c-0.1-0.1-0.1-0.1-0.2-0.1c-7.6-2.7-24.5-9.9-18.6-20.9c1.4-2.5,5.4-5.4,4.7-8.6c-0.9-4.1-6.5-5.8-7.7-9.9
						c-1.6-5.5,5.5-8.4,8.3-12c2.3-2.9,3.1-6.4,3.3-10c0.3-5.2,0.3-9.9,2.9-14.6c2.4-4.3,6.2-7.7,10.5-10.2c9.2-5.4,23.8-9.5,32-0.5
						c0.1,0.2,0.3,0.4,0.6,0.4c4.9,0.2,10.4,0.9,13.7,4.9c3.4,4.1,2.1,9.1,1.8,13.9c-0.2,4.6,4,6.7,4.4,11c0.4,4.5-3.9,7.6-4.5,11.9
						c-0.4,3,0.6,5.9,2.5,8.2c3,3.6,5.7,6.4,5.9,11.5C234.7,268.3,226,274.7,218.8,278.7z"/>
				</g>
				<g>
					<g>
						<path class="st2" d="M161.1,300.8c-0.1,0.1-0.3,0.1-0.4,0c-9.8-3.2-18.2-9.3-24.3-17.6c-1.3,0.3-2.5,0.5-3.2,0.6
							c-0.8,0.2-1.2-1.1-0.4-1.3c1.1-0.2,2.2-0.5,3.2-0.7c0.2-0.1,0.4-0.2,0.7-0.2c0.6-0.1,1.2-0.3,1.7-0.4c1.4-0.4,4.1-0.9,5-2
							c3.5-4.4-1-4.5-2.8-4.5c-0.9,0-1.9,0.1-2.8,0.3c-1.9,0.3-3.7,0.7-5.5,1.3c-0.8,0.3-1.2-1-0.4-1.3c1.5-0.5,4.4-1.4,7.2-1.7
							c0.1,0,0.1-0.1,0.2-0.1c1.5-0.3,4.6-1,5.3-2.6c0.9-2.3-3.5-2.7-4.8-2.7c-3.5,0-7.3,1.8-10.5,2.9c-0.8,0.3-1.2-1-0.4-1.3
							c1.9-0.6,4.3-1.6,6.6-2.2c0.1-0.1,0.2-0.3,0.4-0.3c1.7-0.6,6.7-2.2,3.1-4.9c-1.1-0.9-4.3-0.3-5.6-0.1c-0.5,0.1-1,0.3-1.6,0.4
							c-0.3,0.1-0.5,0.2-0.7,0.3c-0.1,0.1-0.2,0.1-0.4,0.1c-2.1,0.8-4,2-5.9,3.2c-0.7,0.5-1.4-0.7-0.7-1.2c2-1.4,4.7-2.9,7.5-3.9
							c0.9-0.5,1.8-1,2.7-1.6c1.3-1,5.2-3.8,0.6-4.8c-2.9-0.6-7.1,1-9.6,2.4c-6,3.3-9.8,9.6-10.1,16.4c-0.4,10.2,3.5,21.1,8.4,29.8
							c5.2,9.3,13.1,17.6,23.5,20.7c10.7,3.1,24.2-0.7,32.2-8.4c1.5-1.5,2.8-3.1,3.9-4.9C180,302.8,169.2,299.6,161.1,300.8z"/>
						<path class="st0" d="M189.7,271.2c-4.9-4.4-11.3-5.4-16-0.2c-3.8,4.2-6.1,10.1-7.8,15.4c-1.3,4.3-1.6,9-4,12.9
							c8.3-0.8,18.5,2.4,22.5,9.9c4.3-7.3,6.1-16.4,7-24.3c0-0.1,0-0.1,0.1-0.2C191.6,280,193.7,274.8,189.7,271.2z"/>
					</g>
					<path class="st1" d="M191.2,270.8c-3.5-3.6-9.3-6.3-14.2-4.1c-5,2.3-7.9,8.1-10,12.9c-1.4,3.1-2.5,6.2-3.3,9.5
						c-0.9,3.5-1.3,7.1-3.4,10.2c-9-3.1-16.9-8.8-22.7-16.4c4.2-1,9.2-2.7,8.6-6.3c-0.3-1.9-1.7-2.9-3.5-3.2
						c2.6-1.3,5.3-3.3,2.8-5.2c-1.8-1.4-3.9-1.8-6.1-1.6c2.2-1.6,3.9-3.8,0.7-5.5c-1.4-0.7-2.9-1-4.4-0.9c2.7-1.8,4.8-4.3,1.9-6.2
						c-1.9-1.2-5-0.6-7-0.2c-3.1,0.6-6.1,2-8.6,3.9c-10.4,8.1-8.6,21.8-5.1,33c3.6,11.6,10.3,23.2,20.6,30.1
						c11.1,7.5,24.4,6.9,36,0.7c13.1-7,17.5-22.6,19.1-36.4c0-0.1,0.1-0.2,0.1-0.3C192.9,280,194.9,274.6,191.2,270.8z M179.7,315.5
						c-7.9,7.8-21.5,11.5-32.2,8.4c-10.5-3.1-18.3-11.4-23.5-20.7c-4.9-8.7-8.8-19.7-8.4-29.8c0.2-6.8,4.1-13.1,10.1-16.4
						c2.5-1.3,6.7-3,9.6-2.4c4.6,1,0.7,3.8-0.6,4.8c-0.9,0.6-1.8,1.1-2.7,1.6c-2.8,0.9-5.5,2.5-7.5,3.9c-0.7,0.5,0,1.6,0.7,1.2
						c1.9-1.2,3.8-2.4,5.9-3.2c0.1,0,0.2,0,0.4-0.1c0.2-0.1,0.4-0.2,0.7-0.3c0.5-0.2,1-0.3,1.6-0.4c1.3-0.3,4.5-0.8,5.6,0.1
						c3.6,2.7-1.4,4.3-3.1,4.9c-0.2,0.1-0.3,0.2-0.4,0.3c-2.4,0.7-4.7,1.6-6.6,2.2c-0.8,0.3-0.5,1.6,0.4,1.3c3.3-1.1,7-2.9,10.5-2.9
						c1.3,0,5.7,0.3,4.8,2.7c-0.6,1.6-3.8,2.3-5.3,2.6c-0.1,0-0.2,0.1-0.2,0.1c-2.9,0.3-5.8,1.2-7.2,1.7c-0.8,0.3-0.5,1.6,0.4,1.3
						c1.8-0.6,3.6-1.1,5.5-1.3c0.9-0.1,1.8-0.3,2.8-0.3c1.8,0,6.3,0.1,2.8,4.5c-0.9,1.1-3.6,1.6-5,2c-0.6,0.2-1.2,0.3-1.7,0.4
						c-0.2-0.1-0.5,0-0.7,0.2c-1.1,0.2-2.2,0.5-3.2,0.7c-0.8,0.2-0.5,1.5,0.4,1.3c0.7-0.2,1.9-0.4,3.2-0.6
						c6.1,8.3,14.6,14.3,24.3,17.6c0.2,0.1,0.3,0,0.4,0c8.1-1.2,18.9,2,22.5,9.8C182.5,312.4,181.2,314,179.7,315.5z M184.5,309.3
						c-4-7.6-14.3-10.8-22.5-9.9c2.3-3.9,2.6-8.6,4-12.9c1.6-5.3,4-11.2,7.8-15.4c4.7-5.2,11.1-4.3,16,0.2c4,3.6,1.9,8.9,1.9,13.6
						c0,0.1-0.1,0.1-0.1,0.2C190.5,292.9,188.7,302,184.5,309.3z"/>
				</g>
				<g>
					<path class="st0" d="M187.5,280.8c-2.4,14.4-7,33.6-20.5,41.7c0,0.3-0.2,0.6-0.6,0.6c-0.1,0-0.2,0-0.3-0.1
						c-1,0.6-2.1,1-3.2,1.5c-2.3,0.9-5.1,1.2-6.8,3.1c-1.7,1.8-1.9,4.6-1.7,7c0.3,4.5,2.1,9,4.3,13c4.7,8.1,12.2,14.1,20.9,17.5
						c4.6,1.8,9.6,2.8,14.5,3.2c4.9,0.4,10.7,0.6,15.4-1.3c4.6-1.9,8-6.9,10.7-10.9c2.7-4.1,5-8.4,6.8-12.9
						c7.9-19.6,7.2-41.2,4.4-61.7c-0.7-4.8-0.9-10.4-3.2-14.7c-3.5-6.6-9.6-3.7-14.7-0.9c-7.7,4.1-16,6.7-24.6,4.3
						c-0.5-0.1-0.3-0.6-0.1-1c-0.1,0-0.2,0.1-0.2,0.2c-0.1,0.5-0.5,1.1-0.6,1.6c-0.9,2.9-1.2,6-1.3,9
						C187,279.9,187.6,280.3,187.5,280.8z"/>
					<path class="st1" d="M232.9,326.6c2.2-12.6,1.9-25.7,0.5-38.3c-0.7-6.1-1.2-12.6-2.8-18.6c-1-3.7-3.3-7.9-7.6-8.4
						c-4.9-0.6-9.5,3.2-13.7,5.2c-6.4,3-13.3,4.3-20.2,2.4c-0.8-0.2-1.2,1.1-0.4,1.3c8.6,2.4,17-0.2,24.6-4.3
						c5.1-2.7,11.2-5.7,14.7,0.9c2.3,4.3,2.5,10,3.2,14.7c2.8,20.5,3.5,42.1-4.4,61.7c-1.8,4.5-4.1,8.9-6.8,12.9
						c-2.7,4-6.1,9-10.7,10.9c-4.6,1.9-10.4,1.7-15.4,1.3c-5-0.4-9.9-1.4-14.5-3.2c-8.7-3.4-16.2-9.4-20.9-17.5
						c-2.2-3.9-4-8.4-4.3-13c-0.2-2.4,0-5.1,1.7-7c1.7-1.9,4.5-2.2,6.8-3.1c1.1-0.4,2.2-0.9,3.2-1.5c0.1,0,0.2,0.1,0.3,0.1
						c0.4,0,0.6-0.3,0.6-0.6c13.5-8.1,18.2-27.3,20.5-41.7c0.1-0.8-1.1-1.2-1.3-0.4c-1.5,9.2-3.7,18.3-7.9,26.8
						c-2.2,4.3-5,8.4-8.7,11.6c-2.1,1.8-4.5,3.4-7.1,4.4c-2,0.8-4.2,1.1-6,2.3c-6.5,4.2-2.9,14.9-0.3,20.4
						c4,8.2,10.9,14.8,19.1,18.8c9,4.4,19.5,6,29.4,4.8c4.7-0.5,8.2-2.4,11.3-5.9c3.2-3.6,6-7.6,8.3-11.8c4.3-7.8,7-16.2,8.5-24.8
						C232.9,326.9,232.9,326.8,232.9,326.6z"/>
				</g>
				<g>
					<g>
						<path class="st1" d="M177.7,427.2c-6.7-1.8-12.8,4.5-13.1,10.8c0,0.1,0,0.2,0,0.2c-2.9,4.3-10,15.7-2.4,17.5
							c6.8,1.6,14.2-6.6,17.4-11.5C182.7,439.4,185.4,429.3,177.7,427.2z M177.2,445.3c-3,3.9-8,9.1-13.3,9.2
							c-8.3,0.2,0.5-13.6,2.4-16.4c0.3-0.4,0-0.8-0.3-0.9c0.9-5.4,7.3-11.7,12.9-8C184.5,432.8,180.1,441.5,177.2,445.3z"/>
						<path class="st2" d="M178.9,429.1c-5.6-3.7-12,2.6-12.9,8c0.3,0.1,0.6,0.5,0.3,0.9c-1.9,2.9-10.7,16.6-2.4,16.4
							c5.3-0.1,10.3-5.3,13.3-9.2C180.1,441.5,184.5,432.8,178.9,429.1z"/>
					</g>
					<g>
						<path class="st1" d="M218,434.4c-0.1-2.9-0.7-6.2-4.2-6.3c-2.2-0.1-4.6,1.1-6.6,1.9c-1.8,0.7-3.7,1.4-5.3,2.6
							c-3.3,2.5-4.4,6.6-5.3,10.4c-1.1,2.8-2.1,5.7-3.2,8.5c-0.9,2.5-2.2,5.1-2.3,7.8c-0.1,3,1.3,5.6,4.5,6.1
							c4.1,0.7,7.7-2.1,10.4-4.9c3.5-3.7,6.6-7.7,8.6-12.4C216.4,443.8,218.1,439.1,218,434.4z M216.2,438.9
							c-0.7,3.6-2.1,7.3-3.7,10.6c-1.6,3.2-3.8,6-6.2,8.7c-2.2,2.5-4.7,5.2-8.1,5.9c-3.3,0.7-5.9-1.3-5.8-4.7c0.1-2,0.9-3.9,1.6-5.7
							c1.2-3.3,2.5-6.6,3.7-9.8c0.1-0.1,0.1-0.2,0.1-0.3c0,0,0-0.1,0-0.1c0-0.1,0.1-0.2,0.1-0.3c0.1-0.1,0.1-0.3,0-0.4
							c0.6-2.7,1.4-5.7,3.3-7.8c2.4-2.6,6.1-3.7,9.3-4.7c0.8-0.3,2.3-0.9,3.1-0.7c1.3,0.4,2.3,1.9,2.7,3
							C217,434.4,216.6,437,216.2,438.9z"/>
						<path class="st2" d="M213.8,429.4c-0.7-0.2-2.3,0.5-3.1,0.7c-3.2,1.1-7,2.2-9.3,4.7c-1.9,2.1-2.7,5.1-3.3,7.8
							c0,0.1,0,0.2,0,0.4c0,0.1-0.1,0.2-0.1,0.3c0,0,0,0.1,0,0.1c0,0.1-0.1,0.2-0.1,0.3c-1.2,3.3-2.5,6.6-3.7,9.8
							c-0.7,1.8-1.5,3.8-1.6,5.7c-0.1,3.4,2.4,5.4,5.8,4.7c3.4-0.7,5.9-3.4,8.1-5.9c2.4-2.7,4.6-5.5,6.2-8.7c1.6-3.3,3-7,3.7-10.6
							c0.4-1.9,0.8-4.5,0.2-6.4C216.1,431.3,215.1,429.8,213.8,429.4z"/>
					</g>
				</g>
				<g>
					<path class="st2" d="M167,322.9c-7.6,1.7-15.2,3-22.9,3.8c-7.4,0.8-16.1-0.1-23,3.1c-12,5.6-17.4,19.8-18.7,32.2
						c-1.2,12,0,25.5,5.3,36.5c6,12.7,18.6,20,30.4,26.6c5.9,3.3,11.9,6.2,18.1,8.9c3.1,1.3,8.2,4.7,11.2,2c1.6-1.4,2.9-3.4,4-5.3
						c-5.7-3.5-11.1-7.4-16.5-11.3c-9-6.6-17.9-13.7-23.7-23.4c-6.5-10.9-8.3-23.2-4.7-35.5c2.5-8.7,8.8-17.4,16.4-22.3
						c10.5-6.6,22.5-7.6,34.4-9.3c0.8-0.1,1.2,1.2,0.4,1.3c-12.1,1.7-25.2,2.4-35.4,10c-8.3,6.2-13.9,15.3-15.7,25.4
						c-2.2,12.5,1.4,24.5,9,34.5c6.9,9.1,16.7,16,26,22.5c11.2,7.9,23,15,35.8,19.8c6.1-0.2,11.7-6.6,12.6-12.3
						c-9.7-5.4-18.8-12.1-25-21.5c-4.5-6.8-8.1-15.9-4.9-24c3.2-8.2,11.9-9.9,19.6-11.5c9.4-1.9,16.3-7.2,21.5-15.1
						c6.1-9.3,8.3-19.9,9.8-30.8C209.6,328.8,187.8,328.9,167,322.9z"/>
					<path class="st1" d="M231.8,325.9c-21.5,1.6-43.3,1.8-64.2-4.1c-0.1-0.1-0.3-0.2-0.6-0.2c-0.1,0-0.2,0-0.2-0.1
						c-0.3-0.1-0.6,0-0.7,0.3c-8.2,1.8-16.5,3.1-24.9,3.9c-6.8,0.6-14.1,0-20.4,2.8c-12,5.4-17.9,19.1-19.5,31.4
						c-1.7,12.5-0.5,26.7,4.8,38.3c6.1,13.5,19.3,21.3,31.8,28.2c7.2,4,14.7,7.6,22.3,10.7c2.3,1,5.2,1.9,7.5,0.3
						c2-1.4,3.6-4,4.9-6.1c7.8,4.8,15.9,9,24.5,12.3c0.1,0,0.2,0.1,0.3,0c0,0,0,0,0,0c6.7-0.1,13.1-7,14-13.4c0-0.1,0-0.2,0-0.3
						c0.2-0.3,0.2-0.7-0.2-0.9c-9.2-5.1-18-11.3-24.1-20c-5.2-7.4-9.8-18.3-4.3-26.8c5-7.7,16.7-6.7,24.3-10c6.9-2.9,12-8.4,16-14.7
						c6-9.4,7.9-20.2,9.4-31.2C232.5,326.2,232.1,325.9,231.8,325.9z M221.3,358c-5.2,7.9-12.1,13.2-21.5,15.1
						c-7.8,1.6-16.4,3.3-19.6,11.5c-3.1,8.1,0.4,17.1,4.9,24c6.1,9.4,15.3,16.1,25,21.5c-0.9,5.7-6.5,12.2-12.6,12.3
						c-12.8-4.9-24.6-12-35.8-19.8c-9.3-6.5-19.1-13.4-26-22.5c-7.6-10-11.2-22-9-34.5c1.8-10.1,7.4-19.2,15.7-25.4
						c10.2-7.6,23.3-8.3,35.4-10c0.8-0.1,0.5-1.4-0.4-1.3c-12,1.7-24,2.6-34.4,9.3c-7.7,4.9-14,13.6-16.4,22.3
						c-3.5,12.3-1.8,24.6,4.7,35.5c5.8,9.7,14.7,16.8,23.7,23.4c5.4,4,10.9,7.8,16.5,11.3c-1.2,1.8-2.5,3.9-4,5.3
						c-3.1,2.7-8.2-0.7-11.2-2c-6.2-2.7-12.2-5.6-18.1-8.9c-11.8-6.6-24.4-13.9-30.4-26.6c-5.2-11-6.5-24.4-5.3-36.5
						c1.3-12.4,6.7-26.6,18.7-32.2c6.9-3.2,15.6-2.3,23-3.1c7.7-0.8,15.4-2.1,22.9-3.8c20.8,6,42.6,5.9,64,4.3
						C229.6,338.1,227.4,348.7,221.3,358z"/>
				</g>
				<g>
					<g>
						<path class="st2" d="M229.5,383.1c-1.2-2.1-2.4-4.2-3.8-6.3c-0.8-0.2-0.4-1.5,0.4-1.3c3.6,0.9,6.7,3,10.2,4
							c0.4,0.1,3,1,3.4,0.5c1-1.2-0.7-2.3-1.4-2.8c-1.5-1.3-3.1-2.3-4.8-3.2c-0.2-0.1-0.3-0.2-0.3-0.4c-0.3-0.5,0.1-1.2,0.7-1
							c3.1,1,6.3,1.2,9.6,1.2c0.5,0,2.3-0.1,2.1-1.1c-0.1-0.3-1.9-1.3-2.3-1.5c-1.4-0.9-3-1.8-4.7-1.8c-0.8,0-0.8-1.1-0.3-1.3
							c0.1-0.2,0.3-0.3,0.5-0.3c2.6-0.3,5.1-0.7,7.7-1.1c0.9-0.2,2.1-0.3,3-0.6c1.5-0.5,1.2-1-0.1-1.6c-1.7-0.7-4.6-0.3-6.4-0.3
							c-2.2,0-4.4,0.1-6.6,0.3c-0.5,0-0.7-0.5-0.6-0.9c1.1-10.5,2.2-21.1,3.2-31.6c0.8-8.2,1-16.5,0.8-24.7c0,0,0,0,0,0
							c-9.3-0.6-18.6,0.2-27.7,2.3c0,20.2,0,40.4,0,60.6c0,0.1,0,0.2-0.1,0.3c0,0.1,0,0.1,0,0.2c-0.3,2.4-0.4,4.7-0.1,7.1
							c0.1,1.1,0.3,5.3,1.8,5.6c2.3,0.5,2.5-7.4,2.5-8.9c0-0.2,0.1-0.3,0.2-0.4c0.1-0.5,0.9-0.9,1.2-0.2c2.2,4.8,5.4,8.7,9.3,12.2
							c0.7,0.6,2.2,2.4,3.3,1.5C231.4,386.5,230,384,229.5,383.1z"/>
						<path class="st0" d="M212.3,289.1c0,6.3,0,12.6,0,18.9c9.1-2.1,18.3-2.8,27.6-2.2c-0.1-2-0.1-4-0.2-6
							c-0.5-10.4-0.4-21.3-3.7-31.2c-0.8-2.4-1.8-5.1-3.7-6.9c-2.5-2.4-5.8-2.5-9-1.6c-4.8,1.4-8.7,4.9-12.9,7.3
							c-0.3,0.2-0.4-0.1-0.6-0.3c0.8,3.9,1.2,8,1.5,12c0.2,2.7,0.9,6.3,0.5,9.4C212,288.5,212.3,288.7,212.3,289.1z"/>
					</g>
					<path class="st1" d="M252.5,364.8c-0.3-1.5-2.7-1.8-3.9-1.9c-3.7-0.3-7.5-0.2-11.2,0.1c1.2-11.9,2.6-23.8,3.5-35.7
						c0.9-12.2,0.4-24.5-0.3-36.7c-0.3-5.4-0.6-10.7-1.7-16c-0.9-4.4-2-9.7-5.1-13.2c-7.1-8.1-17.5,1.2-24.2,4.9
						c-0.7,0.4-0.1,1.6,0.7,1.2c4.3-2.4,8.1-6,12.9-7.3c3.2-0.9,6.5-0.8,9,1.6c1.9,1.8,2.9,4.5,3.7,6.9c3.3,10,3.2,20.9,3.7,31.2
						c0.1,2,0.2,4,0.2,6c-9.3-0.6-18.6,0.2-27.6,2.2c0-6.3,0-12.6,0-18.9c0-0.9-1.3-0.9-1.3,0c0,27,0,53.9-0.1,80.9c0,0,0,0,0,0.1
						c0,0,0,0.1,0,0.1c-0.5,3.2-0.4,6.4,0.2,9.7c0.3,2.1,0.7,4.5,3.1,5c2.8,0.6,3.3-5,3.5-8.5c1.5,2.8,3.4,5.4,5.6,7.7
						c1.4,1.4,4.2,4.9,6.4,4.9c1.8,0,2.5-1.9,2.3-3.5c-0.2-1.3-1.1-2.5-1.7-3.7c-0.8-1.5-1.7-2.9-2.6-4.3c2.6,1,5,2.3,7.7,3.2
						c1.5,0.5,4.6,1.5,5.9,0.1c1.7-1.8-1.1-4.3-3.8-6c1.5,0.2,3.1,0.3,4.6,0.3c1.4,0,4.3,0.6,5-1.2c0.6-1.4-0.8-2.4-1.9-3.1
						c-1.1-0.8-2.3-1.5-3.6-2.1c2.8-0.3,5.6-0.6,8.2-1.5C250.9,366.9,252.8,366.1,252.5,364.8z M249.6,366c-0.9,0.3-2,0.4-3,0.6
						c-2.6,0.4-5.1,0.8-7.7,1.1c-0.2,0-0.4,0.2-0.5,0.3c-0.6,0.2-0.5,1.3,0.3,1.3c1.7,0,3.3,1,4.7,1.8c0.3,0.2,2.2,1.2,2.3,1.5
						c0.2,1-1.6,1.1-2.1,1.1c-3.3,0-6.5-0.2-9.6-1.2c-0.6-0.2-1,0.5-0.7,1c0,0.2,0.1,0.3,0.3,0.4c1.7,0.9,3.3,2,4.8,3.2
						c0.7,0.6,2.4,1.6,1.4,2.8c-0.4,0.5-3-0.4-3.4-0.5c-3.5-1-6.6-3-10.2-4c-0.8-0.2-1.2,1-0.4,1.3c1.4,2,2.6,4.1,3.8,6.3
						c0.5,0.9,1.8,3.4,0.8,4.2c-1.1,0.8-2.6-0.9-3.3-1.5c-4-3.5-7.1-7.4-9.3-12.2c-0.3-0.6-1.1-0.3-1.2,0.2
						c-0.1,0.1-0.2,0.2-0.2,0.4c0,1.5-0.2,9.4-2.5,8.9c-1.5-0.3-1.7-4.5-1.8-5.6c-0.3-2.4-0.2-4.7,0.1-7.1c0-0.1,0-0.1,0-0.2
						c0.1-0.1,0.1-0.2,0.1-0.3c0-20.2,0-40.4,0-60.6c9.1-2.1,18.4-2.9,27.7-2.3c0,0,0,0,0,0c0.2,8.2,0,16.5-0.8,24.7
						c-1,10.6-2.1,21.1-3.2,31.6c-0.2,0.4,0,0.9,0.6,0.9c2.2-0.2,4.4-0.3,6.6-0.3c1.8,0,4.7-0.4,6.4,0.3
						C250.7,364.9,251.1,365.4,249.6,366z"/>
				</g>
				<g>
					<g>
						<path class="st2" d="M207.4,203c-6.1-1.7-13,0.9-18.5,3.6c-5.4,2.6-10.6,6.6-12.4,12.5c-1.9,6.3,0.5,12.8,2.7,18.7
							c0,0,0,0,0,0c2-0.7,4.2-0.2,6.1,1c0.7,0.4,0.1,1.6-0.7,1.2c-2.2-1.3-5.2-1.7-7,0.6c-1.2,1.5-1.1,3.7-0.6,5.5
							c1.1,4.4,6.3,5.6,9.4,2.5c0.4-0.4,1-0.1,1.1,0.4c1.8,1.6,4.1,3.1,5.6,5c1,1.2,1,1.9,1.1,3.5c0.2,5,0.4,10.1,0.6,15.1
							c3.5-1.1,7-2,10.7-2.6c0,0,0,0,0,0c0,0,0.1,0,0.1,0c1.4-0.4,0.3-8.3,0.4-9.5c0.1-1.5,0.5-2.6,1.8-3.4c1.8-1.2,4.2-1.7,6.2-2.4
							c3.1-1.2,5.7-2.8,7.5-5.7c5.9-9.9,0.8-24.2-3-33.9C216.4,209.8,212.9,204.5,207.4,203z"/>
						<path class="st1" d="M223.2,225.3c-2.3-8.2-5-19.2-13.7-23c-8.4-3.7-20.2,1.4-27,6.6c-3.9,3-6.9,7-7.7,11.9
							c-1,5.9,1.1,11.8,3.1,17.3c0,0.1,0.1,0.2,0.1,0.2c-0.1,0.1-0.3,0.2-0.4,0.3c-2.3,1.7-2.5,4.4-2.1,7c0.9,5.5,7,7.8,11.2,4.4
							c1.5,1.3,3.2,2.6,4.6,4.1c1.8,1.8,1.5,3.7,1.6,6.1c0.2,4.4,0.3,8.8,0.5,13.1c0,0.4,0.4,0.8,0.8,0.6c3.8-1.3,7.6-2.2,11.5-2.8
							c0,0,0.1,0,0.1,0c0,0,0,0,0.1,0c1-0.3,1.3-0.9,1.4-1.9c0.2-1.3,0.1-2.7,0.1-4c0-1.4-0.5-3.5-0.1-4.8c0.9-3.4,5.1-3.8,7.9-5
							c2-0.8,3.9-1.9,5.4-3.4C227.3,245.1,225.4,233.6,223.2,225.3z M213.9,254.5c-2,0.8-4.4,1.2-6.2,2.4c-1.3,0.9-1.6,1.9-1.8,3.4
							c-0.1,1.2,1,9.1-0.4,9.5c0,0-0.1,0-0.1,0c0,0,0,0,0,0c-3.6,0.6-7.2,1.4-10.7,2.6c-0.2-5-0.3-10.1-0.6-15.1
							c-0.1-1.6-0.1-2.3-1.1-3.5c-1.5-1.8-3.8-3.4-5.6-5c-0.1-0.5-0.7-0.8-1.1-0.4c-3.1,3.1-8.4,1.9-9.4-2.5c-0.4-1.8-0.6-4,0.6-5.5
							c1.8-2.3,4.8-1.9,7-0.6c0.7,0.4,1.4-0.7,0.7-1.2c-1.9-1.1-4.1-1.6-6.1-1c0,0,0,0,0,0c-2.2-5.9-4.6-12.4-2.7-18.7
							c1.8-5.9,7-9.9,12.4-12.5c5.4-2.7,12.4-5.3,18.5-3.6c5.5,1.5,9,6.9,11,11.9c3.8,9.7,8.9,24,3,33.9
							C219.6,251.7,217,253.3,213.9,254.5z"/>
					</g>
					<g>
						<path class="st1" d="M205.2,197.6c0-0.1-0.1-0.1-0.2-0.2c0.1-0.4-0.1-0.8-0.6-0.7c-10.6,0.9-21.5,5.1-29.2,12.7
							c-3.9,3.8-4.1,9.2-3.9,14.3c0.3,5.6,1.7,11.1,4,16.2c0.2,0.4,0.8,0.4,1,0.1c2.2-2.6,5.8-0.8,8.4,0c0.5,0.2,0.9-0.4,0.8-0.8
							c-0.5-2.5,4.3-3.8,5.7-4.9c1.4-1.1,2.5-2.4,3.3-4c0.9-1.6,1.3-3.3,1.4-5.1c0.1-1.6-0.2-3.3,0.3-4.9c0.5-1.5,1.6-2.4,2.8-3.3
							c3-2.3,6-4.1,7.5-7.9C208.2,205.2,207.5,201,205.2,197.6z M201.2,214c-2.6,1.9-5.7,3.5-6.3,7c-0.4,2.2,0.1,4.4-0.5,6.5
							c-0.7,2.5-2.3,4.8-4.5,6.2c-2.1,1.4-5.4,2-5.6,4.7c-2.7-0.9-5.9-2-8.2-0.1c-2-4.7-3.3-9.6-3.5-14.7c-0.1-2.6-0.1-5.4,0.5-8
							c0.6-2.9,2.3-4.8,4.5-6.7c7.4-6.2,16.7-9.9,26.3-10.9c0,0.1,0,0.1,0.1,0.2C207.6,203.6,206.4,210.2,201.2,214z"/>
						<path class="st1" d="M204,198.1c-9.6,0.9-18.9,4.6-26.3,10.9c-2.2,1.9-3.9,3.8-4.5,6.7c-0.6,2.6-0.6,5.4-0.5,8
							c0.2,5.1,1.5,10.1,3.5,14.7c2.3-1.9,5.4-0.9,8.2,0.1c0.2-2.7,3.5-3.3,5.6-4.7c2.2-1.5,3.8-3.7,4.5-6.2
							c0.6-2.2,0.1-4.4,0.5-6.5c0.6-3.5,3.7-5.1,6.3-7c5.2-3.8,6.4-10.3,2.8-15.7C204,198.2,204,198.1,204,198.1z"/>
					</g>
					<g>
						<path class="st1" d="M204.6,231.7c-0.2-0.1-0.4-0.2-0.6-0.1c-0.1,0-0.1,0-0.2,0c-0.5,0-0.7,0.4-0.6,0.8
							c-0.2,0.4-0.3,0.9-0.1,1.3c0.3,0.7,1.2,1,1.9,0.6c0.6-0.3,0.8-1.1,0.6-1.7C205.4,232.1,205,231.8,204.6,231.7z"/>
						<path class="st1" d="M219.8,227.6c-0.3-0.1-0.5,0-0.6,0.2c-0.4,0.2-0.7,0.7-0.7,1.3c0.1,0.6,0.7,1.1,1.3,1
							c0.6,0,1.2-0.6,1.2-1.2C220.9,228.2,220.4,227.7,219.8,227.6z M219.8,228.9L219.8,228.9L219.8,228.9
							C219.8,228.9,219.8,228.9,219.8,228.9z M219.8,228.9L219.8,228.9L219.8,228.9L219.8,228.9z"/>
						<path class="st1" d="M215.2,232c0.7,0.9,1.4,1.9,1.9,3c0.3,0.7,0.8,1.4,0.1,2c-0.5,0.5-1.5,0.7-2.2,0.6
							c-0.9-0.1-0.9,1.3,0,1.3c1.5,0.1,3.9-0.8,3.9-2.5c0-1.9-1.6-4-2.7-5.4C215.6,230.4,214.7,231.3,215.2,232z"/>
						<path class="st1" d="M215.7,241.5c-2.1,0-5-0.3-6.6-1.9c-0.6-0.6-1.6,0.3-0.9,0.9c1.8,1.8,5.1,2.3,7.6,2.3
							C216.6,242.9,216.6,241.5,215.7,241.5z"/>
					</g>
				</g>
			</g>
		</g>
	</g>
	<g>
		<path class="st1" d="M373.5,281.4c0.7,11.5-3.8,22.6-12.2,30.5c-0.6,0.6,0.3,1.5,0.9,0.9c8.7-8.1,13.3-19.6,12.6-31.4
			C374.8,280.6,373.5,280.6,373.5,281.4z"/>
		<path class="st1" d="M374.3,300.8c-1.5,4.1-4.2,7.6-7.8,10.1c-0.7,0.5,0,1.7,0.7,1.2c3.9-2.8,6.7-6.5,8.4-10.9
			C375.8,300.4,374.6,300,374.3,300.8z"/>
		<path class="st1" d="M273.3,435.4c5.4,11.4,13.1,21.5,22.6,29.8c0.6,0.6,1.6-0.4,0.9-0.9c-9.5-8.2-17.1-18.2-22.4-29.5
			C274.1,434,273,434.6,273.3,435.4z"/>
		<path class="st1" d="M278.9,456.3c2.9,5,6.8,9.2,11.5,12.6c0.7,0.5,1.4-0.7,0.7-1.2c-4.5-3.3-8.2-7.3-11-12.1
			C279.6,454.9,278.5,455.6,278.9,456.3z"/>
		<path class="st1" d="M421.3,399.9c7.8,18.6,8.2,39.6,1,58.5c-0.3,0.8,1,1.2,1.3,0.4c7.2-19.1,6.8-40.4-1-59.2
			C422.3,398.8,421,399.1,421.3,399.9z"/>
		<path class="st1" d="M433.2,430.2c2.2,9.7,0,19.8-5.9,27.7c-0.5,0.7,0.6,1.4,1.2,0.7c6.1-8.3,8.3-18.7,6.1-28.8
			C434.3,429,433.1,429.3,433.2,430.2z"/>
		<path class="st1" d="M434.7,54.8c-0.9,18.4-2,37.8-12.9,53.4c-0.5,0.7,0.7,1.4,1.2,0.7c11-15.8,12.2-35.4,13-54.1
			C436,53.9,434.7,53.9,434.7,54.8z"/>
		<path class="st1" d="M435.6,88.3c-1.9,7.4-3.9,15-9,20.9c-0.6,0.6,0.4,1.6,0.9,0.9c5.3-6.1,7.5-13.8,9.4-21.5
			C437.1,87.8,435.9,87.5,435.6,88.3z"/>
		<g>
			<g>
				<g>
					<path class="st1" d="M364.2,164.6c0.4,20.6,1.1,42.1-4.1,62.2c-2.4,9.3-6.5,17.3-12.2,25c-4.9,6.5-10,13.1-11.5,21.3
						c-0.2,0.8,1.1,1.2,1.3,0.4c1.6-8.9,7.6-15.8,12.8-22.9c5.4-7.4,9.1-15.5,11.2-24.4c4.9-20,4.2-41.1,3.9-61.6
						C365.5,163.8,364.2,163.8,364.2,164.6z"/>
				</g>
				<path class="st0" d="M390.5,28.7c-7,1.6-14.4,4.1-20,8.7c-5.1,4.1-8.9,9.6-12,15.3c4.1,3.4,7.7,7.4,9.8,12.4
					c0.3,0.8-0.8,1.5-1.2,0.7c-2.1-4.9-5.6-8.9-9.7-12.3c-0.1,0-0.2-0.1-0.2-0.2c-2.3-1.9-4.7-3.6-7.2-5.1
					c-6.3-3.9-13.3-6.1-20.7-5.7c-13.9,0.7-27.2,9.5-32,22.8c-5.1,14.1-1.1,29.9,6.7,42.2c7.9,12.5,19.4,22,30.9,31
					c6,4.7,12,9.2,17.8,14.2c3.1,2.7,6.2,5.5,9.1,8.4c0.5,0.5,1,1.3,1.6,1.7c2,1.2,3.1,0.2,4.5-0.7c1.5-0.9,2.9-1.9,4.4-3
					c11.2-8.1,20.2-18.9,27.7-30.5c8.5-13.1,15.8-27.3,21.2-42c5.1-13.9,10.4-31,3.5-45.2C418.6,29.1,403,25.9,390.5,28.7z"/>
				<path class="st1" d="M427.9,46.6c-1.6-6.1-4.8-11.5-10.1-15c-6.5-4.3-14.9-5.9-22.6-5.1c-7.9,0.8-16.9,3.6-23.5,8.2
					c-6.2,4.3-10.7,10.5-14.3,17.1c-1.4-1.1-2.8-2.1-4.2-3.1c-5.6-3.9-11.7-6.8-18.5-7.5c-12.1-1.2-24.9,3.9-32.8,13.2
					c-9.5,11.3-10.1,27.2-5.5,40.6c5.1,15.1,16.5,27.1,28.5,37.2c6.5,5.5,13.4,10.6,20.1,15.9c3.4,2.7,6.7,5.4,9.9,8.3
					c1.6,1.4,3.2,2.9,4.7,4.4c1.2,1.2,2.5,3.1,4.1,3.7c2.2,0.9,4.4-1,6.1-2.2c3.2-2.1,6.3-4.5,9.2-7c5.5-4.8,10.5-10.2,14.9-16
					c10.3-13.4,18.6-28.6,25.2-44.1C425.5,80.6,432.1,62.8,427.9,46.6z M400,128.7c-7.5,11.6-16.4,22.4-27.7,30.5
					c-1.4,1-2.9,2-4.4,3c-1.4,0.9-2.5,1.8-4.5,0.7c-0.6-0.4-1.1-1.2-1.6-1.7c-2.9-2.9-6-5.7-9.1-8.4c-5.8-4.9-11.8-9.5-17.8-14.2
					c-11.5-9-23-18.6-30.9-31c-7.8-12.3-11.8-28.1-6.7-42.2c4.8-13.3,18.1-22.1,32-22.8c7.5-0.4,14.4,1.7,20.7,5.7
					c2.4,1.5,4.9,3.2,7.2,5.1c0.1,0.1,0.1,0.1,0.2,0.2c4.1,3.4,7.7,7.5,9.7,12.3c0.3,0.8,1.5,0.1,1.2-0.7c-2.1-5-5.7-9-9.8-12.4
					c3.1-5.7,6.9-11.2,12-15.3c5.7-4.6,13-7.1,20-8.7c12.4-2.8,28.1,0.4,34.1,12.8c6.9,14.2,1.6,31.3-3.5,45.2
					C415.8,101.4,408.5,115.6,400,128.7z"/>
			</g>
			<g>
				<g>
					<g>
						<path class="st2" d="M304.1,447.1c-0.4-2.5-0.8-5-1.4-7.5c-1.3-5.3-3.4-10.5-7.1-14.7c-3.5-3.9-7.9-6.6-12-9.8
							c-3.9-3.1-6.8-7.8-11.1-10.2c-1-0.4-2.3-0.5-3.3-0.1c-2.7,1.3-1.6,3.9-0.9,5.9c0.9,2.7,2,5.4,3,8.1c2.1,5.5,4.6,11,7.6,16
							c2.9,4.8,6.4,9.3,10.3,13.3c1.9,1.9,3.8,3.7,5.9,5.5c1.1,0.9,2.3,2,3.5,2.7c0.9,0.5,1.8,0.9,2.8,0.9c1.2,0.2,2-0.3,2.4-1.5
							c1.2-1.6,1-2.1,0.8-4C304.5,450.2,304.3,448.6,304.1,447.1z"/>
						<path class="st1" d="M305.5,447.9c-0.3-2.6-0.7-5.2-1.3-7.7c-1.1-4.9-2.8-9.7-5.8-13.8c-3.2-4.5-7.7-7.5-12.1-10.8
							c-2.6-2-5.1-4.1-7.3-6.6c-1.8-2-3.5-4-5.9-5.3c0,0-0.1,0-0.1-0.1c0,0,0,0,0,0c-2.5-1-6-0.3-6.7,2.6c-0.5,1.9,0.5,4,1.1,5.8
							c1.1,3,2.2,6.1,3.4,9.1c4.1,10.2,9.5,19.6,17.1,27.6c3.1,3.2,6.8,7.3,10.9,9.2c2.7,1.2,6.5,0.6,7.2-2.7
							C306.5,452.8,305.8,450.1,305.5,447.9z M303.8,455.6c-0.4,1.2-1.2,1.7-2.4,1.5c-1-0.1-1.9-0.4-2.8-0.9
							c-1.3-0.7-2.4-1.7-3.5-2.7c-2-1.7-4-3.5-5.9-5.5c-3.9-4-7.4-8.5-10.3-13.3c-3.1-5.1-5.5-10.5-7.6-16c-1-2.7-2.1-5.4-3-8.1
							c-0.7-1.9-1.8-4.6,0.9-5.9c0.9-0.5,2.3-0.3,3.3,0.1c4.3,2.4,7.2,7.1,11.1,10.2c4,3.2,8.5,6,12,9.8c3.7,4.1,5.8,9.3,7.1,14.7
							c0.6,2.5,1,5,1.4,7.5c0.2,1.5,0.4,3,0.6,4.5C304.8,453.6,305,454,303.8,455.6z"/>
					</g>
					<g>
						<path class="st2" d="M396.9,467.6c-5.1-2.5-10.6-4.1-16-5.7c-5.5-1.6-10.9-3.2-16.7-3c-2.8,1.4-6.5,3.2-4.6,6.9
							c1.1,2.1,2.9,3.8,4.8,5.2c3.9,2.8,8.5,4.6,12.7,6.6c5.1,2.4,10.1,4.9,15.3,7.1c5.1,2.3,10.6,4.5,16.2,4.6
							c9.6,0.2,3.5-9.6,0.2-13.2C405.5,472.6,401.3,469.8,396.9,467.6z"/>
						<path class="st1" d="M410.2,475.6c-3.1-3.4-6.8-6.1-10.8-8.2c-5.4-2.9-11.2-4.7-17.1-6.4c-5.7-1.7-11.5-3.5-17.5-3.4
							c-0.2-0.1-0.4-0.2-0.7,0c0,0-0.1,0-0.1,0.1c-0.1,0-0.2,0-0.3,0c-0.3,0-0.5,0.2-0.6,0.4c-2.8,1.4-6.3,3.3-5.3,6.8
							c1.1,3.5,4.2,6.2,7.1,8.1c4.4,2.9,9.5,4.9,14.3,7.1c4.9,2.3,9.8,4.7,14.8,6.9c4.3,1.8,20.7,8.5,21.4-0.8
							C415.7,482.1,412.7,478.3,410.2,475.6z M408.7,489.4c-5.6-0.1-11.1-2.3-16.2-4.6c-5.1-2.3-10.2-4.8-15.3-7.1
							c-4.3-2-8.9-3.8-12.7-6.6c-1.9-1.4-3.7-3.1-4.8-5.2c-2-3.7,1.7-5.5,4.6-6.9c5.7-0.2,11.2,1.4,16.7,3c5.4,1.6,10.9,3.2,16,5.7
							c4.4,2.2,8.6,4.9,12,8.5C412.3,479.8,418.3,489.6,408.7,489.4z"/>
					</g>
				</g>
				<g>
					<g>
						<path class="st2" d="M357.2,248.1c-3.1-1.3-6.5-2.1-9.8-2.7c-0.7-0.1-2.1-0.6-2.8-0.4c-2.3,0.7-1.6,2.3-0.5,3.5
							c1.3,1.4,2.8,2.6,4.5,3.4c0.8,0.1,1.7,0.3,2.5,0.4c0.8,0.1,0.5,1.4-0.4,1.3c-2.1-0.3-4.2-0.6-6.3-0.9c-1.4-0.2-7-1.1-7.7,0.8
							c-1,2.7,8.3,4,10,4.2c0.1,0,0.2,0.1,0.3,0.1c1.4,0,2.8,0.1,4.3,0.3c0.8,0.1,0.9,1.4,0,1.3c-4.2-0.4-9.7-0.9-13.7,0.7
							c-0.8,0.3-1.7,0.6-1.6,1.4c0.1,0.8,1.8,1.2,2.4,1.4c2.3,0.7,4.9,0.6,7.3,0.5c0.1,0,0.2,0,0.3,0.1c1.8,0,3.6,0.1,5.4,0.3
							c0.9,0.1,0.9,1.4,0,1.3c-2.2-0.2-4.4-0.3-6.5-0.2c-1.2,0-2.5,0.1-3.7,0.4c-0.7,0.2-3,0.6-3.3,1.3c-1.5,3.2,12.4,3.9,14.2,3.8
							c0.9,0,0.9,1.3,0,1.3c-2.9,0.1-5.8-0.1-8.7-0.7c0,0.2,0,0.3-0.2,0.5c-5.7,7.2-14.1,10.9-22.2,14.8c-5.3,2.6-10.6,5.2-15.9,7.7
							c3.1,5.3,6.9,10.2,11.6,14.1c5.6,4.6,14.2,5.6,21.2,5.4c7.4-0.2,14-2.4,19.2-7.9c9.9-10.6,10.7-27.3,11.1-41c0,0,0,0,0,0
							c-0.1-3.9-0.6-7.7-3.1-10.9C363,251.1,360.2,249.3,357.2,248.1z"/>
						<path class="st2" d="M333.7,278c-4.3-6.9-7-14.5-10-22c-1.6-4-3.3-8-5.4-11.8c-2.2-4-5.1-8.7-9.8-9.9c-4.5-1.1-7.9,2.4-11.2,5
							c-2.9,2.4-5.8,4.7-6.1,8.7c-0.6,6.9,1.7,14.1,3.7,20.6c2.4,8.1,5.3,16.5,9.5,24.1c5.2-2.5,10.3-5,15.5-7.5
							C324.6,283,329.3,280.9,333.7,278z"/>
					</g>
					<path class="st1" d="M369.6,265.4c0-5-0.6-9.5-4.1-13.4c-3.4-3.8-8.3-5.8-13.2-7c-2.4-0.6-8.9-3.1-10.6-0.2
						c-1.3,2.2,0.9,4.7,3.2,6.4c-1.6-0.2-3.3-0.4-4.9-0.3c-1.3,0.1-5.1,0.7-5.4,2.5c-0.3,1.5,2.3,2.8,3.3,3.3c1,0.5,2,0.8,3.1,1.1
						c-0.5,0.1-1.1,0.1-1.6,0.2c-1.5,0.2-4.7,0.9-5.3,2.6c-0.8,2.1,2.1,3.1,5.2,3.5c-1.5,0.4-3,1.2-3.3,2.4
						c-0.5,2.3,2.8,3.1,4.3,3.5c0.6,0.2,1.2,0.3,1.8,0.5c-2.1,2.6-4.6,4.8-7.3,6.6c-4.8-7.8-7.6-16.5-11.1-24.9
						c-2.6-6.3-6-15.1-12.5-18.4c-6.8-3.5-12.3,3-16.9,7.4c-5,4.8-4.7,10.9-3.5,17.2c1.7,8.7,4.8,17.5,8.2,25.7
						c3.1,7.4,7.2,15.3,12.7,21.2c5.1,5.4,12,8.4,19.4,9.1c7.1,0.7,14.9,0.4,21.2-3.4c15.1-9,16.7-29.6,17.2-45.6
						C369.6,265.6,369.6,265.5,369.6,265.4z M294.9,268.7c-2-6.5-4.3-13.7-3.7-20.6c0.4-4,4.2-5.1,6.8-7.8c2.9-3,6-7.1,10.6-5.9
						c4.8,1.2,7.6,5.9,9.8,9.9c2.1,3.8,3.8,7.8,5.4,11.8c3,7.5,5.7,15.2,10,22c-4.3,2.8-9.1,5-13.8,7.2c-5.2,2.5-10.3,5.1-15.5,7.5
						C300.2,285.2,297.3,276.7,294.9,268.7z M357.1,305.6c-5.2,5.5-11.8,7.7-19.2,7.9c-7,0.2-15.6-0.8-21.2-5.4
						c-4.8-3.9-8.5-8.8-11.6-14.1c5.3-2.5,10.6-5.2,15.9-7.7c8.1-3.9,16.4-7.6,22.2-14.8c0.1-0.2,0.2-0.3,0.2-0.5
						c2.9,0.6,5.8,0.8,8.7,0.7c0.9,0,0.9-1.4,0-1.3c-1.8,0.1-15.7-0.6-14.2-3.8c0.3-0.7,2.7-1.2,3.3-1.3c1.2-0.3,2.4-0.3,3.7-0.4
						c2.2-0.1,4.4,0,6.5,0.2c0.9,0.1,0.9-1.3,0-1.3c-1.8-0.1-3.6-0.3-5.4-0.3c-0.1-0.1-0.2-0.1-0.3-0.1c-2.4,0-5,0.2-7.3-0.5
						c-0.6-0.2-2.3-0.6-2.4-1.4c-0.1-0.8,0.8-1.1,1.6-1.4c4-1.6,9.5-1.1,13.7-0.7c0.9,0.1,0.8-1.3,0-1.3c-1.4-0.1-2.8-0.2-4.3-0.3
						c-0.1-0.1-0.2-0.1-0.3-0.1c-1.7-0.2-11.1-1.5-10-4.2c0.7-1.9,6.3-1,7.7-0.8c2.1,0.3,4.2,0.6,6.3,0.9c0.8,0.1,1.2-1.2,0.4-1.3
						c-0.8-0.1-1.6-0.3-2.5-0.4c-1.7-0.8-3.2-2-4.5-3.4c-1-1.2-1.7-2.9,0.5-3.5c0.8-0.2,2.1,0.2,2.8,0.4c3.3,0.6,6.7,1.4,9.8,2.7
						c3,1.3,5.8,3.1,7.9,5.6c2.6,3.2,3.1,7,3.1,10.9c0,0,0,0,0,0C367.8,278.3,367.1,295,357.1,305.6z"/>
				</g>
				<g>
					<path class="st2" d="M280.8,248.2c-2.9,0.2-5.8-0.1-8.6-0.9c-3.5-1-6.8-3.3-10.5-3.4c-7.9-0.1-9.3,11.5-9.6,17.2
						c-0.4,6.6-0.6,13.3-0.4,19.9c0.4,13.7,3,26.5,7.7,39.4c4.3,11.8,8.3,24.1,16.2,34c4.4,5.5,9.4,9.7,16.6,10.3
						c6.3,0.5,12.8,0.6,19.1,0.1l0,0c11-1.2,21.3-6.3,27.4-15.8c5.5-8.5,7.9-20.2,1.2-28.7c-2.9-3.7-6.4-6.9-9.5-10.5
						c-2.9-3.3-5.6-6.7-8.2-10.2c-10.9-14.8-19.2-31.5-23.1-49.5c-0.1-0.6,0.3-0.7,0.8-0.6c-1.4-2.5-2.6-5.1-4-7.6c0,0,0,0,0,0
						C291.6,245.7,286.4,247.8,280.8,248.2z"/>
					<path class="st1" d="M331.1,308.6c-6.9-8-13-16.6-18.1-25.8c-5.7-10.3-10-21.4-12.5-32.9c-0.2-0.8-1.5-0.5-1.3,0.4
						c3.8,18,12.2,34.7,23.1,49.5c2.6,3.5,5.3,6.9,8.2,10.2c3.1,3.5,6.5,6.8,9.5,10.5c6.7,8.5,4.2,20.2-1.2,28.7
						c-6.1,9.5-16.4,14.6-27.4,15.8l0,0c-6.3,0.4-12.8,0.4-19.1-0.1c-7.3-0.6-12.3-4.7-16.6-10.3c-7.9-10-11.9-22.2-16.2-34
						c-4.6-12.8-7.2-25.7-7.7-39.4c-0.2-6.6,0-13.3,0.4-19.9c0.4-5.7,1.8-17.3,9.6-17.2c3.7,0,7,2.4,10.5,3.4
						c2.8,0.8,5.7,1.1,8.6,0.9c5.6-0.4,10.9-2.5,15.2-6.1c0.7-0.5-0.3-1.5-0.9-0.9c-5.4,4.5-12.5,6.5-19.5,5.5
						c-5.4-0.8-11.5-5.8-16.9-3.5c-4.9,2.2-6.8,8.8-7.4,13.6c-0.9,6.6-1,13.4-0.9,20c0.1,14.5,2.1,28.6,7.1,42.2
						c4.4,11.9,8.3,24.4,15.9,34.7c4,5.4,8.9,10.6,15.7,12c3.3,0.7,6.8,0.6,10.2,0.7c3.8,0.1,7.5,0.1,11.3-0.1c0.1,0,0.2,0,0.3,0
						c9-0.9,17.8-4.1,24.3-10.5c6.4-6.3,10.4-15.3,10.4-24.3C345.4,321.6,337,315.5,331.1,308.6z"/>
				</g>
				<g>
					<g>
						<path class="st1" d="M382.1,343.5c-15-13.4-33.2-22.9-50.4-33.2c-0.1,0.1-0.1,0.1-0.2,0.2c-21,11.6-43.9,19.1-67.7,22.1
							c2.8,10.6,5.8,21.4,12.3,30.4c6.9,9.6,16.9,14,27.7,17.8c3.7-3.8,7.1-7.8,10.1-12.3c0.5-0.7,1.6,0,1.2,0.7
							c-4.9,7.4-11.1,13.8-17.9,19.6c-3.2,2.7-6.5,5.2-9.9,7.7c-3.5,2.6-7.7,4.7-11,7.6c-2.9,2.5-1.8,4.9-0.7,7.8
							c0.8,2.1,1.8,4.2,2.9,6.1c1.9,3.5,4.2,6.8,6.9,9.8c5.7,6.3,12.7,11.2,20.7,14.2c0,0,0.1,0,0.1,0c12.3-2.6,22.6-9.8,31.4-18.4
							c7.6-7.3,14.9-15.3,20.9-24c5.8-8.3,10.6-18.5,10-28.9c-0.8-11.5-10.5-18.7-19.6-24c-9.5-5.5-20.1-9-31-10.2
							c-0.8-0.1-0.9-1.4,0-1.3c12.7,1.5,25,5.8,35.6,12.8c8.6,5.7,16.1,12.9,16.4,23.8c0.3,10.1-4.2,19.9-9.9,28.1
							c0.1,0.1,0.2,0.2,0.3,0.3c3.3,10,5.3,20.5,5.9,31c0.3,5.2,0.4,10.5-0.1,15.8c-0.2,2.1-0.8,4.1-1.1,6.2c-0.5,3.3,0,5.8,2.9,7.7
							c7.8,5.1,18,7.1,27,8.9c2.8,0.6,5.6,1,8.5,1.3c2.4,0.2,4.2,0.1,5.4-2.3c2.3-4.4,3.7-9.4,4.7-14.2c2.2-10.4,2.2-21.2,1.8-31.7
							c-0.4-10.1-1.5-20.2-4-30C406.3,373.8,396.6,356.6,382.1,343.5z"/>
						<path class="st1" d="M414.9,405.4c-2.8-19.9-10.4-39.5-23.8-54.7c-16.1-18.2-38.7-29.5-59.3-41.8c-0.4-0.3-0.9,0-1,0.4
							c0,0-0.1,0-0.1,0c-21,11.6-44,19.1-67.8,22.1c-0.4-0.1-0.9,0.3-0.8,0.8c3,11.4,6.2,23.2,13.5,32.7c6.8,9,16.6,13.2,26.9,16.9
							c-3.3,3.2-6.8,6.2-10.4,9.1c-4.1,3.2-8.4,6.2-12.7,9.2c-2.7,1.8-7.6,3.5-6.9,7.4c1.4,7.9,6.8,16,12.2,21.8
							c5.8,6.3,13,11.1,21.1,14c0.3,0.1,0.6,0,0.7-0.2c11.1-2.4,20.8-8.6,29.1-16.2c8.4-7.6,16.4-16.3,23-25.5
							c0.1-0.1,0.2-0.3,0.3-0.4c3.3,10.2,5.3,20.9,5.8,31.7c0.3,5.1,0.4,10.5-0.4,15.6c-0.6,3.4-2.3,7.7-0.3,10.9
							c1.8,2.9,5.9,4.5,8.9,5.8c4.9,2,10.1,3.2,15.2,4.5c4.8,1.2,9.6,2.3,14.6,2.7c3.5,0.3,5.6,0.1,7.2-3.2c4.5-9.3,6.1-19.8,6.6-30
							C416.9,427.8,416.5,416.5,414.9,405.4z M413.3,454.4c-1,4.8-2.4,9.8-4.7,14.2c-1.2,2.3-3,2.5-5.4,2.3
							c-2.9-0.2-5.7-0.7-8.5-1.3c-9-1.8-19.2-3.8-27-8.9c-2.9-1.9-3.5-4.4-2.9-7.7c0.3-2.1,0.9-4.1,1.1-6.2
							c0.6-5.2,0.5-10.5,0.1-15.8c-0.7-10.5-2.7-21-5.9-31c-0.1-0.2-0.1-0.3-0.3-0.3c5.6-8.2,10.1-18,9.9-28.1
							c-0.3-10.9-7.9-18.1-16.4-23.8c-10.7-7.1-22.9-11.4-35.6-12.8c-0.9-0.1-0.8,1.2,0,1.3c10.9,1.3,21.5,4.7,31,10.2
							c9.2,5.3,18.9,12.6,19.6,24c0.7,10.4-4.2,20.6-10,28.9c-6,8.7-13.4,16.6-20.9,24c-8.9,8.6-19.2,15.9-31.4,18.4
							c-0.1,0-0.1,0-0.1,0c-7.9-3-15-7.9-20.7-14.2c-2.7-3-5-6.3-6.9-9.8c-1.1-2-2-4-2.9-6.1c-1.1-2.9-2.2-5.3,0.7-7.8
							c3.3-2.8,7.5-5,11-7.6c3.4-2.4,6.7-5,9.9-7.7c6.8-5.7,13-12.1,17.9-19.6c0.5-0.7-0.7-1.4-1.2-0.7c-3,4.4-6.4,8.5-10.1,12.3
							c-10.7-3.9-20.8-8.2-27.7-17.8c-6.5-9-9.4-19.8-12.3-30.4c23.8-3,46.7-10.5,67.7-22.1c0.1-0.1,0.2-0.1,0.2-0.2
							c17.2,10.3,35.4,19.8,50.4,33.2c14.6,13.1,24.2,30.2,29,49.2c2.5,9.8,3.6,19.9,4,30C415.5,433.3,415.5,444,413.3,454.4z"/>
					</g>
					<g>
						<path class="st2" d="M367.1,359.1c-4.5-7.5-11.9-12.2-19.6-15.9c-9.2-4.5-19-7.6-29.2-8.9c-0.9-0.1-0.8,1.2,0,1.3
							c9.7,1.2,19.2,4.2,28,8.5c7.6,3.7,15.1,8.2,19.6,15.7c4.4,7.2,4.3,15.4,2.3,23.4c-1.7,6.7-5.4,12.4-9.3,18c0,0,0,0,0,0.1
							c0,0,0,0,0,0c0,0,0,0,0,0c0,0,0,0,0,0c0,0,0,0,0,0.1c0,0,0,0,0-0.1c0.2,0.5,0.3,1,0.5,1.5c4.5-6.3,8.7-12.7,10.4-20.4
							C371.5,374.3,371.4,366.3,367.1,359.1z"/>
						<path class="st2" d="M312.7,367.6c-3.5,5.1-7.3,9.8-11.7,14c0.4,0.2,0.8,0.3,1.3,0.5c0,0,0,0,0,0c0,0,0.1,0,0.1,0
							c4.3-4.2,8-8.9,11.5-13.8C314.4,367.5,313.2,366.9,312.7,367.6z"/>
					</g>
				</g>
				<g>
					<g>
						<path class="st2" d="M263.9,362c-0.1,0-0.1,0-0.2,0c-2-0.4-7.9-1.2-8.8,1.2c-0.9,2.5,4.7,2.5,6.3,2.5c0.1,0,0.1,0,0.2,0
							c0.7-0.2,1,1,0.3,1.3c-2,0.8-3.9,1.8-5.7,3c-0.6,0.4-2.3,1.2-2.6,1.9c-1.4,3.2,1.3,2.2,2.2,2c3.1-0.7,6.1-1.5,8.9-2.9
							c1.8-1.3,3.3-2.4,3.9-2.7c0.7-0.5,1.4,0.7,0.7,1.2c-0.6,0.4-1.3,0.8-1.9,1.3c0,0.2-0.1,0.4-0.3,0.5c-0.7,0.4-1.4,0.8-2.1,1.2
							c-0.9,0.6-1.7,1.3-2.5,2c-1.1,1-2.2,2.1-3,3.4c-0.4,0.6-0.8,1.3-1.1,2c0.3,0.7,0.7,0.8,1.4,0.3c2.4-0.2,5.4-2.3,7.4-3.6
							c2.3-1.5,4.4-3.3,6.3-5.3c0.2-0.3,0.5-0.2,0.8-0.1c0.5-0.1,1,0.6,0.6,1.2c-2.3,2.9-4.5,5.9-6.5,9.1c-0.7,1.2-1,1.4-0.6,2.8
							c0.4,1.6,1,1.5,2.6,1.1c1.6-0.4,3.1-1.5,4.4-2.5c5.3-4.1,8.7-10.1,9.9-16.6c0-0.2,0.1-0.3,0.2-0.4c0.2-0.6,1.3-0.5,1.3,0.3
							c0.1,2.6,0.3,5.2,1,7.7c0.4,1.5,1.9,7.9,4.5,4.3c1.1-1.5,0.4-4.8,0-6.4c-0.4-2.2-1-4.4-1.4-6.7c-2-9.1-4-18.2-5.9-27.3
							c-2.3-10.8-4.5-21.7-6.3-32.7c-10-1.9-20.3-2.4-30.5-1.7c4.5,19.7,11.5,38.9,17.9,58C265.3,362.1,264.3,362.5,263.9,362z"/>
						<path class="st2" d="M268.7,245.7c-4.7-2.7-12-5.7-17.4-3.7c-6.3,2.4-7.9,9.9-8.4,15.8c-1,11.9,0.1,23.9,2.2,35.6
							c0.5,2.9,1.1,5.7,1.8,8.6c10.2-0.7,20.5-0.2,30.5,1.7c-1.2-6.8-2.2-13.7-3.1-20.6c0-0.4,0.5-0.5,0.8-0.5
							c-0.7-1.2-1.6-2.5-2.3-3.9c-0.5-0.9-0.8-1.8-1.3-2.8c-3.4-9.8-5.4-20.3-2.5-30.2C268.9,245.8,268.8,245.8,268.7,245.7z"/>
					</g>
					<path class="st1" d="M292.1,368.7c-1.2-5.5-2.4-11-3.6-16.5c-3.4-15.7-6.8-31.3-9.5-47.1c0.3-0.3,0.4-1-0.2-1.1
						c-1.2-6.9-2.2-13.9-3.1-20.8c-0.1-0.8-1.4-0.9-1.3,0c0.9,6.9,1.9,13.7,3.1,20.6c-10-1.9-20.3-2.3-30.5-1.7
						c-0.6-2.8-1.2-5.7-1.8-8.6c-2.1-11.7-3.2-23.7-2.2-35.6c0.5-5.9,2-13.4,8.4-15.8c5.5-2.1,12.7,1,17.4,3.7
						c0.7,0.4,1.4-0.7,0.7-1.2c-6.1-3.5-15.6-7-21.7-1.9c-6.7,5.6-6.4,16.3-6.4,24.2c0,12,1.7,23.9,4.4,35.7
						c-0.1,0.3-0.1,0.6,0.2,0.8c1.9,8.3,4.3,16.5,6.8,24.5c3.4,10.9,7.1,21.8,10.7,32.7c-2.1-0.4-4.2-0.4-6.3,0
						c-1.4,0.3-3.6,0.7-3.9,2.5c-0.4,2.7,2.8,3.6,5.4,3.9c-3.7,1.7-9.2,4.9-7.1,7.9c1.2,1.8,4.3,0.5,5.9,0.1c1.2-0.3,2.4-0.6,3.5-1
						c-3.2,2.8-5.7,6-3.5,7.6c1.6,1.1,5.4-1.3,7-2c2.1-1.1,4.1-2.4,6-3.9c-0.4,0.5-0.8,1-1.1,1.6c-1.2,1.8-3.1,3.9-3.6,6
						c-0.8,3,2.1,4.1,4.5,3.5c7.2-1.8,12.5-9.5,14.7-16.7c0.4,3.4,1.1,6.9,2.7,9.9c1.3,2.5,3.5,1.7,4.7-0.4
						C294.1,376.3,292.8,372,292.1,368.7z M291.3,378.2c-2.6,3.6-4.1-2.8-4.5-4.3c-0.6-2.5-0.9-5.1-1-7.7c0-0.8-1-0.8-1.3-0.3
						c-0.1,0.1-0.2,0.2-0.2,0.4c-1.2,6.5-4.6,12.5-9.9,16.6c-1.3,1-2.8,2.1-4.4,2.5c-1.6,0.4-2.2,0.5-2.6-1.1
						c-0.4-1.5-0.1-1.7,0.6-2.8c2-3.2,4.2-6.2,6.5-9.1c0.4-0.5-0.1-1.2-0.6-1.2c-0.2-0.1-0.5-0.1-0.8,0.1c-1.9,2-4,3.8-6.3,5.3
						c-2,1.3-5,3.4-7.4,3.6c-0.6,0.5-1.1,0.4-1.4-0.3c0.3-0.7,0.7-1.4,1.1-2c0.9-1.2,1.9-2.3,3-3.4c0.8-0.7,1.6-1.4,2.5-2
						c0.7-0.3,1.4-0.7,2.1-1.2c0.2-0.1,0.3-0.3,0.3-0.5c0.6-0.4,1.3-0.8,1.9-1.3c0.7-0.5,0-1.6-0.7-1.2c-0.5,0.4-2.1,1.4-3.9,2.7
						c-2.8,1.4-5.8,2.3-8.9,2.9c-1,0.2-3.6,1.2-2.2-2c0.3-0.7,2-1.5,2.6-1.9c1.8-1.2,3.7-2.2,5.7-3c0.7-0.3,0.5-1.5-0.3-1.3
						c-0.1,0-0.1,0-0.2,0c-1.5,0-7.1,0-6.3-2.5c0.8-2.4,6.8-1.6,8.8-1.2c0.1,0,0.1,0,0.2,0c0.4,0.5,1.4,0.1,1.2-0.6
						c-6.4-19.2-13.3-38.3-17.9-58c10.2-0.6,20.4-0.2,30.5,1.7c1.9,10.9,4,21.8,6.3,32.7c1.9,9.1,4,18.2,5.9,27.3
						c0.5,2.2,1,4.4,1.4,6.7C291.7,373.4,292.4,376.6,291.3,378.2z"/>
				</g>
				<g>
					<g>
						<path class="st2" d="M301.1,223.6c5.2,1.8,6.9-4.1,7-8c0-2.6-0.6-6.1-3.6-6.5c-2.4-0.4-4.2,1.5-4.6,4
							c-0.2,0.8-1.4,0.5-1.3-0.4c0.5-2.5,2.9-5.4,5.7-5.6c-0.2-7.4-0.4-15.2-6.5-20.3c-5.5-4.6-13.1-5.7-20-5.4
							c-5.5,0.3-11,1.6-15.8,4.4c-2.5,1.5-5.9,3.9-6.8,6.9c-0.8,2.6-0.7,5.9-0.9,8.7c-0.4,6.9,0.2,13.8,1.7,20.6
							c1.2,5.3,2.6,12.9,7.9,15.6c4,2.1,8.1,1.6,9.5,6.7c0.3,1.2,0.3,2.4,0.6,3.5c0.5,2,1.2,2.3,3.2,2.4c2.4,0.1,4.9,0.3,7.3,0.1
							c0.7-0.1,4.6-0.2,5.3-0.9c0.8-0.8,0.3-2.2,0.2-3.2c-0.3-2.5-0.9-5.3-0.4-7.8c0.4-2.3,2-3.5,3.7-4.8c2.3-1.8,4-4,5.2-6.7
							c0.2-0.4,0.6-0.4,0.9-0.2c0.1-0.1,0.2-0.3,0.2-0.5c0.3-0.5,0.5-1.1,0.8-1.5C300.1,224.1,300.4,223.3,301.1,223.6z"/>
						<path class="st1" d="M309.2,212.9c-0.3-1.8-1.7-4.8-3.7-5.6c-0.1-5.4-0.1-11.6-2.7-16.5c-2.3-4.3-6.4-7.3-10.9-8.9
							c-9.5-3.5-21.9-2.5-30.6,2.8c-3.7,2.2-7.2,5.1-7.8,9.5c-0.9,6.2-0.9,12.8-0.3,19.1c0.6,6.1,1.8,12.3,4.1,18
							c1.6,4.2,4.1,7.1,8.4,8.4c1.7,0.5,3.6,0.8,4.9,2.2c1.5,1.5,1.8,3.9,2,6c0.2,1.4,0.3,2.7,1.7,3.3c2,0.8,5.1,0.5,7.1,0.5
							c3.2,0.1,6.5-0.4,9.6-1.2c0.3-0.1,0.5-0.4,0.5-0.6c-0.2-4.1-2.4-10.8,0.9-13.9c2.9-2.7,5.4-4.6,7.1-8.3
							c0.4-0.8-0.8-1.5-1.2-0.7c-1.2,2.6-2.9,4.8-5.2,6.7c-1.7,1.4-3.3,2.6-3.7,4.8c-0.4,2.5,0.1,5.3,0.4,7.8c0.1,1,0.6,2.4-0.2,3.2
							c-0.7,0.7-4.6,0.8-5.3,0.9c-2.4,0.2-4.9,0-7.3-0.1c-2.1-0.1-2.7-0.4-3.2-2.4c-0.3-1.1-0.3-2.4-0.6-3.5
							c-1.5-5.1-5.5-4.6-9.5-6.7c-5.3-2.7-6.7-10.4-7.9-15.6c-1.5-6.7-2.1-13.7-1.7-20.6c0.2-2.8,0.1-6,0.9-8.7
							c0.9-3,4.3-5.4,6.8-6.9c4.7-2.8,10.3-4.2,15.8-4.4c6.9-0.4,14.6,0.7,20,5.4c6,5.1,6.3,13,6.5,20.3c-2.8,0.2-5.2,3.1-5.7,5.6
							c-0.2,0.8,1.1,1.2,1.3,0.4c0.5-2.4,2.2-4.3,4.6-4c3,0.4,3.6,3.9,3.6,6.5c-0.1,4-1.8,9.9-7,8c-0.8-0.3-1.2,1-0.4,1.3
							C307.8,227.4,310.2,218.1,309.2,212.9z"/>
					</g>
					<g>
						<path class="st1" d="M276.3,211.8c-0.1-0.2-0.3-0.3-0.5-0.3c-0.3-0.3-1-0.3-1.2,0.3c-0.5,1.3-0.5,3.5,1.1,4.1
							c0.8,0.3,1.4-0.3,1.4-1.1C277.2,213.7,276.7,212.7,276.3,211.8z"/>
						<path class="st1" d="M265.6,220.7c-1.2,0.1-2.9,0.2-2.6-1.6c0.2-1.1,0.4-2.1,0.7-3.1c0.2-0.8-1.1-1.2-1.3-0.4
							c-0.2,1-0.5,2.1-0.7,3.1c-0.1,0.6-0.2,1.3,0,1.9c0.6,1.4,2.6,1.5,3.9,1.4C266.5,222,266.5,220.7,265.6,220.7z"/>
						<path class="st1" d="M274.8,219.2c-1,2.4-2.9,4.2-5.4,5c-0.8,0.3-0.5,1.6,0.4,1.3c2.9-1,5.2-3.1,6.3-5.9
							C276.4,218.7,275.1,218.4,274.8,219.2z"/>
						<path class="st1" d="M259.9,215.1c-0.3-0.3-0.9-0.3-1,0.1c-0.2,0.4-0.3,0.8-0.3,1.3c-0.2,0.6-0.2,1.2,0,1.8
							c0.2,0.7,0.8,1.5,1.6,1.1c0.7-0.3,0.8-1.3,0.7-1.9C260.9,216.6,260.5,215.8,259.9,215.1z"/>
					</g>
					<g>
						<path class="st1" d="M311.1,200.1c0-1.2,0.9-2.3,1-3.5c0-1.7-0.9-3-2.4-3.4c0.7-2.4,0.8-5.3-1.8-6.2c0.8-3.2-0.7-7.3-4.3-6.9
							c0.6-3.8-3.7-5.5-6.9-4.1c-1.3-3.8-5.5-5.1-8.8-2.9c-2.1-2.4-5.4-3.4-8.4-2c-0.5,0.2-1.8,1.6-2.2,1.6
							c-0.8,0.1-1.6-0.6-2.3-0.8c-1.7-0.6-3.6-0.7-5.4-0.1c-1.6,0.5-3,1.4-4.1,2.6c-0.6,0.7-0.8,1.4-1.7,1.6c-0.7,0.1-2-0.4-2.8-0.4
							c-3.2,0-6,1.8-6.9,4.9c-5.6-1.8-9.4,4.1-7.2,9.2c-3.5,1.5-3.6,6-0.2,7.8c0,0.1,0,0.1,0,0.2c0.1,3.9,2.5,7.5,6.7,7
							c0.3,0,0.6-0.2,0.6-0.5c0.2-0.8,0.3-1.5,0.3-2.3c1.4,0.6,3-0.4,3.9-1.8c2.8,1.6,5.7,0.2,7.7-2.1c2.1,2.6,5.4,0.8,6.9-1.7
							c3,2.7,7,1,10-1.2c0.7,2.5,3.7,2.7,6.2,2.3c-0.3,3.9,1.3,8,5.5,8.3c-0.7,3.3,1.2,6.5,4.4,7.7c0.4,0.1,0.6-0.1,0.7-0.3
							c0.2-0.1,0.4-0.3,0.4-0.5c0.4-3.6,4.5-4.1,6.7-1.9c1.7,1.6,1.9,3.7,1.5,6c-0.1,0.7,0.8,1.2,1.2,0.5c1.5-2.2,1.9-4.6,1.4-7.2
							c-0.3-1.7,0-1.6,0.6-3.2c0.4-1,0.6-2.1,0.5-3.2C311.8,202.2,311.1,201.1,311.1,200.1z M309.1,207.8c-0.2,0.3-0.2,0.5-0.1,0.8
							c0.7,1.6,0.9,3.1,0.6,4.6c-0.4-2.4-1.7-4.4-4.3-5.2c-3-1-5.9,0.8-6.5,3.8c-2.6-1.2-3.7-4-2.8-6.7c0.1-0.4-0.2-0.9-0.6-0.8
							c-4.3,0.3-5.5-4.1-5-7.6c0.1-0.5-0.3-1-0.8-0.8c-1.6,0.4-5.7,1.5-5.6-2c0-0.6-0.7-0.8-1.1-0.5c-2.7,2.2-6.9,4.7-9.8,1.3
							c-0.3-0.3-0.9-0.2-1,0.1c-0.2,0.5-0.4,0.9-0.7,1.4c-1.1,1.9-2.7,2.1-4.8,0.4c-0.2-0.4-0.6-0.4-0.9-0.2c-0.1,0-0.2,0.1-0.3,0.2
							c-1.6,2-4.3,4.1-6.9,2.1c-0.3-0.2-0.8-0.3-1,0.1c-0.5,1.3-1.6,1.7-3.4,1.2c-0.4-0.4-1.2-0.1-1.1,0.5c0.2,1.9,0.4,3.9-2.4,2.3
							c-1.9-1.1-2.4-3.2-2.5-5.2c0-0.1,0-0.1,0-0.2c0.2-0.3,0.1-0.9-0.4-1c-2.8-2.8-2.7-4.7,0.4-5.7c0.4-0.1,0.6-0.6,0.4-1
							c-2.4-4.4,0.9-9.9,6-7.7c0.3,0.1,0.8-0.1,0.8-0.5c0.8-4.5,5.4-5.2,9.2-4c0.3,0.1,0.6-0.1,0.8-0.3c2.4-4.6,7.6-5.7,11.8-2.7
							c0.2,0.2,0.6,0.1,0.8-0.1c2.6-3.3,6.8-3.4,9.5-0.1c0.1,0.1,0.2,0.2,0.3,0.2c0.2,0.1,0.6,0.2,0.8,0c2.9-2.3,6.6-0.8,7.3,2.7
							c0.1,0.4,0.6,0.6,1,0.4c2.5-1.6,6.8-0.5,5.4,3.2c-0.2,0.5,0.4,1,0.8,0.8c3.7-1.2,4.5,3.2,3.6,5.7c-0.1,0.3,0.1,0.8,0.5,0.8
							c3.2,0.6,1.8,3.9,1.3,5.4c-0.2,0.4,0.2,0.8,0.6,0.8c1.8,1.9,2,3.6,0.7,5c-0.1,0.2-0.1,0.5,0,0.7
							C311,202.6,310.9,205.5,309.1,207.8z"/>
						<path class="st1" d="M309.5,200.1c-0.1-0.2-0.1-0.5,0-0.7c1.3-1.5,1-3.1-0.7-5c-0.4,0-0.8-0.4-0.6-0.8
							c0.5-1.5,1.9-4.9-1.3-5.4c-0.3-0.1-0.6-0.5-0.5-0.8c0.9-2.5,0.2-6.9-3.6-5.7c-0.5,0.1-1-0.3-0.8-0.8c1.4-3.7-3-4.8-5.4-3.2
							c-0.3,0.2-0.9,0-1-0.4c-0.7-3.6-4.5-5.1-7.3-2.7c-0.3,0.2-0.6,0.2-0.8,0c-0.1,0-0.2-0.1-0.3-0.2c-2.7-3.3-6.9-3.2-9.5,0.1
							c-0.2,0.2-0.6,0.3-0.8,0.1c-4.2-3-9.4-1.8-11.8,2.7c-0.1,0.3-0.5,0.4-0.8,0.3c-3.8-1.2-8.4-0.6-9.2,4
							c-0.1,0.3-0.5,0.6-0.8,0.5c-5.2-2.2-8.5,3.4-6,7.7c0.2,0.4,0,0.9-0.4,1c-3.1,1.1-3.2,3-0.4,5.7c0.5,0.2,0.5,0.7,0.4,1
							c0,0.1,0,0.1,0,0.2c0.1,2,0.6,4.1,2.5,5.2c2.8,1.6,2.6-0.5,2.4-2.3c-0.1-0.6,0.8-0.9,1.1-0.5c1.8,0.5,2.9,0.1,3.4-1.2
							c0.2-0.4,0.7-0.4,1-0.1c2.6,2,5.3,0,6.9-2.1c0.1-0.1,0.2-0.2,0.3-0.2c0.3-0.2,0.7-0.2,0.9,0.2c2.1,1.6,3.7,1.5,4.8-0.4
							c0.3-0.4,0.5-0.9,0.7-1.4c0.2-0.4,0.8-0.4,1-0.1c2.9,3.4,7.1,0.9,9.8-1.3c0.4-0.4,1.1-0.1,1.1,0.5c0,3.6,4,2.4,5.6,2
							c0.5-0.1,0.9,0.3,0.8,0.8c-0.5,3.5,0.7,7.8,5,7.6c0.4,0,0.8,0.4,0.6,0.8c-0.9,2.7,0.3,5.5,2.8,6.7c0.6-2.9,3.5-4.7,6.5-3.8
							c2.5,0.8,3.9,2.9,4.3,5.2c0.3-1.5,0.1-3.1-0.6-4.6c-0.1-0.3-0.1-0.6,0.1-0.8C310.9,205.5,311,202.6,309.5,200.1z"/>
					</g>
				</g>
			</g>
		</g>
	</g>
</g>
</svg>
