<?xml version="1.0" encoding="utf-8"?>
<!-- Generator: Adobe Illustrator 23.0.5, SVG Export Plug-In . SVG Version: 6.00 Build 0)  -->
<svg version="1.1" id="OBJECTS" xmlns="http://www.w3.org/2000/svg" xmlns:xlink="http://www.w3.org/1999/xlink" x="0px" y="0px"
	 viewBox="0 0 500 500" style="enable-background:new 0 0 500 500;" xml:space="preserve">
<style type="text/css">
	.st0{fill:#FFFFFF;}
	.st1{fill:#1B262C;}
	.st2{fill:#ED5879;}
</style>
<g>
	<g id="XMLID_309_">
		<g id="XMLID_310_">
			<path id="XMLID_120_" class="st0" d="M319.6,204.3c4.5,8.3,6.7,17.5,6.3,26.9c1.6-0.3,3.3-0.7,4.9-1c7.6-1.6,19.2-3.6,21.3-12.6
				c1.1-4.9,1.1-10.1-3.1-13.4c-3.1-2.5-7.7-5-11.8-4.9c-0.1,0-0.1,0.1-0.2,0.1C331.2,201.4,325.4,203,319.6,204.3z"/>
			<path id="XMLID_119_" class="st0" d="M318.2,204.6c-13.5,3-27.3,4.5-41.1,5.2c-0.1,0-0.3,0-0.4-0.1c-0.2,0.3-0.5,0.5-0.9,0.2
				c-1.6-1.2-3.3-2.4-5.1-3.4c-1.3-0.7-5.5-3.2-4.9-0.1c0.3,1.4,2.7,3.3,3.7,4.3c0.9,0.8,1.8,1.6,2.3,2.7c0.1,0.3-0.1,0.6-0.3,0.8
				c-1.5,1.1,0,4,0.5,5.1c0.4,0.8-0.8,1.5-1.2,0.7c-0.7-1.4-1.6-3.2-1.4-4.9c0-0.1,1-2,1-1.8c0,0-0.1-0.1-0.1-0.2
				c-0.1,0-0.1,0-0.2,0c-4.5-0.4-10.7-1.3-15,0.4c-1.9,0.8-2.1,2.4-0.1,3.2c0.9,0.4,2,0.6,2.9,0.8c1.9,0.4,3.8,0.7,5.6,1.4
				c0.5,0.2,0.8,1,0.2,1.3c-3.7,1.6-8.9,4.2-10,8.5c3.1-0.8,5.7-3,8.8-3.8c0.7-0.2,1.1,0.6,0.7,1.2c-1.9,2.3-4.7,6.6-4.2,9.8
				c0.6,4.3,6.9-2.5,8.1-3.7c0.5-0.4,1.4,0,1.2,0.7c-1.3,3.2-2.1,8.1-0.1,11.2c2,3.1,3.4-1.8,4.1-3.3c0.7-1.7,1.4-3.5,2.1-5.2
				c0.2-0.6,1-0.6,1.3-0.2c16.4,1.3,32.8-0.8,48.9-3.9c0-0.1,0-0.1,0-0.2C324.9,221.9,322.8,212.8,318.2,204.6z"/>
		</g>
		<path id="XMLID_121_" class="st1" d="M354.1,210.7c-0.3-3.5-2.1-6.2-5-8.3c-3.5-2.4-8.1-4.9-12.5-4.5c-0.2,0-0.3,0.1-0.5,0.2
			c-19,6.4-39,9.2-59,10.2c-0.3,0-0.4,0.2-0.5,0.3c-1.3-1-14.5-9.6-12.5-2.8c0.4,1.4,1.7,2.8,2.7,3.9c0.6,0.6,1.2,1.3,1.9,1.9
			c-3.5-0.3-6.9-0.4-10.4,0c-1.8,0.2-6.3,0.4-7.2,2.5c-1.5,3.4,6.3,4.9,10.3,5.7c-4.1,2-8.6,5.1-9.1,9.8c-0.1,0.5,0.5,0.7,0.9,0.7
			c2.9-0.4,5.2-2.1,7.8-3.2c-1,1.4-1.8,3-2.3,4.7c-0.6,1.8-1.6,4.9-0.5,6.7c1.8,3,5.6-0.4,8.1-3c-0.4,1.8-0.5,3.6-0.3,5.4
			c0.2,1.8,1,5.4,2.9,6.3c1.3,0.6,2.2-0.1,2.9-1.2c1.7-2.7,2.8-6.1,3.9-9.2c0,0,0.1,0,0.1,0c11.3,0.9,22.5,0.2,33.7-1.3
			c5.6-0.8,11.1-1.8,16.6-2.8c5.2-1,10.5-1.9,15.6-3.7c3.7-1.3,7.6-3.2,10-6.4C353.8,219.4,354.4,214.5,354.1,210.7z M275.6,235.4
			c-0.3-0.4-1-0.4-1.3,0.2c-0.7,1.7-1.4,3.5-2.1,5.2c-0.6,1.5-2.1,6.4-4.1,3.3c-2-3.1-1.3-8,0.1-11.2c0.3-0.7-0.7-1.1-1.2-0.7
			c-1.2,1.1-7.4,7.9-8.1,3.7c-0.5-3.2,2.3-7.4,4.2-9.8c0.4-0.5,0-1.3-0.7-1.2c-3.1,0.8-5.7,3-8.8,3.8c1.1-4.3,6.3-6.9,10-8.5
			c0.6-0.3,0.3-1.1-0.2-1.3c-1.8-0.7-3.7-1-5.6-1.4c-1-0.2-2-0.4-2.9-0.8c-2-0.8-1.8-2.4,0.1-3.2c4.3-1.7,10.5-0.8,15-0.4
			c0.1,0,0.2,0,0.2,0c0.1,0.1,0.1,0.1,0.1,0.2c0-0.2-1,1.7-1,1.8c-0.2,1.7,0.7,3.5,1.4,4.9c0.4,0.8,1.6,0.1,1.2-0.7
			c-0.5-1-2-4-0.5-5.1c0.2-0.2,0.4-0.5,0.3-0.8c-0.4-1.1-1.4-1.9-2.3-2.7c-1-1-3.5-2.9-3.7-4.3c-0.6-3.2,3.6-0.6,4.9,0.1
			c1.8,1,3.4,2.2,5.1,3.4c0.4,0.3,0.7,0.1,0.9-0.2c0.1,0.1,0.2,0.1,0.4,0.1c13.8-0.7,27.6-2.3,41.1-5.3c4.6,8.2,6.7,17.3,6.3,26.6
			c0,0.1,0,0.1,0,0.2C308.4,234.6,292.1,236.7,275.6,235.4z M352.1,217.6c-2.1,9-13.6,11-21.3,12.6c-1.6,0.3-3.3,0.7-4.9,1
			c0.4-9.4-1.8-18.6-6.3-26.9c5.9-1.3,11.7-2.9,17.4-4.9c0.1,0,0.1-0.1,0.1-0.1c4.1-0.2,8.7,2.4,11.9,4.8
			C353.2,207.5,353.2,212.8,352.1,217.6z"/>
	</g>
	<g id="XMLID_319_">
		<g id="XMLID_320_">
			<path id="XMLID_125_" class="st0" d="M216.8,223.5c0.7-0.2,1.4-0.5,2-0.7c0.3-0.2,0.6-0.1,0.8,0.1c2.2,1.9,4.4,3.8,6.7,5.5
				c1.7,1.3,4.2,3.9,6.3,4.5c1.3,1.3,1.9,0.6,1.8-2.1c-0.2-0.5-0.4-0.9-0.6-1.3c-0.5-1-1.1-2-1.7-3c-1.4-2.2-3.1-4.1-4.9-5.9
				c-0.5-0.5,0-1.3,0.7-1.2c2.4,0.6,4.7,1.2,7.1,1.8c1.1,0.3,2.2,0.6,3.3,0.8c0.5,0.1,1.1,0.3,1.6,0.4c0.4-1.1,0.2-1.9-0.5-2.5
				c-2.3-3.3-7.5-5.2-11-6.8c-0.5-0.2-0.4-1.2,0.2-1.3c2.3-0.3,4.6-0.7,6.9-1c1.2-0.2,4.8-0.1,5.7-0.9c2-1.7-0.8-2-1.9-2.3
				c-1-0.3-2.1-0.5-3.1-0.6c-2.5-0.3-4.8-0.2-7.3,0.1c-0.6,0.1-1.2-0.6-0.7-1.2c1.6-1.5,3.2-3,4.9-4.5c1.3-1.2,4.5-3.5,4.8-5.6
				c-6,2.3-11.5,5.5-16.5,9.6c1.1,1.6,1.5,3.5,1.3,5.5c-0.1,0.9-1.5,0.5-1.3-0.4c0.2-1.4-0.1-2.8-0.8-4c-0.5,0.3-1.2-0.1-1-0.8
				c0.9-2.5,1.5-5.1,1.7-7.7c0.1-0.9,0.3-2.2,0.1-3.1c0.2-1.1,0.1-1.3-0.5-0.7c-0.6,0.2-0.8,0.7-0.8,1.3c-1.9,3.6-3.1,7.6-4.8,11.3
				c0,0.1-0.1,0.2-0.1,0.3c0,0.1-0.1,0.2-0.1,0.3c-0.2,0.5-0.7,0.4-1,0.2c-12.4,3.3-25,4.7-37.6,5.1c0,0.1,0,0.1-0.1,0.2
				c-4,6.6-3.7,14.5,0.8,20.8c11.6-1.9,23.2-4.8,34.4-8.2c0.4-0.1,0.7,0.1,0.8,0.5c0.4-0.1,0.8-0.3,1.2-0.4c0.9-0.4,1.9-0.9,2.8-1.3
				C216.1,223.9,216.3,223.5,216.8,223.5z"/>
			<path id="XMLID_124_" class="st2" d="M174.5,212.8c-11.4,0.3-22.8-0.2-34.2-1c-0.1,0.1-0.2,0.1-0.4,0.1
				c-5.7,0.3-7.8,6.2-7.7,11.1c0.1,4.8,2.5,8.3,6.8,10.3c7.3,3.3,15.8,3.1,23.6,2.3c4.2-0.4,8.5-1,12.7-1.7
				C171,227.5,170.7,219.5,174.5,212.8z"/>
		</g>
		<path id="XMLID_116_" class="st1" d="M243.8,208.6c-0.5-1.8-3.8-2.4-5.2-2.7c-2.6-0.6-5.2-0.7-7.9-0.5c2.3-2.1,4.6-4.1,6.7-6.3
			c1.3-1.4,2.2-2.7,1.7-4.6c-0.1-0.3-0.5-0.6-0.9-0.5c-6.1,2.3-11.7,5.5-16.9,9.5c0.6-2.5,1.2-4.9,1.2-7.6c0-1.3,0.3-3.9-1.5-4.2
			c-1.8-0.3-2.2,2.3-2.6,3.5c-1.4,3.7-2.9,7.4-4.7,11c-25.2,6.8-51.5,5.8-77.4,4c-0.8-0.1-0.9,1.1-0.1,1.4
			c-4.8,2.5-6.3,9.5-5.1,14.7c1.9,8.4,12,10.6,19.4,11.1c9.8,0.7,19.9-1.1,29.5-2.9c10.7-1.9,21.2-4.5,31.6-7.7
			c0.9-0.3,0.5-1.6-0.4-1.3c-11.2,3.5-22.8,6.3-34.4,8.2c-4.5-6.3-4.9-14.1-0.8-20.7c0-0.1,0.1-0.1,0.1-0.2
			c13-0.4,25.8-1.9,38.4-5.4c0.1,0,0.1-0.1,0.2-0.1c0,0,0,0,0.1,0c0,0,0,0,0,0c0.2-0.1,0.3-0.3,0.3-0.5c1.9-3.8,3.1-7.2,4.7-11.2
			c0.3-0.7,0.4-0.9,0.8-1.3c0.6-0.6,0.5-0.4,0.5,0.7c0,0.9,0,2.1-0.1,3.1c-0.2,2.6-0.6,4.4-1.4,6.8c-0.1,0.1-0.1,0.3-0.1,0.4
			c0,0.2,0.1,0.4,0.3,0.6c1,1.3,1.6,3,1.3,4.6c-0.1,0.9,1.2,1.3,1.3,0.4c0.3-2-0.2-3.8-1.3-5.5c5-4.1,10.5-7.3,16.5-9.6
			c-0.3,2.2-3.5,4.4-4.8,5.6c-1.6,1.5-3.2,3-4.9,4.5c-0.6,0.5,0,1.3,0.7,1.2c2.4-0.4,4.8-0.5,7.3-0.1c1,0.1,2.1,0.3,3.1,0.6
			c1,0.3,3.9,0.6,1.9,2.3c-0.9,0.8-4.5,0.7-5.7,0.9c-2.3,0.3-4.6,0.7-6.9,1c-0.6,0.1-0.7,1-0.2,1.3c3.5,1.6,8.7,3.6,11,6.8
			c0.7,0.6,0.9,1.4,0.5,2.5c-0.5-0.1-1.1-0.3-1.6-0.4c-1.1-0.3-2.2-0.6-3.3-0.8c-2.4-0.6-4.7-1.2-7.1-1.8c-0.7-0.2-1.2,0.7-0.7,1.2
			c1.9,1.8,3.5,3.8,4.9,5.9c0.6,1,1.2,2,1.7,3c0.2,0.4,0.4,0.9,0.6,1.3c0.1,2.7-0.5,3.4-1.8,2.1c-2.1-0.6-4.6-3.2-6.3-4.5
			c-2.3-1.8-4.5-3.6-6.7-5.5c-0.2-0.2-0.6-0.3-0.8-0.1c-0.7,0.2-1.4,0.5-2,0.7c-0.9,0.1-0.9,1.5,0,1.4c2.3-0.2,2.3-0.6,4.4,1.2
			c1.5,1.2,2.9,2.4,4.5,3.6c2,1.6,4.1,3.1,6.3,4.5c0.9,0.6,2,1.5,3.1,1.2c4.6-1.4-1.8-9.9-5.3-13.9c3.2,0.9,6.4,2,9.6,2.5
			c1.3,0.2,2.6,0.1,2.7-1.5c0.2-2.3-2.8-4.4-4.4-5.5c-2.1-1.6-4.4-2.8-6.7-3.9c3.3-0.5,6.6-0.9,9.8-1.5
			C242.3,211,244.3,210.5,243.8,208.6z M175.3,233.9c-4.2,0.7-8.5,1.2-12.7,1.7c-7.8,0.8-16.3,1-23.6-2.3c-4.4-2-6.7-5.5-6.8-10.3
			c-0.1-4.9,1.9-10.8,7.7-11.1c0.1,0,0.3-0.1,0.4-0.1c11.4,0.7,22.8,1.3,34.2,1C170.7,219.5,171,227.5,175.3,233.9z"/>
	</g>
	<g id="XMLID_33_">
		<g id="XMLID_207_">
			<path id="XMLID_112_" class="st2" d="M246.1,214c1.4-9.5-0.8-19.7-7.2-27.2c-5.7-6.6-14.6-10.7-23.4-9.9
				c-8.5,0.8-16.8,6-23.1,11.5c-5.9,5.2-9.9,11.8-11.9,19.3c-4.2,15.6-1,32.7,4,47.7c11,33.3,34.2,60.6,57.2,86.4
				c8.9-16.2,20-31,31.6-45.3c19.5-24,48.2-51,43-85.1c-1.1-7.3-3.9-15.1-9.2-20.5c-6.1-6.2-16.3-4.3-23.9-2.3
				c-14.5,3.7-27.3,12.8-35.6,25.3c0,0.1-0.1,0.1-0.2,0.2c0,0.1,0,0.2,0,0.3C247.3,215.2,246,214.8,246.1,214z"/>
			<g id="XMLID_209_">
				<path id="XMLID_114_" class="st1" d="M247.6,213.9c8.3-12.5,21.1-21.6,35.6-25.3c7.6-1.9,17.8-3.9,23.9,2.3
					c5.3,5.4,8.1,13.2,9.2,20.5c5.1,34.1-23.5,61.1-43,85.1c-11.8,14.5-23.1,29.5-32,46c-0.4,0.8,0.8,1.5,1.2,0.7
					c9.1-16.7,20.5-31.9,32.5-46.6c11.3-13.8,23.8-27.1,32.8-42.6c7.8-13.5,12.5-29.3,9.5-44.9c-1.4-7.1-4.5-14.9-9.9-19.9
					c-5.4-5-13.2-4.1-20-3c-16.7,2.9-31.7,12.8-41.1,26.9C245.9,213.9,247.1,214.6,247.6,213.9z"/>
				<path id="XMLID_113_" class="st1" d="M247.4,214.3c2.2-15.3-4.8-31.5-19.9-37.1c-7.3-2.7-15-2.1-22.1,1.1
					c-7.4,3.3-14.8,8.7-19.7,15.2c-9.9,13.2-9.7,31.1-6.7,46.6c3.5,18.2,11.3,35.4,21.1,51.1c11.7,18.8,26.3,35.6,41.1,52.1
					c0.6,0.7,1.6-0.3,1-1c-23.2-25.9-46.6-53.3-57.7-86.9c-5-15-8.2-32.1-4-47.7c2-7.6,6-14.2,11.9-19.3
					c6.3-5.5,14.5-10.7,23.1-11.5c8.8-0.8,17.7,3.2,23.4,9.9c6.4,7.4,8.5,17.6,7.2,27.2C246,214.8,247.3,215.2,247.4,214.3z"/>
			</g>
		</g>
		<g id="XMLID_147_">
			<path id="XMLID_152_" class="st2" d="M78.2,257.4c-1.2,0.9-1.4,4-1.4,5.2c0.1,1.8,0.7,3.4,1.6,4.8c0.2,0.3,0.1,0.6-0.1,0.8
				c-0.1,0.2-0.4,0.4-0.7,0.3c-2.1-0.7-8.9-3.8-8.5,1.3c0.2,2.5,3.3,4.9,5.2,6.1c4.2,2.8,9.3,3.4,14.2,3.7c-2.4-5-4-10.3-5.4-15.7
				C82.6,262.3,81.2,255.2,78.2,257.4z"/>
			<path id="XMLID_144_" class="st1" d="M90.1,280c0-0.1,0-0.2-0.1-0.3c-2.4-4.8-3.9-9.9-5.3-15c-0.7-2.6-1-7.4-3.7-8.8
				c-2.5-1.3-3.7,0-4.7,2.1c-1.3,2.9-1.2,5.9,0.1,8.7c-2.4-0.9-5.5-2-7.4-0.7c-2.3,1.6-1.4,4.7-0.2,6.7c4.5,6.9,13.3,8.1,20.8,8.5
				C90.3,281.3,90.5,280.4,90.1,280z M69,269.9c-0.4-5.2,6.5-2,8.5-1.3c0.3,0.1,0.6,0,0.7-0.3c0.2-0.2,0.3-0.5,0.1-0.8
				c-0.9-1.5-1.5-3.1-1.6-4.8c0-1.2,0.2-4.3,1.4-5.2c3-2.2,4.4,4.8,4.8,6.6c1.4,5.4,3,10.7,5.4,15.7c-4.9-0.3-10-0.9-14.2-3.7
				C72.4,274.8,69.2,272.4,69,269.9z"/>
		</g>
		<g id="XMLID_139_">
			<path id="XMLID_180_" class="st2" d="M34.2,171.9c-0.1-0.6-0.2-1.2-0.4-1.8c-0.7-2.3-3.7-2.3-4.7-0.2c-1.6,3.4-1.1,8.1-0.2,11.6
				c0.1,0.6-0.4,0.9-0.9,0.8c-0.1,0-0.2,0-0.3-0.1c-2.3-1.1-8.7-3.4-8.7,0.9c0,3.1,1.6,6,3.8,8c3.8,3.6,9.6,5.4,14.8,5.5
				c-1.2-6.2-1.6-12.5-2.3-18.7C34.9,175.9,34.6,173.9,34.2,171.9z"/>
			<path id="XMLID_142_" class="st1" d="M36.6,178.5c-0.4-3.4-0.3-8.8-2.8-11.4c-1.9-2-4.4-0.9-5.6,1.2c-2,3.4-1.7,8.3-0.9,12.2
				c-2.6-1.1-6.6-2.3-8.6-0.6c-1.9,1.6-1,5.4-0.2,7.3c2.9,7.3,12.2,10.9,19.5,10.8c0.4,0,0.7-0.3,0.7-0.7c0.2-0.1,0.4-0.4,0.4-0.8
				C37.6,190.6,37.3,184.6,36.6,178.5z M22.7,191.2c-2.2-2.1-3.8-4.9-3.8-8c0.1-4.3,6.4-2,8.7-0.9c0.1,0,0.2,0.1,0.3,0.1
				c0.4,0.1,1-0.3,0.9-0.8c-0.8-3.5-1.4-8.2,0.2-11.6c1-2.1,4-2.1,4.7,0.2c0.2,0.6,0.3,1.2,0.4,1.8c0.4,2,0.7,4,0.9,6.1
				c0.8,6.2,1.1,12.5,2.3,18.7C32.3,196.6,26.5,194.7,22.7,191.2z"/>
		</g>
		<g id="XMLID_138_">
			<path id="XMLID_181_" class="st2" d="M90.8,89.3c-2-0.3-4.1,2-4.9,3.5c-1.1,2.1-1.1,4.4-0.7,6.7c0,0,0,0.1,0,0.1
				c0.3,0.2,0.6,0.4,1,0.6c0.8,0.5,0.1,1.7-0.7,1.2c-1.7-1.1-3.6-2.1-5.6-2.1c-3.1-0.1-5.8,2.2-4.3,5.5c1.2,2.7,5.6,3.6,8.1,4.7
				c4.1,1.9,7.1,4.7,9.1,8.6c1.7-6.2,2.9-12.8,2.6-19.3C95.2,95.6,94.9,90,90.8,89.3z"/>
			<path id="XMLID_143_" class="st1" d="M94.8,90.3c-1.5-2.6-4.9-3.2-7.3-1.4c-3.2,2.4-4.2,6.2-3.8,10c-2.2-1-4.6-1.4-6.8-0.5
				c-2.3,0.9-4,3.2-3.2,5.7c0.9,3,3.9,4.3,6.5,5.4c5.3,2.3,9.7,5,11.8,10.6c0,0.1,0,0.2-0.1,0.2c-0.3,0.9,1.1,1.2,1.3,0.4
				c1.8-5.8,2.9-11.7,3.3-17.7C96.8,98.9,96.9,94,94.8,90.3z M92.6,118.1c-1.9-3.9-5-6.7-9.1-8.6c-2.4-1.1-6.9-2.1-8.1-4.7
				c-1.4-3.3,1.2-5.5,4.3-5.5c2.1,0.1,3.9,1,5.6,2.1c0.8,0.5,1.5-0.7,0.7-1.2c-0.3-0.2-0.6-0.4-1-0.6c0,0,0-0.1,0-0.1
				c-0.4-2.2-0.5-4.6,0.7-6.7c0.9-1.5,2.9-3.9,4.9-3.5c4,0.7,4.3,6.3,4.4,9.5C95.5,105.3,94.4,111.8,92.6,118.1z"/>
		</g>
		<g id="XMLID_148_">
			<path id="XMLID_189_" class="st2" d="M207.7,113.7c-2.3,3.2-3.1,7.1-2.8,10.9c0,0.2-0.1,0.4-0.2,0.5c-0.2,0.4-0.7,0.7-1.1,0.3
				c-3.6-3.3-11-5.4-13.3,0.6c-1,2.7-1.2,5.5,2.2,6.3c1.9,0.5,4,0,5.9,0.2c5.8,0.6,9.3,5.1,12.3,9.6c3.2-7,6.5-14.4,6.2-22.2
				c-0.1-2.1-0.3-4.5-1.3-6.3C213.6,110.2,209.8,110.7,207.7,113.7z"/>
			<path id="XMLID_141_" class="st1" d="M216.3,112.2c-2.1-2.8-5.8-3.4-8.3-0.9c-3.2,3.1-4.5,7.9-4.5,12.3c-2.8-2.1-6.5-3.4-9.9-2.4
				c-3.6,1-5.2,4.7-5.3,8.2c-0.1,4.6,3.7,4.5,7.4,4.5c3.6,0,6.5,0.7,9.2,3.2c2,1.9,3.5,4.2,5,6.5c0.1,0.2,0.3,0.3,0.5,0.3
				c0.3,0.3,0.8,0.4,1.1-0.1c2.5-5.5,5.1-11,6.2-17C218.6,122.3,219.2,116,216.3,112.2z M210.7,142.1c-3-4.5-6.5-9-12.3-9.6
				c-1.9-0.2-4,0.3-5.9-0.2c-3.4-0.8-3.2-3.6-2.2-6.3c2.2-6,9.7-3.9,13.3-0.6c0.4,0.4,1,0.1,1.1-0.3c0.1-0.1,0.2-0.3,0.2-0.5
				c-0.3-3.8,0.6-7.7,2.8-10.9c2.1-2.9,5.9-3.4,7.9,0c1.1,1.8,1.3,4.2,1.3,6.3C217.2,127.7,213.9,135.2,210.7,142.1z"/>
		</g>
		<g id="XMLID_149_">
			<path id="XMLID_193_" class="st2" d="M303,80.7c-3.6,2.1-5.4,5.8-6.3,9.7c0,0.2-0.1,0.3-0.2,0.3c-0.3,0.4-0.9,0.6-1.1,0
				c-1.6-3.4-4.4-6.9-8.3-7.8c-3.1-0.8-6.8,1.2-6,4.7c0.5,2.3,2.8,3.4,4.6,4.6c3.7,2.4,9.3,5.9,10.1,10.7c4.3-4.7,10-8.3,12.7-14.1
				c0.9-1.9,1.9-5,1.1-7.1C308.6,78.5,305.3,79.3,303,80.7z"/>
			<path id="XMLID_140_" class="st1" d="M310.9,80.8c-1-3.8-4.8-3.3-7.8-1.8c-3.9,1.9-6.2,5.5-7.4,9.6c-3.1-5-11-11.1-15.4-4.7
				c-1.8,2.7-0.4,5.8,1.9,7.6c3.9,3.2,12.4,6.6,12.3,12.6c0,0.1,0,0.2,0,0.2c-0.3,0.7,0.5,1.5,1.1,0.8
				C301.2,98.3,313.8,91.5,310.9,80.8z M308.6,88.8c-2.7,5.9-8.5,9.4-12.7,14.1c-0.8-4.7-6.4-8.2-10.1-10.7
				c-1.8-1.2-4.1-2.4-4.6-4.6c-0.8-3.5,2.9-5.4,6-4.7c3.8,0.9,6.7,4.4,8.3,7.8c0.3,0.6,0.9,0.4,1.1,0c0.1-0.1,0.2-0.2,0.2-0.3
				c0.8-3.9,2.7-7.7,6.3-9.7c2.3-1.3,5.6-2.1,6.7,1C310.4,83.8,309.5,86.8,308.6,88.8z"/>
		</g>
		<g id="XMLID_150_">
			<path id="XMLID_146_" class="st2" d="M429.9,151.3c2.9-3.2,5.7-6.4,8.6-9.7c3-3.3,5.9-6.7,7.7-10.9c0.9-2.1,1.5-4.3,1.5-6.6
				c0-2.3-0.1-5.2-4.2-4.1c-1,0.3-1.9,1.2-2.6,1.9c-2.8,2.7-4,6.5-3.6,10.3c0.1,0.5-0.3,0.7-0.7,0.7c-0.3,0.1-0.7,0-0.9-0.5
				c-1.1-4.2-3.4-9.1-8.7-7.2c-1.8,0.6-3.3,2.1-4.2,3.7c-1.3,2.4-0.4,5,0.7,7.2C426.1,141.2,429.6,145.6,429.9,151.3z"/>
			<path id="XMLID_56_" class="st1" d="M448.9,122c-0.7-4.7-4.4-4.7-7.7-2.1c-2.8,2.1-4.6,5.2-5.1,8.6c-0.9-2.2-2.2-4.1-4.7-4.9
				c-3.2-1-6.5,0.5-8.5,2.9c-2.4,2.9-2.3,6-0.8,9.3c2.5,5.5,6.8,10.2,6.5,16.6c0,0.8,1,0.9,1.3,0.3c0.2,0.1,0.5,0.1,0.7-0.2
				c4.5-5,9.2-9.9,13.3-15.2C447.1,133,449.7,127.6,448.9,122z M446.2,130.8c-1.8,4.1-4.7,7.6-7.7,10.9c-2.9,3.2-5.7,6.4-8.6,9.7
				c-0.2-5.7-3.8-10.2-6.2-15.2c-1.1-2.3-2-4.9-0.7-7.2c0.9-1.7,2.4-3.1,4.2-3.7c5.3-1.9,7.6,3,8.7,7.2c0.1,0.4,0.5,0.6,0.9,0.5
				c0.4,0,0.7-0.2,0.7-0.7c-0.4-3.8,0.8-7.6,3.6-10.3c0.7-0.7,1.6-1.6,2.6-1.9c4.2-1.1,4.2,1.8,4.2,4.1
				C447.7,126.4,447,128.7,446.2,130.8z"/>
		</g>
		<g id="XMLID_151_">
			<path id="XMLID_162_" class="st2" d="M435.8,234.3c-0.2,0.2-0.5,0.3-0.7,0.2c-0.5,0.4-1.4-0.2-1-0.9c2-3.8,5.4-11.9-0.9-13.8
				c-6.3-1.9-8.5,7.5-8.5,12c0,4.7,2,8.9,3.1,13.4c0.7,2.7,1,5.5,1.1,8.3c1.4-1.8,3.4-3.2,5.4-4.5c3.8-2.5,7.7-4.8,11.4-7.4
				c3.4-2.4,8.9-8,4.5-12.2C446,225.4,438.6,231.2,435.8,234.3z"/>
			<path id="XMLID_44_" class="st1" d="M447.6,226.9c-4-0.4-7.9,1.9-10.9,4.7c1.5-3.5,2.5-7.4,0.1-10.7c-2.4-3.5-7-3.3-9.9-0.3
				c-3.6,3.7-4.1,10.1-3.3,14.9c0.6,3.3,1.9,6.4,2.7,9.6c1,3.5,1.3,7.1,1.2,10.8c0,0.1-0.1,0.1-0.1,0.1c-0.1,0.3-0.1,0.5,0.1,0.7
				c0.2,0.7,1.3,0.6,1.4-0.2c0-0.1,0-0.2,0-0.3c1.4-2.8,4-4.5,6.6-6.2c2.9-1.9,5.9-3.8,8.8-5.7c3.7-2.4,8.1-5.3,8.6-10.1
				C453.3,230.5,451.3,227.2,447.6,226.9z M445.7,241.6c-3.7,2.6-7.6,4.9-11.4,7.4c-2,1.3-3.9,2.7-5.4,4.5c0-2.8-0.4-5.6-1.1-8.3
				c-1.1-4.5-3.1-8.7-3.1-13.4c0-4.4,2.1-13.9,8.5-12c6.3,1.9,2.9,10,0.9,13.8c-0.4,0.7,0.5,1.3,1,0.9c0.2,0.1,0.5,0.1,0.7-0.2
				c2.8-3.1,10.1-8.9,14.3-4.9C454.6,233.6,449.1,239.2,445.7,241.6z"/>
		</g>
	</g>
	<g id="XMLID_2_">
		<g id="XMLID_11_">
			<g id="XMLID_13_">
				<path id="XMLID_14_" class="st1" d="M14.1,365.7c-1.5,2.6-0.7,5.9,0.6,8.4c1.7,3.3,4.5,5.9,7.3,8.2c5.7,4.7,11.6,9,16.5,14.6
					c0.1,0.1,0.1,0.2,0.2,0.3c0.3,0.5,0,1.3-0.7,1.1c-6.2-2-12.8-2.6-19.3-1.7c-2.8,0.4-5.5,1.1-8.1,2c-2.6,0.9-7.3,2.6-8.6,5.3
					c-3.4,7.1,15.2,6.4,18.8,6.5c6.5,0.2,13.1,0.3,19.6,0.1c0.8,0,0.9,1.1,0.2,1.3c0,0-0.1,0.1-0.1,0.1c-1.9,1-4.4,2.2-5,4.5
					c-0.9,3.1,2,4.1,4.5,4c3.4-0.2,6.8-0.8,10.2-1.3c3.2-0.4,6.4-0.7,9.7-0.6c1.6,0.1,3.5,0.1,5.2,0.5c-1.7-4-2.9-8.2-3.5-12.5
					c-0.8-5.6-0.3-11.2-0.1-16.8c0.1-2.9,0.1-5.9-0.4-8.8c-0.2-1.2-0.5-3.6-1.4-4.5c-2.5-2.6-4.2,2.2-4.6,3.4
					c-1.6,4.8-1,10.1-0.4,15c0,0,0,0.1,0.1,0.1c0.4,0.8-0.8,1.5-1.2,0.7c-7.2-12.6-16-28.3-31.2-32.3
					C19.2,362.7,15.7,362.8,14.1,365.7z"/>
				<path id="XMLID_15_" class="st1" d="M66.7,419.9C66.6,419.9,66.6,419.9,66.7,419.9c-3.2-7.2-4.6-14.8-4.3-22.6
					c0.2-6.6,1.7-14.4-1.2-20.6c-1.9-4.2-5.2-2.3-6.8,1c-2.1,4.4-2.1,9.4-1.6,14.3c-4.2-7.2-8.6-14.4-14.7-20.3
					c-3.1-3-6.6-5.6-10.5-7.5c-3.1-1.5-6.8-3.1-10.3-2.4c-8.6,1.8-5.1,12.4-1.2,17c5.8,6.7,13.7,11.2,19.9,17.6
					c-6.5-1.7-13.2-2-19.8-0.7c-4.6,0.9-15.1,3.4-16.2,9.1c-0.4,1.9,1.3,4,2.9,5.1c2.7,1.9,6.9,1.5,10,1.7
					c8.2,0.5,16.4,0.7,24.6,0.5c-2.1,1.4-3.9,3.2-3.7,5.9c0.2,2.6,2.3,3.8,4.7,3.9c4.5,0.2,9.3-1.1,13.7-1.6c4.1-0.5,9.5-1,13.4,0.5
					c0.1,0.1,0.2,0.1,0.3,0.1C66.6,421.1,66.9,420.4,66.7,419.9z M50.1,419.2c-3.4,0.4-6.8,1.1-10.2,1.3c-2.5,0.1-5.4-0.8-4.5-4
					c0.6-2.2,3.1-3.5,5-4.5c0,0,0.1,0,0.1-0.1c0.7-0.2,0.6-1.4-0.2-1.3c-6.5,0.2-13.1,0.1-19.6-0.1c-3.6-0.1-22.1,0.5-18.8-6.5
					c1.3-2.7,6-4.4,8.6-5.3c2.6-0.9,5.4-1.6,8.1-2c6.5-1,13.1-0.3,19.3,1.7c0.7,0.2,1.1-0.6,0.7-1.1c0-0.1-0.1-0.2-0.2-0.3
					c-4.9-5.6-10.8-9.9-16.5-14.6c-2.8-2.4-5.6-4.9-7.3-8.2c-1.3-2.5-2-5.8-0.6-8.4c1.7-2.9,5.1-3,8-2.3c15.2,4,24,19.7,31.2,32.3
					c0.4,0.8,1.6,0.1,1.2-0.7c0,0,0-0.1-0.1-0.1c-0.6-4.9-1.2-10.2,0.4-15c0.4-1.2,2.1-6,4.6-3.4c0.9,0.9,1.2,3.3,1.4,4.5
					c0.5,2.9,0.5,5.9,0.4,8.8c-0.2,5.6-0.7,11.2,0.1,16.8c0.6,4.3,1.8,8.5,3.5,12.5c-1.7-0.4-3.6-0.4-5.2-0.5
					C56.5,418.5,53.3,418.8,50.1,419.2z"/>
			</g>
			<path id="XMLID_12_" class="st0" d="M66.7,419.9C66.6,419.9,66.6,419.9,66.7,419.9c-0.2-0.5-0.4-0.9-0.5-1.4
				c-1.9-1.8-3.9-3.5-6-5.1c0-0.2-0.1-0.4-0.2-0.5c-2.5-2.8-2.5-7.3-2.7-10.8c-0.2-3.6-0.1-7.2,0.3-10.8c0.1-1.1-1.6-1.1-1.7,0
				c-0.5,4.7-0.6,9.3-0.1,14c0.2,2,0.4,3.9,1.1,5.7c0,0,0,0,0,0c-8-12.9-17.9-24.5-29.5-34.3c-0.8-0.7-2.1,0.5-1.2,1.2
				c10.7,9,20,19.6,27.6,31.4c-9.3-5.3-19.9-8.2-30.7-8.3c-1.1,0-1.1,1.7,0,1.7c10.8,0.1,21.4,3.1,30.6,8.5
				c-4.5-0.6-9.1-0.1-13.4,1.8c-1,0.4-0.6,2.1,0.5,1.7c5.5-2.3,11.3-2.6,17-0.7c0.1,0,0.2,0,0.2,0c2.9,2,5.6,4.3,8.1,6.8
				C66.6,421,66.9,420.4,66.7,419.9z"/>
		</g>
		<g id="XMLID_3_">
			<g id="XMLID_5_">
				<path id="XMLID_6_" class="st1" d="M495.8,380.7c-1.8-0.5-3.7,0.2-5.4,0.7c-2.5,0.8-4.7,1.7-6.6,3.5c-0.1,0.1-0.2,0.1-0.3,0.2
					c-0.5,0.3-1.3-0.1-1.1-0.7c1.7-6.1,4-12,6.9-17.6c1.4-2.9,3-5.8,3.9-8.9c0.3-1.2,1.3-3.7,0.8-4.8c-0.6-1.4-2.2-2.4-3.6-2
					c-0.8,0.2-1.6,0.6-2.3,1c-5.1,2.6-8.6,7.6-11.3,12.4c-3.2,5.7-5.7,11.7-7.1,18.2c-0.1,0.7-1,0.6-1.3,0.1
					c-0.2-0.1-0.3-0.3-0.3-0.6c-0.1-2.5-0.6-4.8-1.8-6.9c-0.5-0.9-1.2-2.3-2.2-2.8c-3.7-2.1-4.5,0.8-4.6,3.1
					c-0.2,4.3,1.4,8.6,1.8,12.9c0.7,8-0.3,16-2.6,23.7c7.4-2.7,15.9-5.1,23.8-4.4c3.9,0.3,12,2.2,14.3-1.7
					c3.9-6.3-5.9-10.3-10.6-9.9c-0.5,0-0.7-0.4-0.6-0.8c-0.1-0.3-0.1-0.6,0.3-0.8c4-2.1,9.3-4.1,11.8-8.1
					C498.8,384.5,498.4,381.3,495.8,380.7z"/>
				<path id="XMLID_7_" class="st1" d="M488.4,394.8c5-2.5,13.7-7,11.1-12.9c-2.4-5.4-10.8-2.2-15.1,0.7c1.2-3.8,2.5-7.6,4.2-11.3
					c1.6-3.5,3.5-6.8,4.9-10.3c1.4-3.5,4.3-12.9-2.7-11.6c-5.8,1-10.4,6.4-13.4,11.1c-3.7,5.7-6.6,12-8.4,18.5
					c-0.6-3.2-2.2-6.6-4.9-8.3c-3.1-1.9-5.6,0.5-6,3.7c-0.4,2.7,0.4,5.5,0.9,8.1c0.7,3.4,1,6.9,1.1,10.4c0.1,6.9-1,13.7-3.2,20.2
					c-0.1,0.3,0,0.5,0.1,0.6c0.1,0.2,0.4,0.4,0.7,0.2c6.2-2.4,12.8-4.2,19.4-4.8c5.7-0.6,11.9,1.8,17.5,0.2c3.7-1,5-5.1,3.5-8.4
					C496.5,397.1,492.4,395.1,488.4,394.8z M496.7,406.1c-2.4,3.8-10.5,2-14.3,1.7c-7.9-0.7-16.3,1.7-23.8,4.4
					c2.4-7.7,3.4-15.7,2.6-23.7c-0.4-4.3-2-8.6-1.8-12.9c0.1-2.3,0.9-5.2,4.6-3.1c1,0.5,1.7,1.9,2.2,2.8c1.2,2.1,1.8,4.5,1.8,6.9
					c0,0.3,0.1,0.4,0.3,0.6c0.3,0.5,1.1,0.5,1.3-0.1c1.4-6.4,3.9-12.5,7.1-18.2c2.7-4.9,6.2-9.8,11.3-12.4c0.7-0.4,1.5-0.7,2.3-1
					c1.4-0.4,3,0.5,3.6,2c0.5,1.2-0.4,3.6-0.8,4.8c-0.9,3.1-2.4,6-3.9,8.9c-2.8,5.7-5.1,11.5-6.9,17.6c-0.2,0.7,0.6,1,1.1,0.7
					c0.1,0,0.2-0.1,0.3-0.2c1.9-1.8,4.2-2.8,6.6-3.5c1.7-0.5,3.6-1.2,5.4-0.7c2.6,0.7,2.9,3.8,1.7,5.9c-2.4,4-7.8,6-11.8,8.1
					c-0.4,0.2-0.4,0.5-0.3,0.8c-0.1,0.4,0.2,0.8,0.6,0.8C490.8,395.8,500.6,399.9,496.7,406.1z"/>
			</g>
			<path id="XMLID_4_" class="st0" d="M486.9,403.2c-4.5-1.2-9-0.8-13.4,0.4c-3.3,0.9-7.1,1.9-10.3,3.5c1-1.5,2-3,2.9-4.6
				c6.4-7.4,15.4-11.5,24.6-14.3c0.8-0.2,0.4-1.4-0.3-1.2c-7.9,2.5-15.8,5.9-22,11.5c1-1.9,1.9-3.8,2.9-5.7
				c4.3-9,8.4-18.1,11.9-27.5c0.3-0.8-0.9-1.1-1.2-0.3c-3.4,9.3-7.5,18.3-11.7,27.2c-1.6,3.3-3.2,6.5-5,9.7c0,0-0.1,0.1-0.1,0.1
				c-0.1,0.1-0.1,0.2-0.1,0.3c-0.3,0.5-0.6,0.9-0.8,1.4c0.8-4,0.6-8.1,0.2-12.3c-0.1-0.8-1.3-0.8-1.2,0c0.5,5.5,0.9,11.1-1.6,16.2
				c-1.3,1.8-2.8,3.6-4.4,5.3c0,0.1-0.1,0.3-0.1,0.4c-0.1,0.2,0,0.4,0.1,0.6c0.1,0.2,0.3,0.3,0.6,0.2c1.3-1.3,2.5-2.8,3.7-4.2
				c3.2-2.4,7.8-3.7,11.6-4.8c4.5-1.3,9.1-1.8,13.7-0.6C487.3,404.6,487.7,403.4,486.9,403.2z"/>
		</g>
	</g>
	<g>
		<path id="XMLID_21_" class="st1" d="M61.9,365.3c5.5,8.4,11.3,17.2,20.2,22.5c3.8,2.2,8,3.8,12.3,4.1c5.3,0.4,10.4-1.2,15.3-2.9
			c0.8-0.3,0.5-1.6-0.4-1.3c-4.7,1.6-9.5,3.2-14.5,2.9c-4.6-0.3-9.1-2-13-4.5c-8.2-5.2-13.6-13.5-18.8-21.4
			C62.6,363.9,61.4,364.6,61.9,365.3z"/>
		<path id="XMLID_20_" class="st1" d="M79.9,395.1c5.8,3.7,12.9,4.3,19.3,1.7c0.8-0.3,0.5-1.7-0.4-1.3c-6.1,2.5-12.7,1.9-18.2-1.5
			C79.9,393.4,79.2,394.6,79.9,395.1z"/>
		<g id="XMLID_63_">
			<g id="XMLID_68_">
				<path id="XMLID_103_" class="st2" d="M126.5,211c-5.1,0.3-13.9,1-16.3,6.3c-0.1,0.2-0.2,0.3-0.3,0.3
					c-6.4,13.2-6.2,27.9-5.9,42.2c0.1,4.5,0.2,9.1,0.7,13.6c0.4,3.9,0.6,8.8,3.8,11.5c4.1,3.5,8.1,6.2,13.4,7.3
					c6.8,1.5,14.7,0.3,21.6-0.6c6.5-0.8,13.3-2.7,16.5-9c2.9-5.7,2.3-12.5,1.6-18.6c-1.7-14.3-6.4-28.1-11-41.7
					c-0.2-0.5,0.2-0.8,0.5-0.8c-1.9-2.9-3.9-5.6-6.1-7.9c0,0-0.1,0-0.2,0C138.9,211.6,132.7,210.7,126.5,211z"/>
				<path id="XMLID_70_" class="st1" d="M151.9,222.1c-0.3-0.8-1.6-0.5-1.3,0.4c4.6,13.6,9.3,27.4,11,41.7c0.7,6.1,1.3,13-1.6,18.6
					c-3.2,6.3-10.1,8.1-16.5,9c-6.9,0.9-14.8,2-21.6,0.6c-5.3-1.1-9.4-3.8-13.4-7.3c-3.2-2.7-3.4-7.6-3.8-11.5
					c-0.4-4.5-0.5-9.1-0.7-13.6c-0.4-14.3-0.5-29,5.9-42.2c0.1-0.1,0.2-0.1,0.3-0.3c2.5-5.3,11.2-6,16.3-6.3
					c6.3-0.4,12.8,2,18.6,1.2c0.9-0.1,1.2-1.2,0.3-1.3c-7.3-0.5-14.8-2-22.2-1c-4.6,0.6-11.1,1.5-13.8,5.9c-0.1,0-0.3,0.1-0.4,0.3
					c-6.6,13-6.9,27.7-6.5,42c0.1,5.1,0.2,10.3,0.7,15.4c0.3,3.6,0.5,8.4,2.9,11.3c2.8,3.5,7.6,6.5,11.8,7.9
					c7.2,2.4,14.9,1.6,22.3,0.8c5.8-0.6,12.1-1.3,16.8-5c4.7-3.7,6.2-9.5,6.4-15.2C164.1,255.9,157.4,238.2,151.9,222.1z"/>
			</g>
			<g id="XMLID_213_">
				<g id="XMLID_218_">
					<path id="XMLID_48_" class="st1" d="M70,293.8c-0.1-0.1-0.2-0.2-0.4-0.2c0,0,0,0,0,0c0,0-0.1,0-0.1-0.1c-0.2-0.1-0.4-0.1-0.5,0
						c-3.5-0.6-6.6,1.1-9.7,2.5c-4.2,1.9-8.5,3.9-12.5,6.2c-2.4,1.3-15.7,8.5-8.3,12.1c0.1,0,0.1,0,0.2,0.1
						c3.4,1.6,7.1,1.2,10.8,0.8c5-0.6,9.8-1.6,14.6-3.3c0.2,0.1,0.5,0.1,0.7-0.1c3.5-3,4.8-6.4,6.3-10.7
						C71.9,298.4,72.5,295.4,70,293.8z M68.7,303.4c-1,2.8-2.3,4.9-4.5,6.8c-0.1,0-0.1,0-0.2,0c-4,1.5-8.1,2.4-12.3,3.1
						c-4.3,0.7-9.1,1.6-13-0.7c-3-2.2,3-5.8,4-6.5c0.9-0.6,1.9-1.2,2.9-1.7c2.3-1.3,4.6-2.5,6.9-3.7c2.3-1.2,4.7-2.3,7.1-3.4
						c3-1.4,6.2-3.4,9.6-2.5C71.9,296.6,69.6,301.1,68.7,303.4z"/>
					<path id="XMLID_60_" class="st0" d="M59.6,297.4c-2.4,1.1-4.7,2.2-7.1,3.4c-2.3,1.2-4.6,2.4-6.9,3.7c-1,0.6-1.9,1.1-2.9,1.7
						c-1.1,0.7-7.1,4.4-4,6.5c3.9,2.3,8.7,1.3,13,0.7c4.2-0.6,8.3-1.6,12.3-3.1c0.1,0,0.1,0,0.2,0c2.2-2,3.4-4,4.5-6.8
						c0.9-2.4,3.3-6.8,0.5-8.6C65.7,294,62.6,296,59.6,297.4z"/>
				</g>
				<g id="XMLID_214_">
					<g id="XMLID_216_">
						<path id="XMLID_59_" class="st1" d="M219.4,397.6c-2.4,3.1-3.8,6.6-3.9,10.5c-0.1,2.7,0.4,7.9,2.8,9.6
							c2.7,1.8,6.5-2.2,8.3-3.9c3.6-3.3,6.5-7.2,9.4-11c2.9-3.9,6-8,7.1-12.8c0.5-2,1.4-6.2-1.7-6.4c-1.9-0.1-4.3,1.6-5.9,2.5
							c-2.3,1.3-4.6,2.7-6.8,4c-2.1,1.3-4.5,2.4-6.5,3.9c-1.6,1.2-1.9,3-3.3,4.2c-0.7,0.6,0.3,1.6,1,1c0.7-0.6,0.9-1.2,1.3-2
							c1.1-1.7,2.6-2.5,4.3-3.5c3.1-1.8,6.1-3.7,9.2-5.5c1.5-0.9,3-1.7,4.5-2.4c1.9-0.8,2.8-0.2,2.7,2.1c0,0.8-0.2,1.6-0.4,2.4
							c-0.9,3.5-3,6.5-5,9.4c-3.7,5.2-7.6,10.5-12.5,14.6c-1.7,1.4-1.8,1.8-4,1.6c-2.1-0.1-2-0.6-2.6-2.5c-0.5-1.5-0.7-3.1-0.7-4.7
							c0-3.7,1.3-7.1,3.5-10C221,397.9,220,396.9,219.4,397.6z"/>
					</g>
					<path id="XMLID_58_" class="st0" d="M239.4,385.7c-1.6,0.7-3.1,1.6-4.5,2.4c-3.1,1.8-6.2,3.7-9.2,5.5c-1.7,1-3.2,1.8-4.3,3.5
						c-0.5,0.8-0.6,1.4-1.3,2c0,0,0,0,0,0c-2,2.7-3,6-3.1,9.4c0,1.6,0.2,3.2,0.7,4.7c0.6,1.8,0.6,2.3,2.6,2.5c2.1,0.1,2.3-0.2,4-1.6
						c5-4.1,8.8-9.4,12.5-14.6c2.1-2.9,4.1-6,5-9.4c0.2-0.8,0.4-1.6,0.4-2.4C242.2,385.6,241.3,384.9,239.4,385.7z"/>
				</g>
			</g>
			<g id="XMLID_196_">
				<path id="XMLID_46_" class="st0" d="M103.8,335.5c-8.8,5.5-16-3.1-21-9.4c-6-7.6-10.6-16.3-12.7-25.8c-5,3.6-9.1,8-12.3,13.3
					c0,0,0,0,0,0.1c0.5,6.5,3,13.2,5,19.3c2,6.1,4.2,12.1,7.1,17.8c5.2,10.1,12.5,19.1,22.4,24.8c0.1,0.1,0.2,0.1,0.2,0.2
					c6.5,4,15.7,5.7,23.2,4.3c5.9-1.1,11.2-4.6,15.5-8.6c10.4-9.7,14.2-23.7,17.2-37.1c1.1-7.6,2.4-15.2,3.8-22.8
					c0.7-3.4,0.9-7.7,2.3-10.8c1.2-2.5,3.8-4.6,5.9-6.3c0.7-0.6,1.7,0.4,1,1c-3,2.6-5.5,4.9-6.4,8.9c-0.7,3.3-1.3,6.6-1.9,10
					c-1.2,6.5-2.3,13-3.2,19.5c0,0.1,0,0.2,0,0.3c0,0.2-0.1,0.4-0.1,0.6c0,0.1,0,0.2,0,0.3c0,0.1,0,0.1,0,0.1
					c-0.4,1.9-0.9,3.8-1.4,5.7c0,0,0,0,0,0c7.9,13.1,18.7,24,29.9,34.3c5.8,5.3,11.7,10.6,17.7,15.7c6.3,5.3,12.7,11,19.7,15.2
					c4.3-2.9,9.1-8.1,10.1-13.3c0-0.1,0.1-0.2,0.1-0.3c-0.1,0-0.1-0.1-0.1-0.2c-4.8-7.6-9.6-15.3-14.3-23
					c-10.1-16.6-19.8-33.4-28.5-50.8c-8.3-16.6-15.8-33.9-20.5-51.9c-17.3,11.3-38.6,10.2-58.1,6.4c1.8,12,3.2,24,4.3,36.1
					C109.4,317.2,112.2,330.3,103.8,335.5z"/>
				<path id="XMLID_52_" class="st1" d="M226.9,392.5c0.2-0.2,0.4-0.5,0.1-0.8c-19.7-31.1-39.3-62.7-53.4-96.8
					c-4-9.6-8.3-19.6-10.4-29.8c-0.1-0.5-0.2-0.3-0.6-0.1c-17.3,11.7-38.8,10.5-58.3,6.7c0,0,0,0,0,0c0-0.1,0-0.2,0-0.3
					c-0.1-0.9-1.5-0.5-1.3,0.4c1.7,10.8,3,21.7,4,32.6c0.5,5.1,1,10.2,1.2,15.2c0.2,4.5,0.1,9.8-3.1,13.2c-3.7,3.9-9.8,3.9-13.8,0.4
					c-3.4-3-6.4-6.7-9.1-10.4c-5.3-7.3-9.1-15-10.8-23.9c-0.1-0.4-0.4-0.5-0.7-0.3c-0.2-0.1-0.3,0-0.5,0.1
					c-5.4,3.8-9.9,8.6-13.4,14.2c-0.1,0.1-0.1,0.2-0.1,0.3c-0.1,0.1-0.1,0.2-0.1,0.4c0.5,6.5,2.9,13,4.9,19.2
					c2,6.4,4.4,12.7,7.5,18.7c5.2,10.2,12.7,19.3,22.7,25.1c0.1,0.1,0.1,0.1,0.2,0.2c6.5,4.1,15.4,5.8,23,4.9
					c6.3-0.8,11.5-4,16.3-7.9c9.5-7.9,14-19.4,17.1-31.1c7.9,12.7,18.4,23.4,29.4,33.4c6.1,5.6,12.3,11.1,18.6,16.4
					c6.1,5.1,12.3,10.6,19.2,14.7c0.2,0.1,0.5,0.1,0.7,0c0.2,0.1,0.4,0.1,0.6,0c4.6-3,9.7-8.6,10.7-14.1
					C227.3,392.9,227.1,392.6,226.9,392.5z M225.9,392.8c-0.9,5.2-5.8,10.4-10.1,13.3c-7.1-4.2-13.4-9.9-19.7-15.2
					c-6-5.1-11.9-10.4-17.7-15.7c-11.2-10.3-22-21.2-29.9-34.3c0,0,0,0,0,0c0.5-1.9,0.9-3.8,1.4-5.7c0,0,0-0.1,0.1-0.1
					c0-0.1,0-0.2,0-0.3c0-0.2,0.1-0.4,0.1-0.6c0-0.1,0-0.2,0-0.3c1-6.5,2-13,3.2-19.5c0.6-3.3,1.3-6.7,1.9-10c0.8-4,3.3-6.3,6.4-8.9
					c0.7-0.6-0.3-1.6-1-1c-2.1,1.8-4.7,3.8-5.9,6.3c-1.5,3.2-1.7,7.4-2.3,10.8c-1.4,7.5-2.7,15.1-3.8,22.7
					c-3.1,13.5-6.8,27.4-17.2,37.1c-4.3,4.1-9.6,7.6-15.5,8.6c-7.5,1.3-16.7-0.3-23.2-4.4c-0.1-0.1-0.1-0.1-0.2-0.2
					c-9.9-5.7-17.3-14.7-22.4-24.8c-2.9-5.7-5.2-11.7-7.1-17.8c-2-6.2-4.5-12.8-5-19.4c0,0,0,0,0,0c3.2-5.3,7.3-9.7,12.3-13.3
					c2,9.8,6.4,18,12.7,25.8c5,6.3,12.2,14.9,21,9.4c8.3-5.2,5.6-18.3,4.9-26.3c-1-12.1-2.5-24.1-4.3-36.1
					c19.5,3.8,40.8,4.8,58.1-6.4c4.7,18,12.2,35.3,20.5,51.9c8.7,17.4,18.4,34.2,28.5,50.8c4.7,7.7,9.5,15.3,14.3,23
					c0,0.1,0.1,0.1,0.1,0.2C225.9,392.6,225.9,392.7,225.9,392.8z"/>
			</g>
			<g id="XMLID_32_">
				<g id="XMLID_69_">
					<path id="XMLID_87_" class="st1" d="M112.9,150.2c-3.9,3.2-6.8,7.6-8.3,12.4c-1.1,3.6-0.8,8.4-3.7,11.2
						c-1.4,1.3-3.2,1.7-4.9,2.1c-3,0.7-5.9,1.6-8.7,3c-5.3,2.6-8,9-4.5,14.3c1.1,1.6,2.4,2.7,2.3,4.8c-0.1,1.8-1.4,3.4-2.3,4.8
						c-1.7,2.5-3.1,5.1-3.8,8c-0.7,2.7-1.6,7.3,0.8,9.5c3.5,3.3,9.7-1.1,14,0.7c1.4,0.6,2,2.2,2.7,3.6c1.9,3.9,5.4,3.6,9.2,2.8
						c0.1-0.1,0.4-0.3,0.6-0.3c5-1.7,9.7,0.3,14.5-2.5c5-3,7.1-8.4,7.6-14c0.3-3.9,0.5-7.3,3-10.5c2.2-3,5.5-5,9-6.2
						c4.7-1.6,10.8-0.3,14.3-4.3c2.2-2.5,2.7-6.2,1.1-9.2c-0.9-1.8-3-2.6-3.8-4.4c-1.5-3.1,1.7-7.8,2.4-10.8c0.8-3.3,0.6-6.8-2.2-9
						c-2.1-1.7-4.8-2.2-7.4-1.3c-0.6,0.2-1-0.4-0.8-0.9c0,0-0.1-0.1-0.1-0.1C136.7,143.8,122.1,142.6,112.9,150.2z"/>
					<path id="XMLID_88_" class="st1" d="M156.1,178.4c-1.5-2.1-3.2-2.9-2.8-5.9c0.3-2.4,1.7-4.8,2.3-7.1c0.9-3.7,0.7-7.6-2.3-10.2
						c-2.3-2-5.4-2.8-8.3-2c0,0,0-0.1-0.1-0.1c-5.7-8.1-16.6-11.4-25.9-8c-4.6,1.7-8.5,4.8-11.4,8.6c-3.2,4.3-4.5,8.9-5.5,14.1
						c-0.3,1.8-0.8,3.7-2.1,5c-1.2,1.1-2.8,1.4-4.3,1.8c-3.2,0.8-6.5,1.8-9.5,3.4c-4.2,2.2-6.7,6.3-6.2,11.1c0.2,2.2,1,3.7,2.1,5.5
						c1.3,2.1,1.9,3.7,0.5,5.9c-0.9,1.5-2.1,2.9-2.9,4.5c-2.1,3.9-4.2,10.3-2.1,14.6c2.8,5.6,9.5,1.7,14,2.2c3.9,0.4,3.5,4.4,6.4,6
						c2.5,1.4,5.4,0.8,8,0.2c0.2,0,0.4-0.2,0.4-0.3c4.1-1.2,8.5,0.4,12.7-1.1c3.2-1.2,5.8-3.5,7.6-6.4c2.1-3.5,2.7-7.4,3-11.5
						c0.4-5.4,2.7-9.4,7.4-12.2c6.4-3.7,16.4-0.9,20-8.8C158.5,184.8,158.1,181.2,156.1,178.4z M154.5,189.5
						c-3.5,4-9.7,2.8-14.3,4.3c-3.5,1.2-6.7,3.2-9,6.2c-2.4,3.2-2.6,6.7-3,10.5c-0.5,5.5-2.6,11-7.6,14c-4.8,2.8-10,0.4-14.9,2.1
						c-0.2,0.1-0.3,0.2-0.3,0.3c-3.8,0.8-6.9,0.8-8.8-3.1c-0.6-1.3-1.4-2.2-2.8-2.8c-4.3-1.8-10.5,2.6-14-0.7
						c-2.4-2.2-1.5-6.8-0.8-9.5c0.7-2.9,2.1-5.5,3.8-8c1-1.4,2.2-3,2.3-4.8c0.2-2.1-1.2-3.1-2.3-4.8c-3.5-5.3-0.7-11.7,4.5-14.3
						c2.7-1.4,5.7-2.3,8.7-3c1.8-0.4,3.6-0.8,4.9-2.1c2.9-2.8,2.5-7.6,3.7-11.2c1.5-4.8,4.4-9.2,8.3-12.4c9.2-7.6,23.8-6.4,30.8,3.6
						c0,0,0.1,0.1,0.1,0.1c-0.1,0.5,0.2,1.1,0.8,0.9c2.6-0.9,5.3-0.4,7.4,1.3c2.8,2.3,3,5.7,2.2,9c-0.7,3-3.9,7.7-2.4,10.8
						c0.8,1.7,2.9,2.6,3.8,4.4C157.2,183.3,156.7,186.9,154.5,189.5z"/>
				</g>
				<g id="XMLID_18_">
					<g id="XMLID_249_">
						<g id="XMLID_256_">
							<path id="XMLID_82_" class="st0" d="M130.6,160.2c-2.9,1-5.6,2.6-8.2,4.2c-6.3,3.9-10.3,10.7-9.3,18.3c1.4,0.5,2.3,2,2.7,3.5
								c0.2,0.9-1.1,1.2-1.3,0.4c-0.5-1.9-1.8-3.8-4.1-1.8c-1,0.9-1.3,2.2-1.4,3.5c0,1.3,0.3,2.9,0.9,4c1.3,2.1,3.5,1.5,5.2,0.5
								c0.3-0.2,0.6-0.1,0.7,0.1c0.2,0,0.4,0.2,0.5,0.5c1.1,4.3,5.3,6.9,6.2,11.4c0.4,1.9,0.3,3.9-0.2,5.8c-0.2,1-2.4,5.5-1.9,6.3
								c0,0,0,0,0,0c4-0.1,7.9-0.6,11.8-1.6c1.5-0.4,3.1-0.5,3.4-2.2c0.2-1.1,0-2.2,0.3-3.3c0.5-2,1.6-3.3,3.3-4.4
								c2.9-1.7,5.3-2.6,6.8-5.9c2.9-6.2,3.5-14,3.6-20.7c0.1-6.3,0.5-17-7.5-18.6c-0.1,0-0.2,0-0.2-0.1
								C138.1,159.2,134.4,158.8,130.6,160.2z"/>
							<path id="XMLID_36_" class="st1" d="M151,173.5c-0.3-5.9-1.6-13.2-8.3-14.6c-0.1,0-0.1-0.1-0.2-0.1c-4.1-1-7.8-1.5-11.9-0.1
								c-3.7,1.3-7.4,3.3-10.6,5.6c-5.8,4.1-9.1,11.1-8.3,18.3c0,0,0,0-0.1,0c-2,0.3-3.5,2.3-3.9,4.2c-0.5,2.1,0.1,5.2,1.5,6.9
								c1.7,2,3.9,1.7,6,0.7c1.5,4.6,6.1,7.3,6.2,12.5c0.1,3.1-1.1,5.3-2.1,8.1c-0.4,1.1-0.7,2,0.3,2.9c0.2,0.1,0.3,0.2,0.5,0.2
								c0.1,0.1,0.3,0.2,0.5,0.2c4.1-0.1,8.2-0.7,12.1-1.7c2.2-0.6,4.1-0.6,4.4-3.1c0.3-2.6-0.1-4.7,2.3-6.5c1.3-1,3-1.5,4.4-2.4
								c2.3-1.6,3.6-4.2,4.4-6.8C150.7,190.1,151.4,181.5,151,173.5z M149.7,178.7c-0.2,6.7-0.7,14.5-3.6,20.7
								c-1.5,3.2-3.9,4.2-6.8,5.9c-1.7,1-2.9,2.4-3.3,4.4c-0.3,1.1,0,2.3-0.3,3.3c-0.3,1.7-1.9,1.8-3.4,2.2c-3.9,1-7.8,1.5-11.8,1.6
								c-0.6-0.8,1.6-5.2,1.9-6.3c0.4-1.9,0.5-3.9,0.2-5.8c-0.9-4.5-5.1-7-6.2-11.4c-0.1-0.3-0.3-0.4-0.5-0.5
								c-0.2-0.2-0.5-0.2-0.8-0.1c-1.7,0.9-3.9,1.5-5.2-0.5c-0.7-1.1-1-2.7-0.9-4c0-1.3,0.4-2.6,1.4-3.5c2.3-2,3.6-0.1,4.1,1.8
								c0.2,0.9,1.6,0.5,1.3-0.4c-0.4-1.5-1.3-3-2.7-3.5c-1-7.6,3.1-14.4,9.3-18.3c2.6-1.6,5.3-3.2,8.2-4.2c3.9-1.4,7.5-1,11.4-0.1
								c0.1,0,0.1,0.1,0.2,0.1C150.2,161.7,149.9,172.4,149.7,178.7z"/>
						</g>
						<g id="XMLID_250_">
							<g id="XMLID_251_">
								<path id="XMLID_81_" class="st1" d="M131,182.6c-0.9,0.8-0.9,2.2,0,3c0.3,0.3,0.8,0.2,1.1-0.1c0.6-0.8,0.7-1.9,0.4-2.9
									c-0.1-0.4-0.6-0.7-1-0.4c-0.3,0.2-0.5,0.4-0.6,0.8c-0.2,0.9,1.1,1.2,1.3,0.4l-0.1,0.1c-0.3-0.1-0.7-0.3-1-0.4
									c0.2,0.6,0.2,1.3-0.2,1.8c0.4,0,0.7-0.1,1.1-0.1c-0.3-0.3-0.3-0.8,0-1.1C132.6,183,131.6,182,131,182.6z"/>
								<path id="XMLID_80_" class="st1" d="M144,184.4c-0.7,0.9-0.7,2,0.1,2.8c0.2,0.2,0.6,0.3,0.8,0.1c0.9-0.7,1.1-1.8,0.4-2.7
									c-0.2-0.3-0.7-0.2-1,0c-0.3,0.3-0.2,0.7,0,1c0.1,0.1,0.1,0.4-0.1,0.5c0.3,0,0.6,0.1,0.8,0.1c-0.2-0.2-0.3-0.6-0.1-0.9
									c0.2-0.3,0.3-0.7,0-1C144.7,184.2,144.2,184.1,144,184.4z"/>
								<path id="XMLID_79_" class="st1" d="M139.5,186.2c0.5,0.7,1,1.5,1.2,2.4c0.2,0.9-0.1,2.2-1.2,2.3c-0.9,0.1-0.9,1.4,0,1.4
									c1.4-0.1,2.3-1.1,2.6-2.4c0.4-1.6-0.6-3.1-1.4-4.4C140.2,184.7,139,185.4,139.5,186.2z"/>
								<path id="XMLID_78_" class="st1" d="M132.8,191.6c1.3,2.2,3.6,3.6,6.2,3.6c0.9,0,0.9-1.4,0-1.4c-2.1,0-3.9-1.1-5-2.9
									C133.5,190.1,132.3,190.8,132.8,191.6z"/>
							</g>
						</g>
					</g>
					<g id="XMLID_244_">
						<path id="XMLID_76_" class="st1" d="M145.9,158.3c0.1-0.3,0.1-0.6-0.3-0.8c-8.6-4.9-18.4-5.3-26.5,0.8
							c-7.3,5.5-13.3,14.3-9.3,23.6c0,0.1,0.1,0.1,0.1,0.1c-0.1,0.4,0,0.8,0.4,0.9c2,0.4,3.4,1.6,4,3.6c0.1,0.5,0.6,0.6,1,0.4
							c3.5-1.6,7-3.3,9.6-6.3c2.9-3.4,4.4-7.9,9-9.3c3.6-1.1,6.6-1.3,9.1-4.3C145.3,164.6,146.2,161.5,145.9,158.3z M139.4,168.3
							c-3,1.6-6.5,1.2-9.2,3.4c-2.4,1.9-3.8,4.8-5.7,7.2c-2.4,3.1-5.7,4.8-9.1,6.4c-0.8-1.9-2.3-3.2-4.3-3.7c0-0.1,0-0.3,0-0.5
							c-4-9.2,3.2-18,10.5-22.9c7.1-4.8,15.8-3.8,23,0.2C144.8,162.4,143,166.4,139.4,168.3z"/>
						<path id="XMLID_75_" class="st1" d="M115.5,185.4c3.8-1,6.7-3.4,9.1-6.4c1.9-2.4,3.3-5.3,5.7-7.2c2.7-2.2,6.2-1.8,9.2-3.4
							c3.6-1.9,6.2-5.9,5.1-9.8c-7.2-4-15.9-4.9-23-0.2c-7.3,4.9-14.5,13.7-10.5,22.9c0.1,0.2,0.1,0.3,0,0.5
							C113,182.7,114.6,183.5,115.5,185.4z"/>
					</g>
				</g>
			</g>
			<g id="XMLID_167_">
				<g id="XMLID_168_">
					<path id="XMLID_73_" class="st2" d="M118,244.6c6.5,6.5,15.3,10.4,24.4,13c-2.2-5.3-3.9-11.2-3-17c0.9-5.5,4.2-8.6,8.4-11.4
						c-0.2-0.1-0.5-0.2-0.7-0.3c-5-2.2-9.8-5-14.4-8c-4.3-2.7-8.4-6.2-13-8.5c-13.8-6.9-15.5,16.3-14.3,24.4
						c0.1,0.6-0.4,0.9-0.9,0.9c1.1,0.8,2.3,1.4,3.8,1.7c0.4,0.2,0.8,0.5,1.2,0.7c0.8,0.5,1.6,1,2.3,1.4c1,0.7,2.1,1.4,3.1,2.1
						c0.6,0.5,1.2,0.9,1.8,1.4C116.7,244.6,117.5,244.1,118,244.6z"/>
					<path id="XMLID_89_" class="st0" d="M214.1,263.1c2.9,4.5,5.9,9,8.8,13.6c0-3.1-0.5-6.2-1.7-9.2c-0.3-0.7,0.7-1.1,1.2-0.7
						c3.9,3.3,8.3,6,13,8.1c-1.2-5.5-4.9-9.9-10.1-12.1c-0.7-0.3-0.3-1.3,0.4-1.3c2.3-0.1,4.6-0.1,6.8-0.2c0.9,0,2.6,0.2,3.4-0.1
						c1.3,0.3,1.6-0.2,0.8-1.5c-0.2-0.2-0.4-0.5-0.6-0.7c-2.8-3.5-7.5-5.4-11.8-5.8c-0.8-0.1-0.9-1.1-0.2-1.4c1-0.4,13-4.6,12.6-6.4
						c-0.4-1.7-12.7,0-13.9,1.2c-0.6,0.6-1.4-0.2-1.1-0.8c2.1-4.3,3-8.8,2.8-13.5c-3.8,4.9-7.8,9.8-14.1,11.2
						c-0.1,0.1-0.2,0.2-0.4,0.2c-10.9,0.6-21.5-2.6-32-5.3c-9.6-2.5-19.4-4.7-28.6-8.5c-4.7,3-8.2,6.1-8.8,12.1
						c-0.5,5.5,1.2,11,3.4,16c0,0,0,0.1,0,0.1c5.8,1.5,11.6,2.6,17.1,3.6c16.9,2.9,34.3,3.1,51.3,0.8c0.3,0,0.6,0.1,0.7,0.4
						C213.5,262.7,213.9,262.8,214.1,263.1z"/>
				</g>
				<path id="XMLID_106_" class="st1" d="M238.5,260c-0.9-2.3-3.9-4.4-6-5.6c-1.7-1-3.6-1.7-5.5-2.2c4.6-1.6,12.6-4.7,11.5-8.3
					c-0.1-0.2-0.2-0.4-0.5-0.5c-3-0.6-6.7,0.2-9.8,0.5c-1.4,0.1-3,0.1-4.4,0.6c1.8-4.5,2.5-9.2,1.9-14.1c-0.1-0.7-0.9-0.9-1.3-0.4
					c-4,5.2-8,10.9-14.8,12.2c0,0,0,0,0,0c-9.9,0.5-19.4-2.2-28.9-4.7c-9.4-2.4-19-4.6-28.1-8c-1-0.4-1.9-0.8-2.9-1.2
					c-0.1,0-0.1-0.1-0.2-0.1c-8.2-3.5-15.8-8.3-23.2-13.3c-5.4-3.6-12.1-8.1-17.6-2.1c-5.6,6.2-5.8,16.6-4.7,24.3
					c0.1,0.9,1.5,0.5,1.3-0.4c-1.2-8.1,0.5-31.3,14.3-24.4c4.6,2.3,8.7,5.7,13,8.5c4.6,2.9,9.4,5.7,14.4,8c0.2,0.1,0.5,0.2,0.7,0.3
					c-4.3,2.8-7.6,5.9-8.4,11.4c-0.9,5.8,0.7,11.7,3,17c-9.2-2.6-17.9-6.5-24.5-13c-0.6-0.6-1.6,0.3-1,1
					c11.2,11.2,28.8,14.9,43.9,17.4c17.2,2.9,34.7,3.1,52,0.8c0,0,0,0,0,0v0c3.3,5.1,6.6,10.2,10,15.4c0.4,0.6,1.2,0.3,1.3-0.4
					c0.3-3.3,0-6.4-0.9-9.5c3.9,3.1,8.2,5.6,12.8,7.5c0.6,0.2,0.9-0.4,0.9-0.9c-0.8-5.5-4-10.2-8.7-13.1c1.2,0,2.4-0.1,3.6-0.1
					c1.6-0.1,4.1,0.3,5.6-0.2C238.8,262,238.9,261.2,238.5,260z M235.8,261.2c-0.9,0.4-2.5,0.1-3.4,0.1c-2.3,0.1-4.6,0.1-6.8,0.2
					c-0.6,0-1,1-0.4,1.3c5.2,2.2,8.8,6.6,10,12.1c-4.7-2.1-9-4.7-13-8.1c-0.5-0.4-1.4,0-1.2,0.7c1.2,3,1.7,6,1.7,9.1
					c-2.9-4.5-5.8-9-8.8-13.5c-0.2-0.3-0.6-0.4-0.8-0.3c-0.1-0.2-0.4-0.4-0.7-0.4c-17,2.3-34.3,2.1-51.3-0.8
					c-5.5-0.9-11.4-2-17.1-3.6c0,0,0-0.1,0-0.1c-2.2-5-3.9-10.5-3.4-16c0.6-6,4.1-9.2,8.8-12.1c9.2,3.8,19,6,28.6,8.5
					c10.5,2.7,21.1,5.9,32,5.3c0.2,0,0.3-0.1,0.4-0.2c6.3-1.4,10.3-6.3,14.1-11.2c0.3,4.7-0.7,9.2-2.8,13.5
					c-0.3,0.7,0.5,1.4,1.1,0.8c1.2-1.2,13.4-2.9,13.9-1.2c0.5,1.8-11.6,6-12.6,6.4c-0.8,0.3-0.6,1.3,0.2,1.4c4.3,0.5,9,2.4,11.8,5.8
					c0.2,0.2,0.4,0.5,0.6,0.7C237.4,261,237.2,261.5,235.8,261.2z"/>
			</g>
		</g>
	</g>
	<g>
		<path id="XMLID_26_" class="st1" d="M377.3,390c20.7,7.1,44.3,3.3,61.8-10c0.7-0.5,0-1.7-0.7-1.2c-17.2,13.1-40.3,16.9-60.7,9.9
			C376.9,388.4,376.5,389.7,377.3,390z"/>
		<path id="XMLID_25_" class="st1" d="M397.4,401.3c6.8,2.2,13.6,0.2,20.2-2c0.8-0.3,0.5-1.6-0.4-1.3c-6.3,2.1-12.9,4.1-19.5,2
			C397,399.7,396.6,401,397.4,401.3z"/>
		<g id="XMLID_1_">
			<g id="XMLID_292_">
				<path id="XMLID_104_" class="st0" d="M387.4,203.5c-3.7-7.5-10.5-14.5-19.3-15.2c-8-0.7-14.8,5.1-22.1,7.5
					c-0.1,0-0.1,0.1-0.2,0.1c-1.4,0.4-2.8,0.9-4.2,1.4c-0.4,0.1-3.5,1.1-3.9,1.7c-0.9,1.5,1,5.7,1.4,7.4c1,4.5,1.8,9.1,2.2,13.7
					c1,9.9,0.5,19.9-1.3,29.6c-0.8,4.4-1.8,8.8-2.8,13.2c-1,4.5-2.4,9.3-2,13.9c0.9,11,12.9,14.3,22.1,14.9c4.6,0.3,9.4,0,13.7-1.6
					c4.4-1.6,8.2-4.6,11.8-7.5c7.4-6.1,10.4-14.1,11.2-23.5c0.9-9.3,0.6-18.8-0.3-28C392.9,221.9,391.6,212,387.4,203.5z"/>
				<g id="XMLID_294_">
					<path id="XMLID_105_" class="st1" d="M395.4,232.4c-0.9-9.2-2.1-18.9-5.8-27.5c-3.4-7.9-9.5-15.1-18.1-17.3
						c-9.7-2.5-17.1,4.2-25.9,7c-0.1,0-0.1,0.1-0.2,0.1c-3.2,0.9-6.3,2.2-9.3,3.7c-0.3,0.1-0.4,0.5-0.3,0.8c0,0.2,0.1,0.3,0.1,0.5
						c0.4-0.1,0.8,0.1,1.2,0c0.9-0.2,0.5-0.6,0.8-0.7c0,0,0.1-0.1,0.1-0.1c0,0,0,0,0,0c0,0,0,0,0,0c0.9-0.6,3.2-1.3,3.6-1.4
						c1.4-0.5,2.8-1,4.2-1.4c0.1,0,0.2-0.1,0.2-0.1c7.3-2.4,14-8.2,22.1-7.5c8.8,0.8,15.6,7.7,19.3,15.2c4.1,8.4,5.5,18.4,6.4,27.6
						c0.9,9.3,1.2,18.7,0.3,28c-0.9,9.4-3.8,17.3-11.2,23.5c-3.5,2.9-7.4,5.9-11.8,7.5c-4.4,1.6-9.1,1.8-13.7,1.6
						c-9.2-0.5-21.2-3.9-22.1-14.9c-0.4-4.6,1.1-9.4,2-13.9c0.9-4.4,1.9-8.8,2.8-13.2c1.8-9.8,2.3-19.7,1.3-29.6
						c-0.5-4.6-1.2-9.2-2.2-13.7c-0.1-0.5-0.4-1.2-0.6-2c0.1,2.6,0.5,5.3,0.6,7.9c1.1,6,1.3,11.9,1.3,18c0,10.4-2,20.5-4.2,30.6
						c-1.6,7.7-4.8,16.7,0.5,23.6c5.2,6.9,14.7,8.5,22.8,8.6c4.4,0.1,8.9-0.4,12.9-2.1c4-1.7,7.6-4.4,11-7.2
						c7-5.7,10.5-12.8,11.7-21.7C396.6,252.5,396.3,242.3,395.4,232.4z"/>
				</g>
			</g>
			<g id="XMLID_62_">
				<g id="XMLID_276_">
					<g id="XMLID_283_">
						<path id="XMLID_102_" class="st0" d="M369.9,170.6c5.4,1.1,5.8-4.4,5-8.2c-0.2-1.2-0.5-3.1-1.2-4.1c-2.2-2.9-5.5,0.9-5.5,3.1
							c0,0.1,0,0.1,0,0.2c0.2,0.8-1.1,1.2-1.3,0.3c-1.2-5-2.9-9.8-5.2-14.4c-2.2-4.4-5-9.2-10.4-9.8c-4.9-0.6-10,2-14.4,3.9
							c-4,1.8-7.8,4.1-10.3,7.9c0,8,1.6,15.8,4.3,23.3c1.3,3.7,2.6,7.7,4.6,11.2c2.5,4.4,6.4,4.5,11,3.6c0.4-0.1,0.8,0.1,0.9,0.5
							c0.7,2.5,1,6,2.3,8.2c0.9,1.6,1.6,1,3.1,0.4c1.5-0.6,2.9-1.2,4.3-2c1.1-0.6,2.3-1.2,3.4-1.8c2.2-1.2,3.4-2.1,2.9-4.8
							c-0.5-2.7-1-5.5-1.5-8.2c-0.1-0.4,0.1-0.7,0.5-0.9c2.6-1,4.5-2.9,5.5-5.5c0.1-0.3,0.3-0.4,0.6-0.5c0.2-0.5,0.6-1,1-1.3
							C368.7,171.6,369.1,170.4,369.9,170.6z"/>
						<path id="XMLID_43_" class="st1" d="M375.7,159.6c-0.6-2.2-1.7-4.1-4.2-3.6c-1.8,0.3-3.2,1.4-4,2.9c-1.4-4.9-3.2-9.6-5.7-14
							c-2.3-4.1-5.4-8-10.4-8.6c-5.1-0.6-10.3,1.9-14.8,4c-4.5,2-8.7,4.5-11.4,8.8c-0.1,0.2-0.1,0.4-0.1,0.6c0,10,2.6,19.7,6.3,28.9
							c1.3,3.3,2.6,7.5,5.6,9.6c2.7,1.9,6,1.5,9,0.9c0.5,2,1.1,4,1.6,6c0.3,1.1,0.4,3.1,1.7,3.8c1.9,0.9,6.1-1.7,7.8-2.6
							c2.2-1.1,6.8-2.6,7.7-5.2c0.4-1.1-0.1-2.7-0.3-3.8c-0.4-2.3-0.8-4.7-1.2-7c2.8-1.2,4.8-3.2,5.8-6.2c0.3-0.8-1-1.2-1.3-0.4
							c-1,2.6-2.8,4.5-5.5,5.5c-0.4,0.1-0.6,0.5-0.5,0.9c0.5,2.7,1,5.5,1.5,8.2c0.5,2.7-0.8,3.6-2.9,4.8c-1.1,0.6-2.2,1.2-3.4,1.8
							c-1.4,0.7-2.9,1.4-4.3,2c-1.5,0.6-2.3,1.2-3.1-0.4c-1.2-2.3-1.6-5.7-2.3-8.2c-0.1-0.4-0.5-0.6-0.9-0.5c-4.5,1-8.5,0.9-11-3.6
							c-2-3.5-3.3-7.4-4.6-11.2c-2.6-7.5-4.3-15.3-4.3-23.3c2.5-3.8,6.3-6,10.3-7.9c4.3-2,9.5-4.5,14.4-3.9
							c5.4,0.6,8.2,5.4,10.4,9.8c2.3,4.6,4,9.4,5.2,14.4c0.2,0.9,1.5,0.5,1.3-0.3c0-0.1,0-0.1,0-0.2c0-2.2,3.3-6,5.5-3.1
							c0.7,1,1,2.9,1.2,4.1c0.8,3.7,0.4,9.3-5,8.2c-0.9-0.2-1.2,1.2-0.4,1.3c2.4,0.5,4.8-0.2,6.2-2.2
							C377.8,166.9,376.6,162.6,375.7,159.6z"/>
					</g>
					<g id="XMLID_277_">
						<g id="XMLID_278_">
							<path id="XMLID_98_" class="st1" d="M343.8,158.5c0,1.4,0.8,2.6,2.1,3.2c0.5,0.2,1,0,1-0.6c0.1-1-0.3-2.1-1-2.8
								c-0.4-0.4-0.9-0.6-1.4-0.2c-0.4,0.3-0.3,1,0.2,1.2c0.8,0.4,1.5-0.8,0.7-1.2l-0.1,0c0.1,0.2,0.2,0.4,0.3,0.6
								c0,0.1,0,0.1-0.1,0.2c-0.2,0.1-0.4,0.2-0.6,0.3c-0.2-0.1-0.2,0,0,0.1c0.1,0.1,0.1,0.1,0.2,0.2c0.1,0.1,0.2,0.3,0.3,0.5
								c0.1,0.4,0.2,0.7,0.1,1.1c0.3-0.2,0.7-0.4,1-0.6c-0.8-0.4-1.4-1.1-1.4-2C345.2,157.6,343.8,157.6,343.8,158.5z"/>
							<path id="XMLID_97_" class="st1" d="M332.8,166.2c-0.4-0.2-0.9-0.2-1.2,0.2c-0.3,0.4-0.3,0.9-0.1,1.4c0.3,0.9,1,1.7,1.9,2.1
								c0.4,0.2,1.1,0,1-0.6c-0.1-1.2-0.6-2.3-1.4-3.2c-0.6-0.7-1.6,0.3-1,1c0.5,0.6,0.9,1.4,1,2.2c0.3-0.2,0.7-0.4,1-0.6
								c-0.3-0.2-0.7-0.4-0.9-0.7c-0.1-0.1-0.2-0.3-0.3-0.5c0-0.1-0.1-0.2-0.1-0.3c0-0.4-0.3-0.3-0.7,0.2
								C332.9,167.8,333.6,166.6,332.8,166.2z"/>
							<path id="XMLID_96_" class="st1" d="M336.4,165.7c0.1,1.3,0.2,2.6,0.4,3.9c0.1,0.8,0.1,1.9,0.4,2.6c0.8,1.7,2.5,1.2,4,1.4
								c0.9,0.1,0.9-1.3,0-1.4c-0.5-0.1-1.1,0-1.6,0c-1.2-0.2-1.3-1-1.4-2.1c-0.2-1.5-0.3-2.9-0.4-4.4
								C337.7,164.8,336.3,164.8,336.4,165.7z"/>
							<path id="XMLID_95_" class="st1" d="M345.4,176.5c3.4-1.4,5.1-5.2,5.4-8.7c0.1-0.9-1.3-0.9-1.4,0c-0.2,2.8-1.6,6.2-4.4,7.3
								C344.2,175.5,344.6,176.9,345.4,176.5z"/>
						</g>
					</g>
				</g>
				<g id="XMLID_269_">
					<path id="XMLID_54_" class="st1" d="M371.2,145.8c1.1-2.3,1.9-5.1,0.4-7.5c-1-1.6-2.7-2.6-4.6-2.3c1.3-5.8-5.8-8.1-10.6-8.5
						c0.1-4.7-5.3-6.7-8.5-3.7c-2-3.3-6.4-3-8.3,0.2c-2.2-1.7-4.9-3.4-7.8-2.6c-2.7,0.7-3.6,3-3.9,5.4c-1.3-0.8-3-0.7-4.3,0.4
						c-2.3,1.9-2,5-1.3,7.7c-5.2,0-7.4,6.1-4,9.6c-2,0.7-3.1,2.5-3.8,4.6c-0.3,1-0.7,2.2-0.2,3.3c0.6,1,1.8,1.2,2.8,1.7
						c-2.4,3.2-1,7.6,2.9,8.7c-1.1,4.3,4.2,6,7.6,6.3c0.4,0,0.7-0.3,0.7-0.6c0.4,0,0.7-0.4,0.6-0.8c-0.9-3-1.7-5.9-2.4-9
						c2.7-0.4,5-2.3,5.3-5c3.5,0.6,6.6-1.1,8-4.4c1.4,0.7,3.2,0.4,4.7-0.2c1.7-0.6,2.6-1.9,3.2-3.3c0.9,2.1,2.7,2.8,5,1.9
						c0.2,2.1,0.8,4.2,2.5,5.6c1.5,1.2,3.3,1.2,4.8,0.4c1.4,2.6,7.2,11,8.2,8c0.2-0.5-0.3-1.3,0-2c0.6-1.6,2.4-2.1,3.8-2.7
						c1.6-0.6,2-1.5,2.5-3.3C375.6,150.7,374.1,147.2,371.2,145.8z M373,154c-0.8,1.4-1.9,1.6-3.2,2.3c-1.2,0.7-2.9,2.3-3.1,3.8
						c-0.5-0.5-1.1-1-1.4-1.2c-1.6-1.8-3.4-3.9-4.1-6.2c0-0.1-0.1-0.1-0.1-0.2c-0.1-0.5-0.7-0.8-1.2-0.4c-3.7,3.4-5.7-2.9-5.8-5.4
						c0-0.5-0.6-0.8-1-0.6c-2.1,1-4-0.1-4.4-2.3c-0.1-0.4-0.3-0.5-0.6-0.5c-0.4-0.3-1-0.2-1.1,0.3c-0.3,1.5-0.7,3-2.2,3.8
						c-1.1,0.7-3.7,1.2-4.7,0.3c-0.4-0.3-1-0.2-1.2,0.3c-1.1,3.3-4.1,4.9-7.4,4.1c-0.4-0.1-0.9,0.2-0.9,0.7c0.1,2.7-2.4,4.5-4.8,4.5
						c-0.5,0-0.8,0.4-0.7,0.9c0.7,3.2,1.5,6.3,2.5,9.5c-2.7-0.2-7.4-1.3-5.9-5.2c0.1-0.3-0.1-0.8-0.5-0.9c-3.5-0.7-5-4.5-2.4-7.2
						c0.2-0.3,0.3-0.7,0-1c-0.4-0.4-1.2-0.6-1.5-1c-2.2-2.2-1.1-6.9,2.8-6.9c0.7,0,0.9-0.9,0.4-1.3c-4.3-2.8-1.8-8.6,3.1-8
						c0.4,0.1,0.8-0.5,0.7-0.9c-0.3-1-0.7-2.1-0.7-3.2c0-1.6,1.3-7.4,4.7-3.7c0.4,0.5,1.1,0.1,1.2-0.5c0.2-2.7,1.1-5.6,4.4-5.5
						c2.2,0.1,4.1,1.6,5.7,2.9c0.4,0.4,1,0.2,1.2-0.3c1.5-3.7,5.5-2.6,6.6,0.1c0.2,0.5,0.9,0.4,1.2,0c2.5-3.4,7.1-1.2,6.7,2.8
						c0,0.4,0.4,0.7,0.7,0.7c4.2,0.2,12,1.9,9.6,8c-0.3,0.6,0.5,1,1,0.7c0.1,0,0.1,0,0.2,0c2.4-0.8,4.1,1,4.4,3.2
						c0.3,1.8-0.5,3.5-1.3,5c-0.2,0.4,0,0.9,0.4,1C372.8,147.7,374.4,151.4,373,154z"/>
					<path id="XMLID_90_" class="st1" d="M348.6,143.9c0.4,2.1,2.3,3.3,4.4,2.3c0.5-0.2,1,0.1,1,0.6c0.2,2.5,2.1,8.7,5.8,5.4
						c0.5-0.4,1.1-0.1,1.2,0.4c0,0.1,0.1,0.1,0.1,0.2c0.8,2.3,2.5,4.4,4.1,6.2c0.2,0.2,0.9,0.7,1.4,1.2c0.2-1.5,1.9-3.2,3.1-3.8
						c1.3-0.7,2.4-0.9,3.2-2.3c1.4-2.6-0.2-6.2-2.9-7.2c-0.4-0.2-0.6-0.6-0.4-1c0.8-1.6,1.5-3.2,1.3-5c-0.4-2.2-2-4-4.4-3.2
						c-0.1,0-0.1,0-0.2,0c-0.5,0.2-1.2-0.1-1-0.8c2.4-6.1-5.4-7.8-9.6-8c-0.3,0-0.7-0.3-0.7-0.7c0.5-4-4.2-6.1-6.7-2.8
						c-0.3,0.4-1,0.5-1.2,0c-1.1-2.6-5.1-3.8-6.6-0.1c-0.2,0.5-0.7,0.7-1.2,0.3c-1.6-1.3-3.5-2.8-5.7-2.9c-3.3-0.1-4.2,2.8-4.4,5.5
						c0,0.6-0.7,1-1.2,0.5c-3.4-3.7-4.8,2.1-4.7,3.7c0,1.1,0.4,2.1,0.7,3.2c0.1,0.4-0.2,0.9-0.7,0.9c-4.8-0.6-7.4,5.2-3.1,8
						c0.6,0.4,0.4,1.3-0.4,1.3c-3.9,0-5,4.7-2.8,6.9c0.3,0.3,1.1,0.6,1.5,1c0.3,0.3,0.2,0.7,0,1c-2.6,2.7-1.1,6.6,2.4,7.2
						c0.3,0.1,0.6,0.5,0.5,0.9c-1.5,3.9,3.2,4.9,5.9,5.2c-1-3.1-1.8-6.3-2.5-9.5c-0.1-0.4,0.2-0.9,0.7-0.9c2.4,0,5-1.8,4.8-4.5
						c0-0.5,0.5-0.8,0.9-0.7c3.4,0.9,6.4-0.7,7.4-4.1c0.2-0.5,0.8-0.7,1.2-0.3c1.1,0.9,3.6,0.4,4.7-0.3c1.4-0.9,1.8-2.4,2.2-3.8
						c0.1-0.6,0.7-0.6,1.1-0.3C348.3,143.4,348.5,143.5,348.6,143.9z"/>
				</g>
			</g>
			<g id="XMLID_224_">
				<g id="XMLID_229_">
					<g id="XMLID_231_">
						<path id="XMLID_67_" class="st1" d="M431.7,314c-0.4-1.6-0.9-3.2-0.4-4.8c1-3,3.6-2.8,5.9-1.7c2.2,1,4.3,2.2,6.3,3.4
							c3.8,2.2,7.6,4.5,11.2,7.1c4.1,2.9,8.1,5.9,11.8,9.3c1.5,1.4,3,2.8,4.3,4.4c1.4,1.7,3.8,4.7,4.1,7c1.2,10.5-24.6-1.2-28-3.1
							c-8.2-4.5-13.8-12-15.4-21.2c-0.1-0.9-1.5-0.5-1.3,0.4c1.4,8.5,6.3,16,13.6,20.6c4.2,2.7,9.1,4.7,13.8,6.5
							c4.4,1.6,9.4,3,14.2,2.4c9.4-1.3,2.3-11.2-1.2-15.1c-6.8-7.3-15.7-13.3-24.3-18.3c-2.5-1.5-5.1-2.9-7.7-4.2
							c-1.6-0.8-3.4-1.9-5.2-1.5c-4.3,0.9-3.7,6.2-2.9,9.3C430.6,315.2,431.9,314.8,431.7,314z"/>
					</g>
					<path id="XMLID_66_" class="st0" d="M466.5,327.2c-3.7-3.4-7.7-6.4-11.8-9.3c-3.6-2.5-7.3-4.9-11.2-7.1
						c-2.1-1.2-4.2-2.3-6.3-3.4c-2.4-1.1-4.9-1.3-5.9,1.7c-0.5,1.6,0,3.3,0.4,4.8c0.1,0.2,0,0.4-0.1,0.6c1.6,9.1,7.2,16.5,15.3,20.9
						c3.5,1.9,29.3,13.6,28,3.1c-0.3-2.3-2.7-5.3-4.1-7C469.5,330,468,328.6,466.5,327.2z"/>
				</g>
				<g id="XMLID_225_">
					<g id="XMLID_227_">
						<path id="XMLID_65_" class="st1" d="M281.5,389.6c-5.5-1.5-11.2-2.5-16.9-3.1c-2.5-0.2-8.2-1.5-9.5,1.8
							c-1.4,3.4,3.4,8.4,5.4,10.8c3.2,3.7,6.9,6.9,11,9.7c4.5,3.1,9.4,5.5,14.4,7.6c5.1,2.1,10.5,4.5,16,5.3c3.4,0.6,8,0.8,9.3-3.2
							c1.3-4.1-0.7-8.9-3.1-12.2c-3.3-4.6-7.9-8.3-12.5-11.5c-3.9-2.8-9.6-7.3-14.7-5.5c-0.8,0.3-0.5,1.6,0.4,1.3
							c5-1.8,11.6,3.8,15.5,6.7c4.2,3.2,8.6,6.8,11.3,11.4c1.4,2.3,2.4,5.1,2.1,7.8c-0.2,2.4-2.6,3.7-4.8,4.1
							c-1.6,0.3-3.6-0.3-5.2-0.7c-4.9-1.2-9.7-3.1-14.3-5.1c-9.1-3.9-17.9-9.1-24.4-16.8c-1.4-1.6-3.9-4.3-4.4-6.4
							c-1.6-5.7,4.9-4.1,7.6-3.8c5.6,0.5,11.1,1.6,16.5,3C282,391.2,282.4,389.9,281.5,389.6z"/>
					</g>
					<path id="XMLID_64_" class="st0" d="M296.6,397.4c-3.6-2.7-9.8-7.9-14.7-6.9c-0.1,0.3-0.4,0.6-0.8,0.5
						c-5.4-1.4-10.9-2.5-16.5-3c-2.8-0.3-9.2-1.9-7.6,3.8c0.6,2.1,3.1,4.8,4.4,6.4c6.5,7.7,15.2,12.9,24.4,16.8
						c4.6,2,9.4,3.9,14.3,5.1c1.6,0.4,3.6,0.9,5.2,0.7c2.2-0.4,4.6-1.7,4.8-4.1c0.2-2.7-0.8-5.5-2.1-7.8
						C305.2,404.1,300.8,400.5,296.6,397.4z"/>
				</g>
			</g>
			<g id="XMLID_176_">
				<g id="XMLID_183_">
					<path id="XMLID_42_" class="st0" d="M347.3,215c6,1.8,10.9,6.3,13.3,12.1c1.5,3.6,1.7,7.4,1.3,11.3c-0.4,3.3-0.8,6.7-2.2,9.6
						c5.3-3.1,10.3-6.6,14.9-10.6c0.2-0.1,0.3-0.2,0.5-0.2c2.6-4.5,3.5-9.9,2.8-15.2c-0.5-3.7-1.6-6.7-3.1-10.1
						c-0.5-1.2-1.1-2.3-1.7-3.5c-0.3-0.5-2.2-4.8-1-1.8c-1.5-3.6-3.8-6.4-6.6-8c0,0,0,0.1,0,0.1C360.6,205.5,354.1,210.4,347.3,215z
						"/>
					<path id="XMLID_83_" class="st0" d="M269.5,268.1c10.5,0.2,21,0.3,31.4-1c9.1-1.1,18.2-3.1,27-5.7c10.1-3,20.2-6.9,29.5-12
						c0-0.1,0.1-0.2,0.1-0.3c2.2-3.2,2.7-7.5,3.1-11.3c0.3-3.5,0.1-6.9-1.2-10.2c-2.4-5.8-7.5-10.1-13.6-11.6
						c-0.6,0.4-1.2,0.8-1.8,1.2c-8.9,5.8-17.8,11.5-27.7,15.4c-19.6,7.7-40.3,9.7-61.2,9.3c-0.1,0-0.1,0-0.2,0c0,0,0,0,0,0
						c0,0-0.1,0-0.1,0c0,0,0,0,0,0c-3.2-1.4-6.1-3.3-9.1-5c0.6,3.1,2.2,5.7,4.6,7.8c0.4,0.4,0.2,1-0.3,1.2c-3.5,1.1-6.7,2.8-9.5,5.2
						c3.3,0.7,6.7,1.4,10.1,1.8c0.7,0.1,0.6,1,0.2,1.3c-3.5,2.5-5.8,6-6.8,10.2c2.9-0.5,5.5-1.5,8-2.9c0.6-0.4,1.2,0.3,1,1
						c-0.6,1.3-4.5,10.5-2.7,11.4c0.6,0.3,6-8.4,6.5-9.4c0.3-0.5,1.2-0.5,1.3,0.2c0.7,4.3,1.4,8.5,3.3,12.4c1.7-2.5,3.4-5,5-7.4
						c0.4-0.6,1.3-0.3,1.3,0.3c0.2-0.2,0.4-0.4,0.6-0.6c0.1-0.1,0.3-0.2,0.5-0.2C268.7,268.6,268.9,268.1,269.5,268.1z"/>
				</g>
				<path id="XMLID_22_" class="st1" d="M374.6,237.5c-4.6,4-9.6,7.5-14.9,10.5c1.4-3,1.9-6.4,2.2-9.6c0.4-3.9,0.2-7.7-1.3-11.3
					c-2.4-5.8-7.4-10.3-13.4-12.1c6.8-4.5,13.3-9.5,18.1-16.3c0.5-0.7-0.7-1.4-1.2-0.7c-5.8,8.1-14.1,13.5-22.3,18.8
					c-9,5.8-18,11.3-28.1,15.1c-18.8,7-38.6,8.8-58.6,8.5c-3.5-1.6-6.7-3.8-10.2-5.5c-0.4-0.2-1.1,0-1,0.6c0.4,3.6,1.9,6.8,4.4,9.3
					c-3.7,1.3-7,3.3-10,6c-0.4,0.3-0.2,1,0.3,1.2c3.3,0.8,6.6,1.4,9.9,1.9c-3.4,2.8-5.5,6.6-6.3,11c-0.1,0.6,0.3,0.9,0.9,0.9
					c2.7-0.4,5.2-1.2,7.7-2.3c-1,2.3-1.7,4.7-2,7.2c-0.2,1.1-1,4,0.6,4.7c1.4,0.6,2.5-1.5,3.1-2.3c1.6-2.1,3.1-4.2,4.4-6.4
					c0.7,4.2,1.6,8.3,3.7,12c0.3,0.5,0.9,0.4,1.2,0c1.9-2.8,3.8-5.6,5.7-8.4c0.5-0.7-0.7-1.4-1.2-0.7c-1.7,2.5-3.4,4.9-5,7.4
					c-1.9-3.9-2.6-8.2-3.3-12.4c-0.1-0.6-1-0.6-1.3-0.2c-0.6,0.9-5.9,9.7-6.5,9.4c-1.8-1,2-10.2,2.7-11.4c0.3-0.6-0.3-1.3-1-1
					c-2.5,1.5-5.2,2.4-8,2.9c0.9-4.1,3.2-7.7,6.7-10.2c0.4-0.3,0.5-1.2-0.2-1.3c-3.4-0.5-6.7-1.1-10-1.8c2.8-2.4,5.9-4.1,9.4-5.2
					c0.5-0.1,0.7-0.8,0.3-1.2c-2.4-2.1-4-4.7-4.6-7.8c3.1,1.6,6,3.5,9.1,4.9c0,0,0,0,0,0c0.1,0.1,0.2,0.1,0.3,0.1
					c20.9,0.3,41.6-1.7,61.2-9.3c9.9-3.9,18.8-9.6,27.7-15.4c0.6-0.4,1.2-0.8,1.8-1.2c6.1,1.5,11.2,5.8,13.6,11.6
					c1.3,3.2,1.6,6.7,1.2,10.2c-0.4,3.8-0.9,8.1-3.1,11.3c-0.1,0.1-0.1,0.2-0.1,0.3c-9.3,5.2-19.4,9.1-29.5,12.1
					c-8.8,2.6-17.9,4.6-27,5.7c-10.4,1.3-20.9,1.2-31.4,1c-0.9,0-0.9,1.4,0,1.4c10.9,0.2,21.9,0.3,32.8-1.2c9.1-1.2,18.2-3.2,27-5.9
					c16.7-5,33.1-12.5,46.4-24C376.3,237.9,375.3,236.9,374.6,237.5z"/>
			</g>
			<g id="XMLID_9_">
				<g id="XMLID_187_">
					<path id="XMLID_85_" class="st1" d="M412.1,331.6c-4.8,4.5-12.4,7.2-18.2,2.7c-5.5-4.3-6.6-12.5-7-18.9
						c-1-18.4,6.4-35.9,7-54.1c-16.7,9.3-36.6,11.6-55.1,6.4c-0.1,0-0.2-0.1-0.3-0.2c-0.7-0.2-1.4-0.4-2.1-0.6
						c-1.2,4.2-3.2,8.3-5,12.2c-7.4,15.9-15.7,31.3-24.3,46.6c-11.7,21-24,41.7-37,61.9c5.8,6.7,11.9,13.3,19.3,18.4
						c7.3,5.1,15.6,8.4,24.1,11.2c7.8-12.5,14.7-25.5,20.6-39.1c6.1-14,11.1-28.3,16.3-42.7c0,0,0-0.1,0.1-0.1
						c-1.3-8.4-1.9-16.8-0.4-25.2c-4.6-1.3-8.7-3.7-12-7.2c-0.6-0.6,0.4-1.6,1-1c3.3,3.5,7.3,5.8,12,7c0.4,0.1,0.6,0.5,0.5,0.9
						c-1.6,8.3-1.2,17,0.2,25.5c0.1,0.1,0.1,0.3,0.1,0.4c0.8,4.9,1.9,9.7,3.1,14.3c5.6,21.8,26.8,34.1,48.7,30.7
						c10.8-1.7,20.9-7.2,29.9-13.3c8.4-5.7,16-12.7,21.6-21.2c0,0,0,0,0-0.1c-4.1-15.9-14.5-29.7-28.2-38.3
						C423.5,316.4,418.8,325.3,412.1,331.6z"/>
					<path id="XMLID_92_" class="st1" d="M456.6,346.4c-5.3-16.2-15.7-30.3-29.7-40.1c-0.4-0.3-0.8-0.1-0.9,0.3
						c0,0.1-0.1,0.1-0.1,0.2c-2,5-4.4,9.8-7.3,14.3c-2.6,4.1-5.6,8.4-9.6,11.3c-4.5,3.3-10.9,4.3-15.2,0c-3.2-3.2-4.4-8-5-12.3
						c-2.9-20.3,6.3-39.9,6.6-60.1c0-0.5-0.6-0.9-1-0.6c-16.4,9.5-36,12-54.3,7.1c-0.1,0-0.1-0.1-0.2-0.1c-1.2-0.3-2.4-0.7-3.6-1
						c-0.4-0.1-0.8,0.1-0.9,0.5c-1,3.9-2.8,7.6-4.5,11.2c-3,6.6-6.3,13.1-9.6,19.5c-9.6,18.6-19.8,36.8-30.5,54.8
						c-7.1,12-14.4,23.8-21.9,35.5c0,0,0,0.1,0,0.1c-0.3,0.2-0.4,0.7-0.1,1c6,7,12.4,13.8,20,19c7.6,5.2,16.2,8.6,24.9,11.5
						c0.3,0.1,0.6,0,0.7-0.3c0,0,0,0,0.1-0.1c8.1-12.9,15.2-26.4,21.3-40.4c5.6-13.1,10.4-26.5,15.3-39.9c0.5,2.8,1.1,5.6,1.7,8.4
						c2.2,10.5,6.7,19.8,15.2,26.6c8.3,6.6,18.8,9.9,29.3,9.6c11.9-0.3,22.7-5.2,32.8-11.4c10.2-6.3,19.4-14.1,26.1-24.1
						C456.4,347.2,456.8,346.9,456.6,346.4z M433.4,367.5c-9,6.1-19,11.7-29.9,13.3c-21.9,3.3-42.4-9.3-48-31.1
						c-3.3-12.9-6.6-26.7-4.1-39.9c0.1-0.4-0.1-0.8-0.5-0.9c-4.7-1.2-8.6-3.5-12-7c-0.6-0.6-1.6,0.3-1,1c3.3,3.5,7.4,5.9,12,7.2
						c-1.5,8.4-0.9,16.9,0.4,25.2c0,0,0,0.1-0.1,0.1c-5.2,14.3-10.2,28.7-16.3,42.7c-5.9,13.5-12.8,26.6-20.6,39.1
						c-8.4-2.8-16.7-6.1-24.1-11.2c-7.3-5.1-13.5-11.7-19.3-18.4c13-20.2,25.3-40.9,37-61.9c8.5-15.3,16.9-30.7,24.3-46.6
						c1.8-3.9,3.8-8,5-12.2c0.7,0.2,1.4,0.4,2.1,0.6c0.1,0.1,0.2,0.1,0.3,0.1c18.4,5.2,38.3,2.8,55-6.4c-1.8,18.3-7.9,35.8-6.9,54.1
						c0.3,6.5,1.5,14.7,7,18.9c5.8,4.5,13.4,1.7,18.2-2.7c6.7-6.3,11.4-15.2,14.8-23.6c13.2,9.5,23.1,22.9,28.2,38.3c0,0,0,0,0,0
						C449.4,354.8,441.8,361.8,433.4,367.5z"/>
				</g>
				<path id="XMLID_109_" class="st0" d="M350.8,315.9c0.1-0.4-0.1-0.8-0.5-0.9c-4.7-1.2-8.6-3.5-12-7c-0.6-0.6-1.6,0.3-1,1
					c3.3,3.5,7.4,5.9,12,7.2c-1.5,8.3-0.9,16.7,0.4,25c0.5-0.5,1-0.9,1.5-1.4C349.9,331.9,349.3,323.8,350.8,315.9z"/>
			</g>
		</g>
	</g>
</g>
</svg>
